<svg xmlns="http://www.w3.org/2000/svg" xmlns:xlink="http://www.w3.org/1999/xlink" fill="none" version="1.1" width="16" height="16" viewBox="0 0 16 16"><defs><clipPath id="master_svg0_721_017155"><rect x="0" y="0" width="16" height="16" rx="0"/></clipPath></defs><g clip-path="url(#master_svg0_721_017155)"><g><path d="M15.157958984375,7.873748779296875C15.157958984375,11.738948779296875,12.025558984375,14.873748779296875,8.157958984375,14.873748779296875C5.741318984375,14.873748779296875,3.610988984375,13.650848779296876,2.354148984375,11.787448779296875C1.599552984375,10.671318779296875,1.157958984375,9.324698779296876,1.157958984375,7.873748779296875C1.157958984375,4.0085887792968755,4.290368984375,0.873748779296875,8.157958984375,0.873748779296875C12.025558984375,0.873748779296875,15.157958984375,4.0085887792968755,15.157958984375,7.873748779296875Z" fill="#FC355D" fill-opacity="1" style="mix-blend-mode:passthrough"/></g><g><path d="M9.324628984375,7.873748779296875L10.910558984375001,6.286428779296875C11.233478984375001,5.963238779296875,11.233478984375001,5.439343779296875,10.910558984375001,5.116146779296875C10.587648984375,4.792949279296875,10.064208984375,4.792949279296875,9.741288984375,5.116146779296875L8.155348984375,6.703458779296875L6.569418984375,5.116146779296875C6.246498984375,4.792949279296875,5.723062984375,4.792949279296875,5.400145984375,5.116146779296875C5.077229684375,5.439343779296875,5.077229684375,5.963238779296875,5.400145984375,6.286428779296875L6.986078984375,7.873748779296875L5.400145984375,9.461068779296875C5.077229684375,9.784258779296875,5.077229684375,10.308148779296875,5.400145984375,10.631348779296875C5.561604984375,10.792948779296875,5.772541984375,10.873748779296875,5.986083984375,10.873748779296875C6.199628984375,10.873748779296875,6.410558984375,10.792948779296875,6.572018984375,10.631348779296875L8.157958984375,9.044038779296875L9.743898984375,10.631348779296875C9.905358984374999,10.792948779296875,10.116288984375,10.873748779296875,10.329838984375,10.873748779296875C10.540768984375,10.873748779296875,10.754308984375001,10.792948779296875,10.915768984375,10.631348779296875C11.238688984374999,10.308148779296875,11.238688984374999,9.784258779296875,10.915768984375,9.461068779296875L9.324628984375,7.873748779296875Z" fill="#FFFFFF" fill-opacity="1" style="mix-blend-mode:passthrough"/></g></g></svg>