<svg xmlns="http://www.w3.org/2000/svg" xmlns:xlink="http://www.w3.org/1999/xlink" fill="none" version="1.1" width="16" height="16" viewBox="0 0 16 16"><defs><clipPath id="master_svg0_760_006251"><rect x="0" y="0" width="16" height="16" rx="0"/></clipPath></defs><g clip-path="url(#master_svg0_760_006251)"><g><path d="M14.759,5.13042C14.6442,4.90782,14.3758,4.39251,14.1355,4.0043299999999995C13.9526,3.71373,13.7099,3.26178,13.6739,3.17772C13.58,2.9509,13.295,2.73717,12.8991,2.462619C12.8373,2.419536,12.7756,2.376452,12.7142,2.330835C12.5139,2.178775,12.2906,2.006441,12.0139,2.0469910000000002C11.5436,2.122176,11.1053,2.56948,11.1394,3.1823699999999997C11.1544,3.44129,11.2882,3.69092,11.5246,3.88142C11.7926,4.1019000000000005,12.1394,4.2151,12.4312,4.15597L12.6992,3.92239C12.8164,4.12936,13.2289,4.81236,13.2332,5.13929C13.2419,5.61827,13.3971,6.63073,13.4185,6.8715C13.2206,6.81701,12.7673,6.79884,12.5353,6.88755C12.3714,6.94203,11.8991,7.18491,11.7736,7.31205L11.5717,7.16886C11.2819,6.96484,10.9988,6.63792,10.7245,6.65143C10.4798,6.66284,9.70108,6.56949,9.5732,6.61046C9.4093,6.46727,9.01579,5.92493,8.88395,5.74795C8.88791,5.7433,8.89029,5.73654,8.89425,5.7319C9.24778,5.2005300000000005,9.72641,4.1585,9.72641,3.75428C9.72641,3.22545,9.59656,1.5,7.91124,1.5C6.22593,1.5,6.09608,3.2233400000000003,6.09608,3.75428C6.09608,4.1585,6.66022,5.16674,7.01336,5.70022L7.02405,5.71585C6.89222,5.89071,6.39616,6.54921,6.23226,6.6924C6.10478,6.65143,5.56202,6.63749,5.31736,6.62651C5.03627,6.61046,4.71322,6.84446,4.42382,7.0489L4.02358,7.3074C4.01962,7.30993,4.01526,7.30993,4.0128900000000005,7.3074C3.88937,7.18491,3.51921,6.86263,3.34462,6.81954C2.84263,6.6924,2.66369,6.74225,2.49147,6.86263C2.46178,6.88501,2.55521,5.34626,2.56392,4.8622C2.56788,4.56019,2.87034,4.3131,2.99544,4.083740000000001C3.02989,4.074450000000001,3.37233,4.14034,3.50021,4.1678C3.77021,4.2244,4.09405,4.06093,4.30466,3.88607C4.57466,3.66136,4.7342,3.38216,4.74925,3.0983099999999997C4.7833,2.50106,4.33,2.1289350000000002,3.84503,2.049526C3.57463,2.006443,3.28286,2.2104559999999998,3.08294,2.365049C3.02355,2.4102449999999997,2.96179,2.453751,2.90003,2.4943C2.50414,2.76885,2.21712,2.98004,2.12567,3.2094C2.09162,3.2938799999999997,1.8723,3.59546,1.69137,3.88607C1.451066,4.27466,1.2020499999999998,4.67593,1.084865,4.90106C0.923341,5.22123,0.331482,7.92282,0.5464513,8.279309999999999C0.633548,8.41997,0.9106730000000001,8.50402,2.08291,9.18745L2.27215,9.29853C2.54254,9.45735,3.2595,9.65292,3.72112,9.62799C3.80663,9.70952,4.23419,10.31775,4.69184,11.10804L4.83041,11.3374C4.91315,11.46665,4.9472,11.5232,4.94917,11.6162C4.95788,11.7598,4.97293,13.2943,4.98758,13.9232C4.99513,14.2499,5.24954,14.5081,5.55568,14.4998L10.30521,14.477C10.6118,14.4843,10.866,14.2254,10.8733,13.8983C10.8884,13.269,10.8796,11.8797,10.8903,11.737C10.8967,11.644,10.9287,11.587,11.0119,11.45989L11.5883,10.59737C12.0459,9.80497,12.3864,9.68459,12.4711,9.60265C12.9312,9.62799,13.3033,9.5621,13.5757,9.40286L13.761,9.293890000000001C14.9356,8.60835,15.4783,8.444890000000001,15.491,8.27467C15.5844,7.07128,14.9229,5.45016,14.7586,5.13042L14.759,5.13042Z" fill="#1F2037" fill-opacity="1"/></g></g></svg>