<svg xmlns="http://www.w3.org/2000/svg" xmlns:xlink="http://www.w3.org/1999/xlink" fill="none" version="1.1" width="16" height="16" viewBox="0 0 16 16"><defs><clipPath id="master_svg0_760_006227"><rect x="0" y="0" width="16" height="16" rx="0"/></clipPath></defs><g clip-path="url(#master_svg0_760_006227)"><g><path d="M7.9999559765625,1.333343505859375C6.1589559765625,1.333343505859375,4.6666259765625,2.825673505859375,4.6666259765625,4.666673505859375C4.6666259765625,6.507673505859375,6.1589559765625,8.000013505859375,7.9999559765625,8.000013505859375C9.8409559765625,8.000013505859375,11.3332959765625,6.507673505859375,11.3332959765625,4.666673505859375C11.3332959765625,2.825673505859375,9.8409559765625,1.333343505859375,7.9999559765625,1.333343505859375ZM8.3332959765625,11.666643505859374C8.3332959765625,10.518013505859376,8.8612959765625,9.493013505859375,9.6879559765625,8.820673505859375C9.1310959765625,8.718473505859375,8.5661259765625,8.666933505859376,7.9999559765625,8.666673505859375C6.1752959765625,8.666673505859375,4.6552959765625,9.205343505859375,3.5966259765624997,9.738013505859374C3.0666259765625,10.004673505859374,2.6479599765625,10.272343505859375,2.3589599765625,10.475343505859374C2.2128259765625,10.578093505859375,2.0705089765625,10.686163505859374,1.9322929765625,10.799343505859374L1.9062929765625,10.821343505859375L1.8982929765625,10.828013505859374L1.8956259765625,10.830673505859375L1.8946259765625,10.831343505859374L1.8939589765625,10.832013505859376L2.3332929765625,11.333343505859375L1.8936259765625,10.832013505859376C1.7492966765625,10.958633505859375,1.6665691137625,11.141343505859375,1.6666259765625,11.333343505859375L1.6666259765625,14.000043505859376C1.6666260957715,14.368243505859375,1.9651029765625,14.666643505859374,2.3332929765625,14.666643505859374L9.8912959765625,14.666643505859374C8.9139059765625,13.980543505859375,8.3324459765625,12.860843505859375,8.3332959765625,11.666643505859374ZM12.6666259765625,11.000013505859375L14.3333259765625,11.000013505859375L14.3333259765625,12.333343505859375L12.6666259765625,12.333343505859375L12.6666259765625,14.000043505859376L11.3332959765625,14.000043505859376L11.3332959765625,12.333343505859375L9.6666259765625,12.333343505859375L9.6666259765625,11.000013505859375L11.3332959765625,11.000013505859375L11.3332959765625,9.333343505859375L12.6666259765625,9.333343505859375L12.6666259765625,11.000013505859375Z" fill="#000000" fill-opacity="1" style="mix-blend-mode:passthrough"/></g></g></svg>