<svg xmlns="http://www.w3.org/2000/svg" xmlns:xlink="http://www.w3.org/1999/xlink" fill="none" version="1.1" width="16" height="16" viewBox="0 0 16 16"><defs><clipPath id="master_svg0_760_84828"><rect x="0" y="0" width="16" height="16" rx="0"/></clipPath></defs><g clip-path="url(#master_svg0_760_84828)"><g><path d="M8,1C4.13401,0.999999943721,1,4.13401,1,8C1,11.866,4.13401,15,8,15C11.866,15,15,11.866,15,8C15,4.13401,11.866,0.9999999155815,8,1ZM10.95925,9.20236L7.47835,9.20236C7.15639,9.20236,6.89539,8.94136,6.89539,8.619399999999999L6.89539,4.21874C6.89539,3.89678,7.15639,3.63578,7.47835,3.63578C7.80032,3.63578,8.06132,3.89678,8.06132,4.21874L8.06132,8.036439999999999L10.95925,8.036439999999999C11.2904,8.02351,11.5659,8.28846,11.5659,8.61984C11.5659,8.951229999999999,11.2904,9.21618,10.95925,9.20325L10.95925,9.20236Z" fill="#2B98FF" fill-opacity="1" style="mix-blend-mode:passthrough"/></g></g></svg>