<svg xmlns="http://www.w3.org/2000/svg" xmlns:xlink="http://www.w3.org/1999/xlink" fill="none" version="1.1" width="16" height="16" viewBox="0 0 16 16"><defs><clipPath id="master_svg0_760_005833"><rect x="0" y="0" width="16" height="16" rx="0"/></clipPath></defs><g clip-path="url(#master_svg0_760_005833)"><g><path d="M8,1C4.14062,1,1,4.14062,1,8C1,11.8594,4.14062,15,8,15C11.8594,15,15,11.8594,15,8C15,4.14062,11.8594,1,8,1ZM6.95,10.8C6.94827,10.80173,6.94548,10.80173,6.94375,10.8L4.50007,8.35632C4.305,8.161249999999999,4.305,7.845,4.50007,7.64993C4.69508,7.45492,5.01123,7.45486,5.20632,7.6498L6.88499,9.32723C6.9209,9.36311,6.97909,9.3631,7.015,9.32722L10.79372,5.5499C10.98877,5.35492,11.3049,5.35495,11.5,5.54997C11.695,5.74501,11.695,6.06124,11.5,6.25628L6.95625,10.8C6.95452,10.80173,6.95173,10.80173,6.95,10.8" fill="#129341" fill-opacity="1" style="mix-blend-mode:passthrough"/></g></g></svg>