<svg xmlns="http://www.w3.org/2000/svg" xmlns:xlink="http://www.w3.org/1999/xlink" fill="none" version="1.1" width="18" height="18" viewBox="0 0 18 18"><defs><clipPath id="master_svg0_760_006236"><rect x="0" y="0" width="18" height="18" rx="0"/></clipPath><clipPath id="master_svg1_760_006243"><rect x="0" y="0" width="18" height="18" rx="0"/></clipPath></defs><g clip-path="url(#master_svg0_760_006236)"><g clip-path="url(#master_svg1_760_006243)"><g><path d="M7.2966603125,6.377925458984375Q7.7105403125,3.871575458984375,9.0292503125,2.196972458984375Q9.3582003125,1.687261458984375,9.776320312500001,1.541574958984375Q9.9221703125,1.432370558984375,10.0956203125,1.450400408984375Q10.268630312500001,1.468631558984375,10.3783603125,1.614316458984375Q10.4877403125,1.760165458984375,10.4600103125,1.923868458984375Q10.432660312500001,2.087766458984375,10.3052403125,2.196972458984375Q9.9954903125,2.288128458984375,9.776320312500001,2.6430954589843747Q8.5624903125,4.174175458984375,8.153480312500001,6.412145458984375C10.5831703125,6.720265458984375,12.4618503125,8.794835458984375,12.4618503125,11.308195458984375C12.4618503125,14.034045458984375,10.2521403125,16.243745458984375,7.5263303125,16.243745458984375C4.8005203125,16.243745458984375,2.5908203125,14.034045458984375,2.5908203125,11.308195458984375C2.5908203125,8.659365458984375,4.677470312500001,6.497895458984375,7.2966603125,6.377925458984375Z" fill-rule="evenodd" fill="#1F2037" fill-opacity="1"/></g><g transform="matrix(0.9404609203338623,-0.33990177512168884,0.33990177512168884,0.9404609203338623,0.2410907997373215,2.9540569323362433)"><path d="M8.600772075,0.788848876953125Q8.164395375,6.311458876953125,12.524354375,9.993148876953125Q12.524584375,2.871928876953125,8.600772075,0.788848876953125Z" fill="#1F2037" fill-opacity="1"/></g></g></g></svg>