<svg xmlns="http://www.w3.org/2000/svg" xmlns:xlink="http://www.w3.org/1999/xlink" fill="none" version="1.1" width="18" height="18" viewBox="0 0 18 18"><defs><clipPath id="master_svg0_65_3069"><rect x="0" y="0" width="18" height="18" rx="0"/></clipPath></defs><g clip-path="url(#master_svg0_65_3069)"><g><path d="M14.89149169921875,15.617752075195312L11.29149169921875,15.617752075195312C10.63149069921875,15.617752075195312,10.09149169921875,15.077752075195313,10.09149169921875,14.417752075195313L10.09149169921875,10.817752075195312C10.09149169921875,10.157751075195312,10.63149069921875,9.617752075195312,11.29149169921875,9.617752075195312L14.89149169921875,9.617752075195312C15.55149169921875,9.617752075195312,16.09149169921875,10.157751075195312,16.09149169921875,10.817752075195312L16.09149169921875,14.417752075195313C16.09149169921875,15.077752075195313,15.55149169921875,15.617752075195312,14.89149169921875,15.617752075195312Z" fill="#8575FF" fill-opacity="1" style="mix-blend-mode:passthrough"/></g><g><path d="M7.530010986328125,15.617752075195312L3.930010986328125,15.617752075195312C3.270010986328125,15.617752075195312,2.730010718107125,15.077752075195313,2.730010986328125,14.417752075195313L2.730010986328125,10.817752075195312C2.730010986328125,10.157751075195312,3.270010986328125,9.617752075195312,3.930010986328125,9.617752075195312L7.530010986328125,9.617752075195312C8.190010986328126,9.617752075195312,8.730010986328125,10.157751075195312,8.730010986328125,10.817752075195312L8.730010986328125,14.417752075195313C8.730010986328125,15.077752075195313,8.190010986328126,15.617752075195312,7.530010986328125,15.617752075195312Z" fill="#209AFF" fill-opacity="1" style="mix-blend-mode:passthrough"/></g><g><path d="M14.89149169921875,8.669998168945312L11.29149169921875,8.669998168945312C10.63149069921875,8.669998168945312,10.09149169921875,8.129998168945313,10.09149169921875,7.469998168945312L10.09149169921875,3.8699981689453127C10.09149169921875,3.2099981689453125,10.63149069921875,2.6699981689453125,11.29149169921875,2.6699981689453125L14.89149169921875,2.6699981689453125C15.55149169921875,2.6699981689453125,16.09149169921875,3.2099981689453125,16.09149169921875,3.8699981689453127L16.09149169921875,7.469998168945312C16.09149169921875,8.129998168945313,15.55149169921875,8.669998168945312,14.89149169921875,8.669998168945312Z" fill="#FF7575" fill-opacity="1" style="mix-blend-mode:passthrough"/></g><g><path d="M5.39998193359375,8.670000244140624C4.7699819335937494,8.670000244140624,4.16998193359375,8.460000244140625,3.6299819335937498,8.100000244140624C2.96998193359375,7.620000244140625,2.54998193359375,6.930000244140625,2.42998203359375,6.1500002441406245C2.30998213359375,5.370000244140625,2.48998193359375,4.560000244140625,2.96998193359375,3.9300002441406248C3.44998193359375,3.270000244140625,4.13998193359375,2.850000244140625,4.91998193359375,2.730000344140625C5.69998193359375,2.610000444140625,6.50998193359375,2.790000244140625,7.13998193359375,3.270000244140625C7.79998193359375,3.750000244140625,8.21998193359375,4.440000244140625,8.33998193359375,5.220000244140625C8.609981933593751,6.840000244140625,7.46998193359375,8.400000244140625,5.8499819335937495,8.640000244140625C5.69998193359375,8.670000244140624,5.549981933593751,8.670000244140624,5.39998193359375,8.670000244140624Z" fill="#FF823E" fill-opacity="1" style="mix-blend-mode:passthrough"/></g></g></svg>