<svg xmlns="http://www.w3.org/2000/svg" xmlns:xlink="http://www.w3.org/1999/xlink" fill="none" version="1.1" width="16" height="16" viewBox="0 0 16 16"><defs><clipPath id="master_svg0_514_022137"><rect x="0" y="0" width="16" height="16" rx="0"/></clipPath><linearGradient x1="0.0790201798081398" y1="0.029459640383720398" x2="0.9637045673175447" y2="1.0465495385886412" id="master_svg1_514_009890"><stop offset="0%" stop-color="#ADCBFF" stop-opacity="1"/><stop offset="100%" stop-color="#3D7BE7" stop-opacity="1"/></linearGradient></defs><g clip-path="url(#master_svg0_514_022137)"><g><path d="M2,4.92933L2,3.1719999999999997C2,2.524667,2.524,2,3.1706700000000003,2L7.526,2L7.526,6.10133L3.1706700000000003,6.10133C2.524,6.10133,2,5.57667,2,4.92933ZM8.46267,2L12.8173,2C13.464,2,13.988,2.524667,13.988,3.1719999999999997L13.988,4.92933C13.988,5.57667,13.464,6.10133,12.8173,6.10133L8.46267,6.10133L8.46267,2ZM13.9997,9.254660000000001L14,9.25467L14,8.14067C14,7.49333,13.476,6.96867,12.8293,6.96867L3.18267,6.96867C2.536,6.96867,2.0120001,7.49333,2.0120001,8.14067L2.0120001,8.84459L2.0117188,8.84459L2.0117188,9.78192C2.391184,9.793610000000001,2.692742,10.10461,2.692742,10.48425C2.692742,10.8639,2.391184,11.17489,2.0117188,11.18659L2.0117188,12.1246L2.0120001,12.1246L2.0120001,12.828C2.0120001,13.4747,2.536,14,3.18267,14L12.8293,14C13.476,14,14,13.4753,14,12.828L14,11.83133L13.9997,11.83133L13.9997,11.18325C13.6031,11.21747,13.2574,10.91576,13.2375,10.51821C13.2177,10.12066,13.5317,9.78602,13.9297,9.78059L13.9297,9.78125C13.9531,9.78125,13.9764,9.782589999999999,13.9997,9.78458L13.9997,9.254660000000001ZM4.34133,10.48533C4.34133,11.39056,5.07477,12.1246,5.98,12.1253L5.98067,12.1253C6.8865,12.1257,7.62109,11.39161,7.62133,10.48578C7.62158,9.57995,6.88729,8.84546,5.98133,8.84534C5.0755,8.84534,4.34121,9.57962,4.34133,10.48533ZM8.322,10.48533C8.322,11.39056,9.05544,12.1246,9.96067,12.1253C10.86659,12.1261,11.60151,11.39215,11.602,10.48623C11.60249,9.580300000000001,10.86837,8.84558,9.96245,8.84534C9.05653,8.845089999999999,8.322,9.57941,8.322,10.48533Z" fill-rule="evenodd" fill="url(#master_svg1_514_009890)" fill-opacity="1" style="mix-blend-mode:passthrough"/></g></g></svg>