<svg xmlns="http://www.w3.org/2000/svg" xmlns:xlink="http://www.w3.org/1999/xlink" fill="none" version="1.1" width="16" height="16" viewBox="0 0 16 16"><defs><clipPath id="master_svg0_514_022167"><rect x="0" y="0" width="16" height="16" rx="0"/></clipPath><linearGradient x1="0" y1="0" x2="1.2025730304531224" y2="0.579944586307743" id="master_svg1_514_011785"><stop offset="0%" stop-color="#76DCAE" stop-opacity="1"/><stop offset="100%" stop-color="#009E58" stop-opacity="1"/></linearGradient></defs><g clip-path="url(#master_svg0_514_022167)"><g><path d="M13.9998046875,5.4C13.9522046875,5.4,13.9070046875,5.3956,13.8610046875,5.3932L14.7998046875,6.6L14.7998046875,10.2L14.7998046875,11L14.7998046875,12.2C14.7998046875,12.642,14.4418046875,13,13.9998046875,13L12.3998046875,13C11.9578046875,13,11.5998046875,12.642,11.5998046875,12.2L11.5998046875,11L4.3998046875,11L4.3998046875,12.2C4.3998046875,12.642,4.0418046875,13,3.5998046875,13L1.9998046875,13C1.5578046875,13,1.1998046875,12.642,1.1998046875,12.2L1.1998046875,11L1.1998046875,10.2L1.1998046875,6.6L2.2830046875,5.3812C2.1918046875,5.3924,2.0978046875,5.4,1.9998046875,5.4C1.3370046875,5.4,0.7998046875,5.1312,0.7998046875,4.8C0.7998046875,4.4688,1.3370046875,4.2,1.9998046875,4.2C2.4566046875,4.2,2.8486046875,4.3292,3.0514046875,4.5168L4.3998046875,3L11.9998046875,3L13.0958046875,4.4092C13.3158046875,4.282,13.6370046875,4.2,13.9998046875,4.2C14.6626046875,4.2,15.1998046875,4.4688,15.1998046875,4.8C15.1998046875,5.1312,14.6626046875,5.4,13.9998046875,5.4ZM2.3998046875,7.4C2.3998046875,7.842,3.0266046875,8.2,3.7998046875,8.2C4.5730046875,8.2,5.1998046875,7.842,5.1998046875,7.4C5.1998046875,6.958,4.5730046875,6.6,3.7998046875,6.6C3.0266046875,6.6,2.3998046875,6.958,2.3998046875,7.4ZM11.3278046875,3.8L5.0718046875,3.8L3.5998046875,5.8L12.7998046875,5.8L11.3278046875,3.8ZM12.1998046875,6.6C11.4266046875,6.6,10.7998046875,6.958,10.7998046875,7.4C10.7998046875,7.842,11.4266046875,8.2,12.1998046875,8.2C12.9730046875,8.2,13.5998046875,7.842,13.5998046875,7.4C13.5998046875,6.958,12.9730046875,6.6,12.1998046875,6.6Z" fill="url(#master_svg1_514_011785)" fill-opacity="1" style="mix-blend-mode:passthrough"/></g></g></svg>