<svg xmlns="http://www.w3.org/2000/svg" xmlns:xlink="http://www.w3.org/1999/xlink" fill="none" version="1.1" width="16" height="16" viewBox="0 0 16 16"><defs><clipPath id="master_svg0_514_022189"><rect x="0" y="0" width="16" height="16" rx="0"/></clipPath><linearGradient x1="0.5" y1="0" x2="0.5" y2="1" id="master_svg1_65_84745"><stop offset="0%" stop-color="#7373FF" stop-opacity="1"/><stop offset="100%" stop-color="#4E4EBB" stop-opacity="1"/></linearGradient></defs><g clip-path="url(#master_svg0_514_022189)"><g><path d="M12.13314625,12.6414878125L9.59157625,8.9580078125L6.37663625,8.9580078125L3.85964865,12.6429778125C3.81082615,12.7131278125,3.784815381,12.7966178125,3.78515959185,12.8820878125C3.79082126,13.1129078125,3.97960125,13.2970578125,4.21049225,13.2969878125L11.78304625,13.2969878125C12.01458625,13.2922378125,12.20104625,13.1054478125,12.20539625,12.873897812500001C12.20146625,12.7881878125,12.17583625,12.7048878125,12.13090625,12.6318078125L12.13090625,12.6414878125L12.13314625,12.6414878125Z" fill="#6589C5" fill-opacity="1" style="mix-blend-mode:passthrough"/><path d="M12.13314625,12.6414878125L9.59157625,8.9580078125L6.37663625,8.9580078125L3.85964865,12.6429778125C3.81082615,12.7131278125,3.784815381,12.7966178125,3.78515959185,12.8820878125C3.79082126,13.1129078125,3.97960125,13.2970578125,4.21049225,13.2969878125L11.78304625,13.2969878125C12.01458625,13.2922378125,12.20104625,13.1054478125,12.20539625,12.873897812500001C12.20146625,12.7881878125,12.17583625,12.7048878125,12.13090625,12.6318078125L12.13090625,12.6414878125L12.13314625,12.6414878125Z" fill="url(#master_svg1_65_84745)" fill-opacity="1" style="mix-blend-mode:passthrough"/></g><g><path d="M13.672309375,12.167075L10.559409375,7.692535C10.161579375,7.064575,9.956709374999999,6.333705,9.970209375,5.590455L9.970209375,2.8090349999999997C9.971899375,2.618505,10.011129375,2.430185,10.085669375,2.254836L10.532599375,2.254836C10.775699375,2.25774,10.975449375,2.06365,10.979529375,1.820565L10.979529375,1.7311779999999999C10.975049375,1.488268,10.775539375,1.29441181,10.532599375,1.2969071715L5.459149375,1.2969071715C5.216049375,1.29400295,5.016299375,1.488093,5.012219375,1.7311779999999999L5.012219375,1.820565C5.016299375,2.06365,5.216049375,2.25774,5.459149375,2.254836L5.869589375,2.254836C5.9481593749999995,2.4341850000000003,5.9901993749999995,2.627405,5.993239375,2.823185L5.993239375,5.591945C5.994439375,6.338275,5.778029375,7.068775,5.370509375,7.694025L3.8419993750000003,9.983075L2.318696375,12.164075C2.133395775,12.451275,2.035571485,12.786175,2.0371275554,13.127975C2.0371275554,13.966775,2.544397375,14.704975,3.999169375,14.704975L11.994819375,14.704975C13.453309375,14.704975,13.955409375,13.966775,13.955409375,13.127975C13.953209375,12.786975,13.854009375,12.453675,13.669309375,12.167075L13.672309375,12.167075ZM12.754609375,13.522775C12.539209375,13.692275,12.266909375,13.772275,11.994069375,13.746275L3.999169375,13.746275C3.718859375,13.768775,3.440179375,13.686475,3.217029375,13.515375C3.101919375,13.414175,3.0346103749999997,13.269275,3.031555375,13.116075C3.031222375,12.966575,3.072769375,12.820075,3.151479375,12.692975L6.225639375,8.192355C6.725719375,7.417095,6.990879375,6.513745,6.989159375,5.591195L6.989159375,2.25409L8.975029375,2.25409L8.975029375,5.588215C8.963389375,6.510725,9.220669375,7.416655,9.715459375,8.195335L12.835009375,12.684775C12.915609375,12.812275,12.958509375,12.959975,12.958709375,13.110875C12.950609375,13.271175,12.876809375,13.420975,12.754609375,13.524975L12.754609375,13.522775Z" fill="#6D6DF4" fill-opacity="1" style="mix-blend-mode:passthrough"/></g></g></svg>