<svg xmlns="http://www.w3.org/2000/svg" xmlns:xlink="http://www.w3.org/1999/xlink" fill="none" version="1.1" width="30" height="30" viewBox="0 0 30 30"><defs><clipPath id="master_svg0_65_94060/65_94042"><rect x="0" y="0" width="30" height="30" rx="0"/></clipPath></defs><g clip-path="url(#master_svg0_65_94060/65_94042)"><g transform="matrix(-0.9406590461730957,0.339353084564209,0.339353084564209,0.9406590461730957,50.42325562611222,-8.817255895584822)"><g transform="matrix(-0.9821069836616516,0.18832385540008545,0.1839911937713623,0.9829278588294983,80.96477822309276,-7.69288949842155)"><path d="M40.94537663370361,3.8499589453125C40.907190233703616,3.8885789453125,40.89718893370361,3.9483389453125,40.92264653370361,3.9961489453125C41.046298733703615,4.229698945312499,41.453620733703616,4.8760789453125,42.18280173370361,4.8475689453125C43.072001733703615,4.8126389453125,44.64492173370361,5.1243289453125,45.159531733703616,7.0230189453125C45.159531733703616,7.0257789453125,45.16135173370361,7.0285389453125,45.16135173370361,7.0322189453125C45.17590173370361,7.1020989453125,45.36501173370361,8.0068489453125,45.562311733703616,8.0408689453125C45.759611733703615,8.0748889453125,46.86338173370361,8.9842289453125,46.803371733703614,9.7372689453125L46.80610173370361,10.3735389453125Q50.87660173370361,5.6787689453125,56.397281733703615,1.8611589453125C56.489081733703614,1.7977189453125,56.485481733703615,1.6643989453125,56.379081733703615,1.6322159453125C54.62708173370361,1.0989279453125,46.01146173370361,-1.1813410546875,40.94446793370361,3.8508789453125L40.94537663370361,3.8499589453125Z" fill="#387938" fill-opacity="1" style="mix-blend-mode:passthrough"/></g><g><path d="M35.46183147064209,4.6187376562499995C35.20099147064209,4.91400765625,35.07285147064209,5.30493765625,35.08103147064209,5.70138765625L35.07921147064209,5.70322765625C35.08103147064209,5.80440765625,35.08466147064209,5.92674765625,35.09012147064209,6.07024765625C35.11635147064209,6.73910765625,34.81563147064209,6.96144765625,33.68698147064209,7.79591765625C33.60341047064209,7.85770765625,33.51529447064209,7.92285765625,33.42243547064209,7.99179765625C32.47519647064209,8.69498765625,32.85402947064209,9.96962765625,33.08193047064209,10.73642765625C33.17807947064209,11.05993765625,33.24736447064209,11.29304765625,33.17887147064209,11.35474765625C32.94803147064209,11.56264765625,32.34548447064209,12.49714765625,32.80716447064209,13.04264765625C33.26884447064209,13.58814765625,33.83322147064209,15.34044765625,33.49968447064209,16.02934765625C33.23567947064209,16.57474765625,33.41352647064209,17.03014765625,33.53114947064209,17.33134765625C33.56212847064209,17.41064765625,33.58892947064209,17.47934765625,33.60238147064209,17.53604765625C33.66691147064209,17.80834765625,35.05286147064209,18.22504765625,35.07830147064209,18.87354765625C35.10375147064209,19.52204765625,35.83535147064209,21.54844765625,37.40033147064209,21.57414765625C38.96532147064209,21.59994765625,38.54272147064209,22.08004765625,39.80598147064209,22.83344765625C40.41277147064209,23.19534765625,41.05688147064209,23.10764765625,41.64062147064209,23.02824765625C42.272151470642086,22.94234765625,42.83297147064209,22.86604765625,43.19947147064209,23.37894765625C43.90477147064209,24.36584765625,45.46337147064209,23.89214765625,45.59877147064209,23.84614765625C45.73417147064209,23.80014765625,47.80627147064209,23.37794765625,48.06257147064209,22.75524765625C48.318871470642094,22.13254765625,48.84967147064209,21.38834765625,49.747571470642086,21.12804765625C50.64547147064209,20.86774765625,51.38977147064209,19.69954765625,51.32167147064209,19.38774765625C51.25347147064209,19.07584765625,51.595171470642086,18.17534765625,52.79297147064209,17.44864765625C53.72927147064209,16.88074765625,53.66217147064209,16.206547656250002,53.62077147064209,15.79024765625L53.62077147064209,15.79024765625C53.609271470642085,15.67394765625,53.59967147064209,15.57774765625,53.61457147064209,15.50964765625C53.633971470642095,15.42094765625,53.595171470642086,15.26784765625,53.54477147064209,15.06864765625C53.41787147064209,14.56734765625,53.21707147064209,13.77444765625,53.682771470642095,12.98194765625C54.213571470642094,12.07844765625,53.80997147064209,11.33594765625,53.606271470642085,10.96121765625C53.56027147064209,10.87661765625,53.52447147064209,10.81076765625,53.51187147064209,10.76603765625C53.491971470642085,10.69507765625,53.384371470642094,10.59758765625,53.244571470642086,10.47092765625C52.905971470642086,10.16409765625,52.378571470642086,9.68616765625,52.45127147064209,8.999937656250001C52.55397147064209,8.03042765625,52.48587147064209,7.37273765625,52.00687147064209,7.06091765625C51.527971470642086,6.74908765625,51.15257147064209,6.05736765625,50.87817147064209,5.08693765625C50.60367147064209,4.1165076562500005,49.92027147064209,3.66669765625,49.68027147064209,3.77063765625C49.50287147064209,3.84749765625,48.65227147064209,3.62162765625,48.08287147064209,3.47041765625C47.88217147064209,3.41711765625,47.71637147064209,3.37309765625,47.627271470642086,3.35487765625Q47.28557147064209,3.28496765625,46.77207147064209,2.22898765625C46.32767147064209,1.7791856562500001,44.83997147064209,1.81413965625,44.37737147064209,1.8831276562500001C44.08877147064209,1.92615765625,43.60757147064209,1.69328265625,43.128571470642086,1.46149665625C42.83967147064209,1.32167065625,42.55155147064209,1.18224265625,42.307051470642094,1.10402195625C41.99905147064209,1.00548715625,41.69881147064209,1.12890165625,41.30780147064209,1.28962365625C40.87389147064209,1.46798665625,40.32819147064209,1.69229565625,39.53606147064209,1.71019765625C38.03015147064209,1.74423165625,37.46577147064209,3.37234765625,37.27765147064209,3.63174765625Q37.08952147064209,3.89113765625,36.03711147064209,4.246197656250001C35.79173147064209,4.31518765625,35.60360147064209,4.4586876562499995,35.46183147064209,4.6187376562499995ZM44.58177147064209,5.70356765625C44.37187147064209,5.65941765625,44.19377147064209,5.63550765625,43.98287147064209,5.61986765625L43.98287147064209,5.62078765625C43.85567147064209,5.61158765625,43.76117147064209,5.52328765625,43.75567147064209,5.39083765625C43.75027147064209,5.27310765625,43.86387147064209,5.15169765625,43.98287147064209,5.16088765625C44.23007147064209,5.17928765625,44.47817147064209,5.21239765625,44.72177147064209,5.26482765625C44.90437147064209,5.30437765625,45.09527147064209,5.36416765625,45.24977147064209,5.47361765625C45.44057147064209,5.60882765625,45.56147147064209,5.78450765625,45.59777147064209,6.03008765625C45.63417147064209,6.27567765625,45.631371470642094,6.52953765625,45.642271470642086,6.77787765625C45.64777147064209,6.90664765625,45.53327147064209,7.00230765625,45.41517147064209,7.00782765625C45.28877147064209,7.01334765625,45.19337147064209,6.89744765625,45.18797147064209,6.77787765625C45.17797147064209,6.56632765625,45.172471470642094,6.35385765625,45.15707147064209,6.14230765625C45.15567147064209,6.12508765625,45.15587147064209,6.12089765625,45.15607147064209,6.12020765625C45.15557147064209,6.11886765625,45.15437147064209,6.11446765625,45.15157147064209,6.10183765625C45.14617147064209,6.07607765625,45.14067147064209,6.05216765625,45.13337147064209,6.02733765625C45.13057147064209,6.01682765625,45.12897147064209,6.01035765625,45.12827147064209,6.00656765625C45.12677147064209,6.00419765625,45.12437147064209,5.99981765625,45.120671470642094,5.99237765625C45.11157147064209,5.97490765625,45.10067147064209,5.95834765625,45.09067147064209,5.94087765625C45.08937147064209,5.93864765625,45.08827147064209,5.93673765625,45.08737147064209,5.93510765625C45.08657147064209,5.93453765625,45.085571470642094,5.93371765625,45.08437147064209,5.93259765625C45.06977147064209,5.91971765625,45.05797147064209,5.90315765625,45.04347147064209,5.89028765625C45.03827147064209,5.88506765625,45.03207147064209,5.87954765625,45.02827147064209,5.87611765625L45.02457147064209,5.87273765625C45.01257147064209,5.86423765625,45.00007147064209,5.85610765625,44.987971470642094,5.84797765625C44.95437147064209,5.82589765625,44.91807147064209,5.80750765625,44.88167147064209,5.79002765625C44.87807147064209,5.78834765625,44.87527147064209,5.78699765625,44.87307147064209,5.78593765625C44.87017147064209,5.78508765625,44.86587147064209,5.78374765625,44.85987147064209,5.78174765625C44.843471470642086,5.77622765625,44.82717147064209,5.76979765625,44.81077147064209,5.76427765625C44.73627147064209,5.73851765625,44.65907147064209,5.71920765625,44.58177147064209,5.70356765625ZM46.951771470642086,5.61542765625C47.24257147064209,5.71567765625,47.53247147064209,5.84353765625,47.74327147064209,6.06979765625C47.82507147064209,6.15809765625,47.90237147064209,6.29054765625,47.93687147064209,6.40644765625C47.94777147064209,6.44231765625,47.95597147064209,6.47910765625,47.96237147064209,6.51589765625C47.96297147064209,6.51915765625,47.96347147064209,6.52204765625,47.96397147064209,6.52460765625L47.964171470642086,6.53245765625C47.96507147064209,6.55084765625,47.96687147064209,6.56924765625,47.96687147064209,6.58764765625C47.96687147064209,6.60971765625,47.96597147064209,6.63178765625,47.96507147064209,6.65386765625C47.96487147064209,6.66226765625,47.96487147064209,6.66705765625,47.96507147064209,6.66949765625C47.96797147064209,6.64952765625,47.96557147064209,6.67953765625,47.96507147064209,6.66955765625C47.957771470642086,6.71000765625,47.94777147064209,6.74953765625,47.935071470642086,6.78815765625C47.89777147064209,6.90220765625,47.97867147064209,7.04477765625,48.09407147064209,7.07144765625C48.21947147064209,7.09996765625,48.33307147064209,7.03281765625,48.37397147064209,6.91048765625C48.50397147064209,6.51313765625,48.35767147064209,6.08359765625,48.09587147064209,5.77730765625C47.83417147064209,5.47101765625,47.44617147064209,5.29901765625,47.07447147064209,5.17024765625C46.96177147064209,5.13161765625,46.82087147064209,5.21439765625,46.79457147064209,5.33120765625C46.76547147064209,5.45905765625,46.832771470642086,5.57219765625,46.95357147064209,5.61450765625L46.951771470642086,5.61542765625ZM45.03167147064209,5.87790765625C45.03317147064209,5.87905765625,45.03497147064209,5.88041765625,45.03707147064209,5.88200765625C45.03527147064209,5.88062765625,45.03347147064209,5.87925765625,45.03167147064209,5.87790765625ZM49.03627147064209,9.71263765625L49.03447147064209,9.71263765625C48.91167147064209,9.71251765625,48.80907147064209,9.60716765625,48.80907147064209,9.48268765625C48.80907147064209,9.35759765625,48.913671470642086,9.25365765625,49.03627147064209,9.25273765625C49.47347147064209,9.24905765625,49.91687147064209,9.44773765625,50.194071470642086,9.79449765625C50.48847147064209,10.16332765625,50.59577147064209,10.64713765625,50.48847147064209,11.10794765625C50.459471470642086,11.22934765625,50.32407147064209,11.30114765625,50.20857147064209,11.26894765625C50.086871470642095,11.23484765625,50.021371470642094,11.10614765625,50.04957147064209,10.98561765625C50.11687147064209,10.69404765625,50.050471470642094,10.33348765625,49.85597147064209,10.10078765625C49.739671470642094,9.96097765625,49.636971470642095,9.88095765625,49.47247147064209,9.80276765625C49.47027147064209,9.80175765625,49.465471470642086,9.79969765625,49.46027147064209,9.79745765625C49.446471470642095,9.79154765625,49.429771470642095,9.78440765625,49.44887147064209,9.79173765625C49.42707147064209,9.78253765625,49.40347147064209,9.77425765625,49.38077147064209,9.76689765625C49.34167147064209,9.75494765625,49.30257147064209,9.74390765625,49.26347147064209,9.73470765625C49.239871470642086,9.72918765625,49.21537147064209,9.72458765625,49.19167147064209,9.72090765625C49.20787147064209,9.72379765625,49.20367147064209,9.72315765625,49.19437147064209,9.72176765625C49.18597147064209,9.72049765625,49.17327147064209,9.71858765625,49.16807147064209,9.71814765625C49.12417147064209,9.71361765625,49.08027147064209,9.71265765625,49.03627147064209,9.71263765625ZM35.90193147064209,11.93174765625C35.66837147064209,11.48104765625,35.58204147064209,10.92550765625,35.77924147064209,10.44537765625L35.77834147064209,10.44537765625C35.82559147064209,10.32948765625,35.927371470642086,10.24761765625,36.05824147064209,10.28441765625C36.16638147064209,10.31476765625,36.26453147064209,10.45273765625,36.21727147064209,10.56770765625C35.875571470642086,11.40104765625,36.52534147064209,12.16174765625,37.13876147064209,12.63724765625C37.23691147064209,12.71264765625,37.28871147064209,12.83314765625,37.22055147064209,12.95184765625C37.16420147064209,13.05024765625,37.00699147064209,13.11004765625,36.90975147064209,13.03454765625C36.51534147064209,12.72824765625,36.13548147064209,12.38244765625,35.90193147064209,11.93174765625ZM47.02457147064209,10.73749765625C47.02177147064209,10.73718765625,47.01867147064209,10.73682765625,47.01507147064209,10.73641765625C46.88787147064209,10.72170765625,46.79427147064209,10.64259765625,46.78787147064209,10.50647765625C46.78247147064209,10.39241765625,46.896971470642086,10.26272765625,47.01507147064209,10.27652765625C47.41037147064209,10.32159765625,47.78657147064209,10.50647765625,48.03747147064209,10.82563765625C48.310071470642086,11.17144765625,48.41277147064209,11.59914765625,48.35007147064209,12.03424765625C48.33097147064209,12.16204765625,48.177371470642086,12.22004765625,48.07017147064209,12.19524765625C47.941071470642086,12.16504765625,47.89447147064209,12.03234765625,47.91077147064209,11.91424765625C47.90817147064209,11.93254765625,47.909371470642085,11.92174765625,47.91097147064209,11.90704765625C47.91227147064209,11.89494765625,47.91387147064209,11.88024765625,47.91387147064209,11.87694765625C47.914771470642094,11.85764765625,47.91657147064209,11.83744765625,47.91657147064209,11.81714765625C47.918371470642086,11.77674765625,47.91747147064209,11.73714765625,47.914771470642094,11.69664765625C47.91297147064209,11.67644765625,47.91207147064209,11.65714765625,47.90927147064209,11.63684765625C47.91157147064209,11.65674765625,47.91037147064209,11.64784765625,47.90867147064209,11.63554765625C47.90757147064209,11.62794765625,47.90637147064209,11.61904765625,47.90567147064209,11.61484765625C47.89837147064209,11.57524765625,47.89017147064209,11.53574765625,47.87927147064209,11.49704765625C47.86837147064209,11.45844765625,47.85567147064209,11.42074765625,47.84207147064209,11.38304765625C47.82937147064209,11.34804765625,47.82937147064209,11.34904765625,47.80747147064209,11.30574765625C47.78937147064209,11.27084765625,47.76937147064209,11.23584765625,47.74847147064209,11.20184765625C47.73847147064209,11.18524765625,47.72667147064209,11.16874765625,47.71577147064209,11.15214765625C47.71177147064209,11.14614765625,47.70857147064209,11.14144765625,47.70617147064209,11.13774765625C47.70517147064209,11.13654765625,47.70377147064209,11.13494765625,47.70207147064209,11.13284765625C47.65117147064209,11.07034765625,47.59487147064209,11.01419765625,47.533971470642086,10.96176765625C47.53037147064209,10.95858765625,47.52397147064209,10.95339765625,47.52057147064209,10.95071765625C47.50447147064209,10.93863765625,47.48817147064209,10.92720765625,47.471271470642094,10.91577765625C47.43947147064209,10.89462765625,47.40677147064209,10.87438765625,47.37407147064209,10.85599765625C47.34137147064209,10.83759765625,47.30677147064209,10.82011765625,47.27227147064209,10.80540765625C47.28407147064209,10.81087765625,47.28357147064209,10.81069765625,47.27897147064209,10.80879765625C47.27507147064209,10.80718765625,47.26817147064209,10.80433765625,47.26317147064209,10.80264765625C47.24137147064209,10.79436765625,47.22047147064209,10.78700765625,47.19867147064209,10.77964765625C47.16227147064209,10.76860765625,47.12597147064209,10.75849765625,47.08867147064209,10.75021765625C47.07047147064209,10.74561765625,47.052371470642086,10.74285765625,47.03327147064209,10.73917765625C47.029071470642094,10.73841765625,47.02627147064209,10.73787765625,47.02457147064209,10.73749765625ZM40.61623147064209,13.80334765625C39.89285147064209,13.28834765625,39.54207147064209,12.32624765625,39.79379147064209,11.46064765625L39.79379147064209,11.45974765625C39.87649147064209,11.17644765625,40.31452147064209,11.29784765625,40.23182147064209,11.58214765625C40.04280147064209,12.23334765625,40.28271147064209,13.00504765625,40.845241470642094,13.40604765625C40.94611147064209,13.47774765625,40.99337147064209,13.60564765625,40.92703147064209,13.72064765625C40.86886147064209,13.82174765625,40.71619147064209,13.87514765625,40.61623147064209,13.80334765625ZM49.984571470642095,12.77044765625C50.022671470642095,12.78054765625,50.05997147064209,12.79244765625,50.09717147064209,12.80624765625C50.11007147064209,12.81104765625,50.12247147064209,12.81584765625,50.13467147064209,12.82064765625L50.13957147064209,12.82284765625C50.14557147064209,12.82544765625,50.155771470642094,12.82994765625,50.161771470642094,12.83294765625C50.22987147064209,12.86514765625,50.29537147064209,12.90284765625,50.35807147064209,12.94514765625C50.372571470642086,12.95524765625,50.38807147064209,12.96544765625,50.40257147064209,12.97644765625C50.40677147064209,12.97964765625,50.413471470642094,12.98484765625,50.41857147064209,12.98894765625C50.42287147064209,12.99234765625,50.426071470642086,12.99494765625,50.42617147064209,12.99484765625L50.41617147064209,12.98654765625C50.447071470642086,13.01134765625,50.47707147064209,13.03804765625,50.505271470642086,13.06474765625C50.55977147064209,13.11714765625,50.61157147064209,13.17324765625,50.65797147064209,13.23304765625C50.64247147064209,13.21384765625,50.65197147064209,13.22654765625,50.66087147064209,13.23834765625L50.66097147064209,13.23844765625C50.66357147064209,13.24194765625,50.666071470642095,13.24524765625,50.66797147064209,13.24774765625C50.67797147064209,13.26244765625,50.68887147064209,13.27724765625,50.69887147064209,13.29284765625C50.71877147064209,13.32324765625,50.73697147064209,13.35354765625,50.75517147064209,13.38574765625C50.77427147064209,13.42074765625,50.79247147064209,13.45564765625,50.808771470642085,13.49244765625C50.81097147064209,13.49724765625,50.81387147064209,13.50424765625,50.81617147064209,13.50994765625C50.82217147064209,13.52564765625,50.82817147064209,13.54214765625,50.83427147064209,13.55774765625C50.84697147064209,13.59544765625,50.85877147064209,13.63314765625,50.86877147064209,13.67184765625C50.873271470642095,13.69114765625,50.87787147064209,13.71044765625,50.88237147064209,13.73064765625C50.88287147064209,13.73294765625,50.883971470642095,13.73834765625,50.88517147064209,13.74424765625C50.88727147064209,13.75484765625,50.889671470642085,13.76714765625,50.889971470642095,13.76724765625C50.90287147064209,13.86414765625,50.89597147064209,13.91254765625,50.86327147064209,13.99644765625C50.81877147064209,14.10874765625,50.91147147064209,14.25404765625,51.022371470642085,14.27974765625C51.15317147064209,14.31014765625,51.25407147064209,14.23934765625,51.30227147064209,14.11884765625C51.38317147064209,13.91274765625,51.35037147064209,13.67184765625,51.28407147064209,13.46664765625C51.22677147064209,13.28914765625,51.141371470642085,13.12084765625,51.02957147064209,12.97274765625C50.79697147064209,12.66374765625,50.47887147064209,12.43194765625,50.106271470642085,12.32894765625C49.99177147064209,12.29764765625,49.854571470642085,12.36844765625,49.82637147064209,12.48984765625C49.79827147064209,12.61124765625,49.86277147064209,12.73914765625,49.98547147064209,12.77314765625L49.984571470642095,12.77044765625ZM50.820171470642094,13.51994765625L50.81677147064209,13.51124765625C50.81857147064209,13.51574765625,50.81997147064209,13.51924765625,50.820171470642094,13.51984765625L50.820171470642094,13.51994765625ZM36.85620147064209,16.168447656250002C36.66536147064209,15.64784765625,36.63355147064209,15.07754765625,36.74351147064209,14.53584765625L36.74260147064209,14.53584765625C36.76805147064209,14.41354765625,36.909821470642086,14.34364765625,37.02250147064209,14.37484765625C37.14700147064209,14.40984765625,37.20607147064209,14.53674765625,37.18154147064209,14.65814765625C37.09520147064209,15.08404765625,37.12519147064209,15.52554765625,37.25696147064209,15.93854765625C37.32421147064209,16.14824765625,37.41963147064209,16.346947656250002,37.53959147064209,16.53084765625C37.62229147064209,16.65684765625,37.75224147064209,16.83534765625,37.91309147064209,16.85734765625C38.03487147064209,16.87394765625,38.14029147064209,16.949347656249998,38.14029147064209,17.08734765625C38.14029147064209,17.19954765625,38.03487147064209,17.33384765625,37.91309147064209,17.31724765625C37.34693147064209,17.24184765625,37.04704147064209,16.68904765625,36.85620147064209,16.168447656250002ZM38.72969147064209,15.73344765625C38.90600147064209,16.09494765625,39.09502147064209,16.47664765625,39.40491147064209,16.74154765625C39.71480147064209,17.00644765625,40.14828147064209,17.16834765625,40.55813147064209,17.04414765625C40.67536147064209,17.00824765625,40.74988147064209,16.88314765625,40.717171470642086,16.76084765625C40.68445147064209,16.638547656249997,40.55541147064209,16.56404765625,40.43727147064209,16.599947656250002C40.41818147064209,16.60544765625,40.39819147064209,16.61184765625,40.37820147064209,16.61644765625C40.37483147064209,16.61734765625,40.36841147064209,16.618647656249998,40.36208147064209,16.62004765625C40.35186147064209,16.62224765625,40.34183147064209,16.62444765625,40.34507147064209,16.62424765625C40.309041470642086,16.62854765625,40.27115147064209,16.62924765625,40.23552147064209,16.62844765625C40.21553147064209,16.62844765625,40.19554147064209,16.62654765625,40.17554147064209,16.62474765625L40.15191147064209,16.620147656249998C40.11193147064209,16.610947656249998,40.07285147064209,16.601747656249998,40.03377147064209,16.589747656249997C39.90836147064209,16.54934765625,39.77023147064209,16.46194765625,39.67118147064209,16.367147656249998C39.42763147064209,16.13444765625,39.27404147064209,15.81534765625,39.12228147064209,15.50254765625C39.06776147064209,15.39134765625,38.91236147064209,15.36094765625,38.81148147064209,15.41984765625C38.69970147064209,15.48604765625,38.67517147064209,15.62214765625,38.72969147064209,15.73434765625L38.72969147064209,15.73344765625ZM35.68907147064209,17.60404765625C35.62909147064209,17.88454765625,35.71633147064209,18.15224765625,35.86628147064209,18.38854765625C35.99896147064209,18.59924765625,36.15981147064209,18.80064765625,36.33975147064209,18.97174765625C36.72415147064209,19.33414765625,37.25397147064209,19.55854765625,37.77923147064209,19.41504765625C38.06095147064209,19.33784765625,37.94190147064209,18.89354765625,37.65837147064209,18.97174765625C37.29395147064209,19.07194765625,36.92681147064209,18.89724765625,36.66054147064209,18.64704765625C36.52604147064209,18.52014765625,36.40609147064209,18.37574765625,36.30158147064209,18.22304765625C36.20434147064209,18.08134765625,36.09074147064209,17.89924765625,36.12800147064209,17.72724765625C36.15436147064209,17.60584765625,36.09256147064209,17.47894765625,35.96897147064209,17.44394765625C35.85537147064209,17.41264765625,35.71542147064209,17.48254765625,35.68907147064209,17.60494765625L35.68907147064209,17.60404765625ZM40.75136147064209,18.80724765625C41.17303147064209,19.62404765625,42.12541147064209,20.06644765625,43.012371470642094,19.89624765625C43.133271470642086,19.87324765625,43.20137147064209,19.72614765625,43.171371470642086,19.61294765625C43.13687147064209,19.48514765625,43.01327147064209,19.42904765625,42.89147147064209,19.45204765625C42.212651470642086,19.58174765625,41.47019147064209,19.20734765625,41.143951470642094,18.57454765625C41.008541470642086,18.31244765625,40.61595147064209,18.54424765625,40.75136147064209,18.80634765625L40.75136147064209,18.80724765625Z" fill-rule="evenodd" fill="#CB475A" fill-opacity="1" style="mix-blend-mode:passthrough"/></g><g><path d="M37.764083509375,-0.5153879296874999Q37.443270109375,-1.7360199296875,38.533853109375,-1.9696593296875C39.624432109375,-2.2032989296875,39.842552109375,-1.0213029296875,39.880722109375,-0.5153879296874999C39.918892109375,-0.009477929687500053,40.355122109375,1.6922320703125,40.753192109375,1.9783020703125C41.151252109375,2.2643720703124997,41.343012109375,3.2771120703124996,41.227592109375,3.5751420703125003C41.112172109375,3.8731720703125,40.304232109375,5.1719920703125,38.995532109375,4.3800120703125C37.686834759375,3.5880220703125003,38.521130109375,2.3802720703125004,38.456604109375,1.8863120703125Q38.392078109375,1.3923620703125001,37.764083509375,-0.5163079296875L37.764083509375,-0.5153879296874999Z" fill="#5A523E" fill-opacity="1" style="mix-blend-mode:passthrough"/></g></g></g></svg>