<svg xmlns="http://www.w3.org/2000/svg" xmlns:xlink="http://www.w3.org/1999/xlink" fill="none" version="1.1" width="16" height="16" viewBox="0 0 16 16"><defs><clipPath id="master_svg0_688_91726"><rect x="0" y="0" width="16" height="16" rx="0"/></clipPath><linearGradient x1="0" y1="0.16386397182941437" x2="0.8802430080836454" y2="0.9777692420719784" id="master_svg1_688_91721"><stop offset="0%" stop-color="#EBA962" stop-opacity="1"/><stop offset="100%" stop-color="#EA7D24" stop-opacity="1"/></linearGradient></defs><g clip-path="url(#master_svg0_688_91726)"><g><path d="M5.23468609375,14.3224C4.67351609375,14.6711,3.93968609375,14.4908,3.59885609375,13.9231C3.43727609375,13.6536,3.38705609375,13.3317,3.45885609375,13.0258L4.18518609375,9.92825C4.2028060937500005,9.85479,4.17867609375,9.77759,4.12235609375,9.72725L1.74485209375,7.65558C1.25101879375,7.22558,1.19401909375,6.47358,1.61618509375,5.97225C1.81908209375,5.73067,2.11010209375,5.58018,2.4245160937500003,5.55425L5.54468609375,5.3000799999999995C5.61268609375,5.294420000000001,5.67351609375,5.24958,5.70135609375,5.18142L6.90351609375,2.241251C7.15401609375,1.628751,7.85068609375,1.336251,8.45851609375,1.5934176C8.748406093749999,1.716614,8.977766093749999,1.949513,9.096516093750001,2.241251L10.29868609375,5.18125C10.32651609375,5.24958,10.38735609375,5.29458,10.45534609375,5.3000799999999995L13.57589609375,5.55442C14.23019609375,5.60775,14.71469609375,6.18658,14.66289609375,6.84375C14.63849609375,7.15736,14.49219609375,7.44893,14.25539609375,7.65592L11.87789609375,9.72758C11.82249609375,9.77575,11.79749609375,9.85375,11.81499609375,9.92842L12.54139609375,13.0259C12.69169609375,13.6668,12.30139609375,14.3124,11.66419609375,14.4669C11.35729609375,14.5414,11.03344609375,14.4894,10.76535609375,14.3226L8.09385609375,12.6626C8.03647609375,12.6266,7.96355609375,12.6266,7.90618609375,12.6626L5.23451609375,14.3226L5.23468609375,14.3224Z" fill="url(#master_svg1_688_91721)" fill-opacity="1" style="mix-blend-mode:passthrough"/></g></g></svg>