<svg xmlns="http://www.w3.org/2000/svg" xmlns:xlink="http://www.w3.org/1999/xlink" fill="none" version="1.1" width="24" height="24" viewBox="0 0 24 24"><defs><clipPath id="master_svg0_280_37545"><rect x="0" y="0" width="24" height="24" rx="0"/></clipPath></defs><g clip-path="url(#master_svg0_280_37545)"><g><path d="M16.520400000000002,9.87537L16.0945,17.5003C16.0789,17.7804,15.83402,18,15.53716,18L8.46284,18C8.16598,18,7.92112,17.7804,7.90546,17.5003L7.47956,9.87537C7.4633400000000005,9.58445,7.69971,9.33617,8.00752,9.32079C8.31678,9.30669,8.57813,9.5289,8.59435,9.81974L8.99231,16.9451L15.00771,16.9451L15.40567,9.81974C15.42202,9.52877,15.68651,9.30759,15.99249,9.32079C16.3003,9.33618,16.5367,9.58445,16.520400000000002,9.87537ZM18,8.10989C18,8.40119,17.7501,8.63737,17.4419,8.63737L6.558143,8.63737C6.249904,8.63737,6,8.40119,6,8.10989C6,7.81859,6.249904,7.58241,6.558143,7.58241L9.62791,7.58241L9.62791,6.39561C9.62791,6.14069,9.80779,6,10.07751,6L13.922360000000001,6C14.1921,6,14.37209,6.14069,14.37209,6.39561L14.37209,7.5824300000000004L17.4419,7.5824300000000004C17.7501,7.5824300000000004,18,7.8186,18,8.10989ZM10.60465,7.5824300000000004L13.39535,7.5824300000000004L13.39535,6.923086L10.60465,6.923086L10.60465,7.5824300000000004ZM10.83867,16.1539C10.84257,16.1539,10.846440000000001,16.1539,10.85039,16.1539C11.120059999999999,16.1539,11.33345,15.90869,11.32712,15.65385L11.1852,9.9526C11.17886,9.69773,10.95773,9.48953,10.68545,9.49514C10.415790000000001,9.50113,10.2024,9.709109999999999,10.20873,9.96397L10.35064,15.67728C10.35691,15.92839,10.57425,16.1539,10.83867,16.1539ZM13.139980000000001,16.1539C13.404340000000001,16.1539,13.621749999999999,15.94191,13.62802,15.6908L13.76994,9.99715C13.77628,9.74229,13.56288,9.527750000000001,13.29321,9.52176C13.01933,9.51802,12.79979,9.71595,12.79346,9.97074L12.65154,15.66987C12.645199999999999,15.92473,12.8586,16.1539,13.12827,16.1539C13.13223,16.1539,13.13611,16.1539,13.139980000000001,16.1539Z" fill="#FFFFFF" fill-opacity="1" style="mix-blend-mode:passthrough"/></g></g></svg>