<svg xmlns="http://www.w3.org/2000/svg" xmlns:xlink="http://www.w3.org/1999/xlink" fill="none" version="1.1" width="14" height="14" viewBox="0 0 14 14"><defs><clipPath id="master_svg0_41_4604"><rect x="0" y="0" width="14" height="14" rx="0"/></clipPath></defs><g clip-path="url(#master_svg0_41_4604)"><g><path d="M11.34851044921875,4.837532265625001L10.93880044921875,12.598922265625C10.92374044921875,12.884022265625,10.68819044921875,13.107522265625,10.40262044921875,13.107522265625L3.59738044921875,13.107522265625C3.31180044921875,13.107522265625,3.0762604492187497,12.884022265625,3.06119044921875,12.598922265625L2.65149044921875,4.837532265625001C2.63589044921875,4.541412265625,2.86327044921875,4.288682265625,3.15938044921875,4.273032265625C3.45687044921875,4.258672265625,3.70828044921875,4.484862265625,3.72388044921875,4.780912265625L4.10670044921875,12.033722265625L9.89331044921875,12.033722265625L10.27613044921875,4.780912265625C10.29185044921875,4.484732265625,10.54629044921875,4.259602265625,10.84063044921875,4.273032265625C11.13673044921875,4.288702265625,11.36411044921875,4.541412265625,11.34851044921875,4.837532265625001ZM12.77181044921875,3.040462265625C12.77181044921875,3.336982265625,12.53141044921875,3.577382265625,12.23491044921875,3.577382265625L1.76512444921875,3.577382265625C1.46860944921875,3.577382265625,1.22821044921875,3.336982265625,1.22821044921875,3.040462265625C1.22821044921875,2.743952265625,1.46860944921875,2.503552265625,1.76512444921875,2.503552265625L4.71813044921875,2.503552265625L4.71813044921875,1.295511265625C4.71813044921875,1.036029265625,4.89116044921875,0.892822265625,5.15063044921875,0.892822265625L8.84923044921875,0.892822265625C9.108720449218751,0.892822265625,9.28186044921875,1.036029265625,9.28186044921875,1.295511265625L9.28186044921875,2.503562265625L12.23491044921875,2.503562265625C12.53141044921875,2.503562265625,12.77181044921875,2.743962265625,12.77181044921875,3.040462265625ZM5.65772044921875,2.503562265625L8.34227044921875,2.503562265625L8.34227044921875,1.832425265625L5.65772044921875,1.832425265625L5.65772044921875,2.503562265625ZM5.88284044921875,11.228322265625C5.88659044921875,11.228322265625,5.89031044921875,11.228322265625,5.89412044921875,11.228322265625C6.15353044921875,11.228322265625,6.35880044921875,10.978822265625,6.35271044921875,10.719412265625L6.21619044921875,4.916142265625C6.21009044921875,4.656722265625,5.99737044921875,4.444792265625,5.73545044921875,4.4505022656249995C5.47604044921875,4.4566022656249995,5.27077044921875,4.668302265625,5.27686044921875,4.927712265625L5.41337044921875,10.743252265625C5.41940044921875,10.998822265625,5.62848044921875,11.228322265625,5.88284044921875,11.228322265625ZM8.09662044921875,11.228322265625C8.35092044921875,11.228322265625,8.560070449218749,11.012622265625,8.56610044921875,10.757012265625L8.702620449218749,4.961492265625C8.70871044921875,4.7020722656250005,8.503430449218751,4.483702265625,8.24402044921875,4.477602265625C7.98055044921875,4.473792265625001,7.76936044921875,4.675252265625,7.76328044921875,4.934612265625L7.62676044921875,10.735712265625C7.62066044921875,10.995122265625,7.82594044921875,11.228322265625,8.085350449218751,11.228322265625C8.089160449218749,11.228322265625,8.09289044921875,11.228322265625,8.09662044921875,11.228322265625Z" fill="#CEC7DC" fill-opacity="1" style="mix-blend-mode:passthrough"/></g></g></svg>