<svg xmlns="http://www.w3.org/2000/svg" xmlns:xlink="http://www.w3.org/1999/xlink" fill="none" version="1.1" width="24" height="24" viewBox="0 0 24 24"><defs><clipPath id="master_svg0_140_030799"><rect x="0" y="0" width="24" height="24" rx="0"/></clipPath></defs><g clip-path="url(#master_svg0_140_030799)"><g><path d="M13.3307196875,16.3247399609375L7.3426896875,16.3247399609375C7.2984796875,16.329829960937502,7.2538296875,16.329829960937502,7.2096196875,16.3247399609375C7.1664496875,16.3149599609375,7.1241696875,16.3016099609375,7.0832096875,16.2848199609375C7.0438396875,16.268189960937498,7.0059896875,16.2481499609375,6.9700996875,16.2249399609375C6.9364796875,16.2001499609375,6.9042696875,16.173489960937502,6.8736296875,16.1450999609375C6.8439696875,16.1134999609375,6.8161996875,16.0801699609375,6.7904596875,16.0452999609375C6.7672496875,16.0094099609375,6.7472196874999995,15.971559960937501,6.7305796875,15.9321899609375C6.7090896875,15.8882799609375,6.6912896875,15.8426599609375,6.6773596875,15.7957999609375C6.6724396875,15.750469960937501,6.6724396875,15.7047399609375,6.6773596875,15.6594099609375L6.6773596875,9.2555459609375C6.6773596875,8.8880909609375,6.3794696875,8.5902099609375,6.0120196875000005,8.5902099609375C5.6445646875,8.5902099609375,5.34668373253,8.8880909609375,5.34668373253,9.2555459609375L5.34668373253,15.6594099609375C5.3461456255,15.9267399609375,5.3993153875,16.1914599609375,5.5030376875,16.4378499609375C5.5542916875,16.5538199609375,5.6155106875,16.6651199609375,5.6860046875,16.7705199609375C5.8310246875,16.986559960937498,6.0148886875,17.1738099609375,6.2282536875,17.3227399609375C6.3336436875,17.3932399609375,6.4449496875,17.4544599609375,6.5609196875,17.5057099609375C6.8088196875,17.6075899609375,7.0746896875,17.6585099609375,7.3426896875,17.6554099609375L13.3307196875,17.6554099609375C13.6981696875,17.6554099609375,13.9960496875,17.357529960937498,13.9960496875,16.9900799609375C13.9960496875,16.6226199609375,13.6981696875,16.3247399609375,13.3307196875,16.3247399609375ZM17.9880796875,8.5902099609375C17.620579687499998,8.5902099609375,17.322779687500002,8.8880909609375,17.322779687500002,9.2555459609375L17.322779687500002,15.6594099609375C17.327779687499998,15.7036099609375,17.327779687499998,15.7482599609375,17.322779687500002,15.792469960937499C17.3129796875,15.835639960937499,17.2995796875,15.8779299609375,17.2827796875,15.9188899609375C17.2661796875,15.9582599609375,17.2461796875,15.9960999609375,17.2229796875,16.0319899609375C17.1981796875,16.0656199609375,17.1714796875,16.0978299609375,17.1430796875,16.1284699609375C17.1114796875,16.1581299609375,17.0781796875,16.1858999609375,17.0432796875,16.2116299609375C17.0073796875,16.2348399609375,16.9695796875,16.2548799609375,16.9301796875,16.2715099609375C16.8901796875,16.2878199609375,16.8490796875,16.3011599609375,16.8070796875,16.3114299609375C16.7578796875,16.3218099609375,16.7076796875,16.326269960937502,16.6573796875,16.3247399609375L15.9920796875,16.3247399609375C15.6245796875,16.3247399609375,15.3267196875,16.6226199609375,15.3267196875,16.9900799609375C15.3267196875,17.357529960937498,15.6245796875,17.6554099609375,15.9920796875,17.6554099609375L16.6573796875,17.6554099609375C16.9247796875,17.655949960937498,17.1894796875,17.6027799609375,17.435879687499998,17.4990599609375C17.5517796875,17.447799960937502,17.6630796875,17.3865899609375,17.768479687499998,17.3160899609375C17.984579687500002,17.1710699609375,18.1717796875,16.9872099609375,18.3207796875,16.7738399609375C18.3911796875,16.6684499609375,18.452479687500002,16.5571499609375,18.5036796875,16.4411699609375C18.6055796875,16.1932799609375,18.6564796875,15.9273999609375,18.6533796875,15.6594099609375L18.6533796875,9.2555459609375C18.6533796875,8.8880909609375,18.3554796875,8.5902099609375,17.9880796875,8.5902099609375Z" fill="#FFFFFF" fill-opacity="1" style="mix-blend-mode:passthrough"/></g><g><path d="M15.293252109375,11.198356562499999C15.033362109375,10.9381765625,14.611692109375,10.9381765625,14.351802109375,11.198356562499999L12.665172109375,12.8849765625L12.665172109375,7.0100625625C12.665172109375,6.6426075625,12.367292109375,6.3447265625,11.999842109374999,6.3447265625C11.632382109375,6.3447265625,11.334502109375,6.6426075625,11.334502109375,7.0100625625L11.334502109375,12.8849765625L9.647882109375,11.198356562499999C9.385431109375,10.9596965625,8.981898109375,10.968906562499999,8.730619109375,11.2192965625C8.479340109375,11.4696865625,8.468696909375,11.873186562499999,8.706427109375,12.1364765625L11.530782109375,14.9608265625C11.790282109375,15.2187965625,12.209392109374999,15.2187965625,12.468902109375,14.9608265625L15.293252109375,12.1364765625C15.551222109375,11.8769665625,15.551222109375,11.4578565625,15.293252109375,11.198356562499999Z" fill="#FFFFFF" fill-opacity="1" style="mix-blend-mode:passthrough"/></g></g></svg>