<svg xmlns="http://www.w3.org/2000/svg" xmlns:xlink="http://www.w3.org/1999/xlink" fill="none" version="1.1" width="16" height="16" viewBox="0 0 16 16"><defs><clipPath id="master_svg0_721_84718"><rect x="0" y="0" width="16" height="16" rx="0"/></clipPath><linearGradient x1="0.1263166069984436" y1="0.09815479815006256" x2="1.003060618739685" y2="0.9052079600731957" id="master_svg1_721_93553"><stop offset="0%" stop-color="#8A8AFF" stop-opacity="1"/><stop offset="100%" stop-color="#6464FF" stop-opacity="1"/></linearGradient></defs><g clip-path="url(#master_svg0_721_84718)"><g><path d="M0.36328125,7.46724125Q0.36328125,7.81867125,0.60839225,8.06718125Q0.8535042500000001,8.31568125,1.20014325,8.31568125L4.94475125,8.31568125L9.58732125,5.62599125Q10.44168125,6.41326125,11.62918125,6.23200125Q12.94338125,6.03140125,13.52318125,4.81892125Q14.10298125,3.60643125,13.44418125,2.43614125Q12.78548125,1.26584825,11.46088125,1.15513575Q10.13637125,1.04442425,9.29749125,2.08954125Q8.53768125,3.03615125,8.77459125,4.18561125L4.77449125,6.61879125L1.20014325,6.61879125Q0.8535042500000001,6.61879125,0.60839225,6.86729125Q0.36328125,7.11580125,0.36328125,7.46724125ZM2.47115125,11.17483125Q1.89021125,12.38873125,2.54953125,13.56073125Q3.20885125,14.73273125,4.53515125,14.84383125Q5.86146125,14.95493125,6.70156125,13.90853125Q7.46260125,12.96063125,7.22523125,11.80943125L11.22478125,9.37624125L14.79918125,9.37624125Q15.14578125,9.37624125,15.39088125,9.12773125Q15.63598125,8.87923125,15.63598125,8.52779125Q15.63598125,8.17636125,15.39088125,7.92785125Q15.14578125,7.67935125,14.79918125,7.67935125L11.05458125,7.67935125L6.41261125,10.36845125Q5.55744125,9.57955125,4.36816125,9.76057125Q3.05209125,9.96090125,2.47115125,11.17483125Z" fill-rule="evenodd" fill="url(#master_svg1_721_93553)" fill-opacity="1" style="mix-blend-mode:passthrough"/></g></g></svg>
