<svg xmlns="http://www.w3.org/2000/svg" xmlns:xlink="http://www.w3.org/1999/xlink" fill="none" version="1.1" width="16" height="16" viewBox="0 0 16 16"><defs><clipPath id="master_svg0_688_85923"><rect x="0" y="0" width="16" height="16" rx="0"/></clipPath><linearGradient x1="0.1633031666278839" y1="0" x2="1.0980186981719937" y2="0.8979703512033317" id="master_svg1_514_008535"><stop offset="0%" stop-color="#FF9D8E" stop-opacity="1"/><stop offset="100%" stop-color="#EE5A43" stop-opacity="1"/></linearGradient></defs><g clip-path="url(#master_svg0_688_85923)"><g><path d="M13.9460015625,3.502277421875C13.8009015625,3.316117421875,13.6678015625,3.161427421875,13.5326015625,3.018997421875C11.8662015625,1.262872421875,10.0419115625,1.437490421875,8.375521562500001,2.762427421875C8.2271915625,2.880367421875,8.0871915625,3.002797421875,7.9554115625,3.1272274218750002C7.8236215625,3.002797421875,7.6836115625,2.880367421875,7.5352815625,2.762427421875C5.8688915625,1.437490421875,4.0445915625,1.262872421875,2.3781615625,3.0189774218750003C2.2430115625,3.161407421875,2.1098815625,3.316107421875,1.9788015625,3.483267421875C-0.041873437500000055,6.408297421875,1.0689255625,9.310837421875,4.0582615625,11.937907421875C4.719521562500001,12.519007421875,5.4263915625,13.041807421875,6.1332515625,13.498907421875C6.3807815625,13.659007421875,6.6109115625,13.799607421875,6.8178915625,13.919707421875C6.9432815625,13.992507421875,7.0339515625,14.042707421875,7.0842115625,14.069407421875C7.1603015625,14.115007421875,7.2362115625,14.149707421875,7.3112515625,14.175207421875C7.3654715625,14.200507421875,7.4286915625,14.223507421875,7.5021615625,14.243807421875C7.8986915625,14.353107421875,8.486221562499999,14.273607421875,8.8434015625,14.059907421875C8.8768615625,14.042707421875,8.9675415625,13.992507421875,9.0929215625,13.919707421875C9.2999015625,13.799607421875,9.5300215625,13.659007421875,9.7775615625,13.498907421875C10.4844315625,13.041807421875,11.1913015625,12.519007421875,11.8526015625,11.937907421875C14.8419015625,9.310837421875,15.9527015625,6.408297421875,13.9460015625,3.502277421875Z" fill="url(#master_svg1_514_008535)" fill-opacity="1" style="mix-blend-mode:passthrough"/></g></g></svg>