<svg xmlns="http://www.w3.org/2000/svg" xmlns:xlink="http://www.w3.org/1999/xlink" fill="none" version="1.1" width="16" height="16" viewBox="0 0 16 16"><defs><clipPath id="master_svg0_721_92509"><rect x="0" y="0" width="16" height="16" rx="0"/></clipPath><linearGradient x1="0" y1="0.16386397182941437" x2="0.7876645179514413" y2="1.0630877937032728" id="master_svg1_721_92426"><stop offset="0%" stop-color="#EBA962" stop-opacity="1"/><stop offset="100%" stop-color="#F17A17" stop-opacity="1"/></linearGradient></defs><g clip-path="url(#master_svg0_721_92509)"><g><path d="M5.8598268749999995,2.401338125L5.8598268749999995,2.401769125L5.8598268749999995,4.5918231249999995C5.859676875,4.885353125,6.008266875,5.158743125,6.254046875,5.317103125L7.538146875,6.143963125C7.819636875,6.325343125,8.180366875,6.325343125,8.461846874999999,6.143963125L9.745956875000001,5.317103125C9.991606875,5.158823125,10.140176875,4.885633125,10.140176875,4.592253125L10.140176875,2.401769125C10.140366875,2.070756125,10.496536875,1.863837125,10.781796875,2.029012625L12.707946875,3.146423125C13.237846875,3.453863125,13.564346875,4.022253125000001,13.564446875,4.637443125L13.564446875,7.814053125C13.564446875,8.429483125,13.237946875,8.998073125000001,12.707946875,9.305503125000001L11.167956875,10.198893125C11.195856875,10.288423125,11.210556875,10.381423125,11.210556875,10.476853125L11.210556875,12.736603125C11.210556875,13.449803125,10.389256875000001,14.027903125,9.376126875,14.027903125L6.624476875,14.027903125C5.611346875000001,14.027903125,4.790036875,13.449803125,4.790036875,12.736603125L4.790036875,10.476853125C4.790036875,10.381533125,4.804706875,10.288623125,4.832546875,10.199193125L3.292044875,9.305503125000001C2.762155875,8.998063125,2.43565068,8.429673125,2.435546875,7.814483125L2.435546875,4.6378731250000005C2.435546875,4.022443125000001,2.762071875,3.453853125,3.292044875,3.146423125L5.217776875,2.029012625C5.5030068750000005,1.863412125,5.859506875,2.070245825,5.8598268749999995,2.401338125Z" fill-rule="evenodd" fill="url(#master_svg1_721_92426)" fill-opacity="1" style="mix-blend-mode:passthrough"/></g><g><path d="M6.50244140625,8.114402C6.502441788943,7.757818,6.78989840625,7.468750384838,7.14449340625,7.46875L8.85663140625,7.46875C9.21123140625,7.46875,9.49868140625,7.757818,9.49868140625,8.114402C9.49868140625,8.47099,9.21123140625,8.76005,8.85663140625,8.76005L7.14449340625,8.76005C6.78989840625,8.76005,6.502441788943,8.47099,6.50244140625,8.114402Z" fill="#FFFFFF" fill-opacity="1" style="mix-blend-mode:passthrough"/></g></g></svg>
