<svg xmlns="http://www.w3.org/2000/svg" xmlns:xlink="http://www.w3.org/1999/xlink" fill="none" version="1.1" width="16" height="16" viewBox="0 0 16 16"><defs><clipPath id="master_svg0_514_022128"><rect x="0" y="0" width="16" height="16" rx="0"/></clipPath><linearGradient x1="0.3451307415962219" y1="0.2121325433254242" x2="0.9427181949249906" y2="0.925436334182273" id="master_svg1_514_011260"><stop offset="0%" stop-color="#FFCD89" stop-opacity="1"/><stop offset="100%" stop-color="#FF9400" stop-opacity="1"/></linearGradient></defs><g clip-path="url(#master_svg0_514_022128)"><g><path d="M7.99498,13.6699C7.75548,13.541,7.50108,13.4419,7.23748,13.3749C6.97435,13.3082,6.70395,13.2743,6.43248,13.2742L6.34498,13.2742C6.08818,13.2809,5.83308,13.318,5.58498,13.3847C5.33554,13.4508,5.09472,13.5461,4.86748,13.6684C4.62839,13.7981,4.37388,13.897,4.10998,13.9629C3.6354,14.0831,3.13994,14.0954,2.65998,13.9989C2.60673,13.9882,2.55423,13.9764,2.50248,13.9632C2.39756,13.9372,2.29408,13.9058,2.19248,13.8689C2.09035,13.8328,1.99021,13.7914,1.89248,13.7447C1.84423,13.7214,1.79573,13.6972,1.74748,13.6717C1.70032,13.6459,1.65364,13.6192,1.60748,13.5917C1.46802,13.5086,1.33513,13.415,1.20998,13.3117C1.08463,13.2086,0.966831,13.0966,0.857483,12.9767C0.821101,12.9369,0.786081,12.8958,0.752483,12.8537C0.717732,12.8123,0.68438,12.7698,0.652483,12.7262C0.586634,12.6403,0.526505,12.5502,0.472483,12.4564C0.444288,12.4103,0.417607,12.3633,0.392483,12.3154C0.365733,12.2679,0.340733,12.2194,0.317483,12.1704C0.295626,12.1212,0.273959,12.0718,0.252483,12.0224C0.212264,11.92206,0.175575,11.82033,0.142483,11.71741C0.127483,11.66541,0.113233,11.61341,0.0999833,11.56091C0.0867333,11.50841,0.0749833,11.45591,0.0649833,11.40291C0.0533454,11.35003,0.0441688,11.29664,0.0374833,11.24291C0.0292333,11.18966,0.0224833,11.13591,0.0174833,11.08216C0.010822,11.02847,0.00665085,10.97449,0.00498334,10.92041C-0.00166111,10.81251,-0.00166111,10.70431,0.00498334,10.59641C0.00665081,10.54233,0.0108219,10.48835,0.0174833,10.43466C0.0224833,10.38091,0.0292333,10.32716,0.0374833,10.27366C0.0442333,10.22016,0.0532333,10.16691,0.0649833,10.11391C0.0749833,10.06091,0.0867333,10.00816,0.0999833,9.95591C0.113233,9.903410000000001,0.127483,9.85116,0.142483,9.79966C0.175721,9.69671,0.212408,9.594899999999999,0.252483,9.49441L0.317483,9.346160000000001C0.340733,9.29741,0.365733,9.24916,0.392483,9.20141C0.417483,9.15391,0.444233,9.10666,0.472483,9.060410000000001C0.526376,8.96665,0.586512,8.87661,0.652483,8.79091C0.684233,8.74741,0.717483,8.70491,0.752483,8.663160000000001C0.785733,8.62116,0.820733,8.58041,0.857483,8.54016C0.967217,8.4206,1.08499,8.30867,1.20998,8.20516C1.33541,8.102170000000001,1.46827,8.00858,1.60748,7.92516C1.65423,7.89741,1.70073,7.87066,1.74748,7.84516C1.79573,7.81966,1.84423,7.79516,1.89248,7.77216C1.99019,7.7254,2.09033,7.68393,2.19248,7.64791C2.29401,7.61083,2.3975,7.57936,2.50248,7.55366C2.71229,7.5015,2.92659,7.46944,3.14248,7.45791C3.3319,7.44862,3.52177,7.45564,3.70998,7.47891C3.97964,7.51207,4.24415,7.57849,4.49748,7.67666C4.62423,7.72591,4.74748,7.78241,4.86748,7.84666C5.107,7.97555,5.36139,8.07462,5.62498,8.14166C5.88878,8.20857,6.16003,8.24241,6.43248,8.24241L6.51748,8.24241C6.72354,8.236889999999999,6.92861,8.21194,7.12998,8.16791C7.33323,8.123660000000001,7.52998,8.061160000000001,7.71998,7.98016C7.75498,7.95616,7.79073,7.93266,7.82748,7.91016C7.94423,7.83891,8.05498,7.76066,8.15998,7.67566C8.47969,7.421,8.74855,7.10838,8.95248,6.75416L8.99498,6.67916C9.05673,6.56591,9.11173,6.44941,9.15998,6.32991C9.20673,6.21041,9.24673,6.08841,9.27998,5.96391C9.31498,5.83966,9.34173,5.71391,9.35998,5.58641C9.37823,5.4589099999999995,9.38923,5.330909999999999,9.39248,5.20216C9.39748,5.066409999999999,9.40998,4.93116,9.42999,4.7969100000000005C9.44999,4.6624099999999995,9.47923,4.52991,9.51748,4.39916C9.55423,4.26816,9.59923,4.14016,9.65248,4.01516C9.76171,3.75434,9.90459,3.50892,10.0775,3.2851600000000003C10.1675,3.16866,10.2642,3.05891,10.3675,2.9551600000000002C10.4725,2.85191,10.5832,2.75591,10.7,2.66716C10.9305,2.491935,11.1836,2.34864,11.4525,2.24116C11.5844,2.187826,11.7197,2.143148,11.8575,2.10741C12.4143,1.9625211,12.9991,1.9642437,13.555,2.112411C14.0436,2.244549,14.4959,2.486052,14.8775,2.818661C14.9592,2.890161,15.0367,2.965161,15.11,3.0441599999999998C15.185,3.12316,15.255,3.20566,15.32,3.2916600000000003C15.3867,3.3774100000000002,15.4482,3.4664099999999998,15.505,3.5584100000000003C15.5617,3.65041,15.6142,3.74491,15.6625,3.84216C15.7092,3.93916,15.7517,4.03841,15.79,4.13966C15.8282,4.24116,15.8607,4.3441600000000005,15.8875,4.44891C15.9157,4.5534099999999995,15.9392,4.6589100000000006,15.9575,4.7656600000000005C15.9757,4.87241,15.9882,4.97991,15.995,5.08791C16.0083,5.3039000000000005,16.0016,5.5206599999999995,15.975,5.73541C15.96,5.84291,15.9407,5.94916,15.9175,6.05466C15.8679,6.26552,15.7976,6.47094,15.7075,6.66791C15.6625,6.76641,15.6132,6.86266,15.56,6.95616C15.4917,7.07366,15.4167,7.18691,15.335,7.29541C15.2532,7.40366,15.165,7.50666,15.07,7.60441C14.975,7.70191,14.875,7.79341,14.77,7.87866C14.6638,7.96351,14.5528,8.04206,14.4375,8.11391C14.3225,8.18516,14.2117,8.26341,14.105,8.348410000000001C13.7853,8.60314,13.5165,8.91575,13.3125,9.26991L13.27,9.344909999999999C13.2082,9.45791,13.1532,9.57416,13.105,9.693660000000001C13.0583,9.8132,13.0182,9.935220000000001,12.985,10.05916C12.9517,10.18341,12.925,10.30916,12.905,10.43616C12.8867,10.56366,12.8757,10.69116,12.8725,10.81991C12.8659,11.04265,12.8366,11.26413,12.785,11.48091C12.775,11.52616,12.7642,11.57141,12.7525,11.61616L12.7125,11.74991C12.6991,11.79444,12.6841,11.83847,12.6675,11.88191C12.6524,11.92583,12.6357,11.9692,12.6175,12.0119C12.5992,12.0549,12.5807,12.0974,12.5625,12.1394C12.5425,12.1819,12.5217,12.2237,12.5,12.2649C12.4798,12.3065,12.4581,12.3474,12.435,12.3874C12.4117,12.4279,12.3875,12.4677,12.3625,12.5072C12.3375,12.5464,12.3125,12.5854,12.2875,12.6237C12.2607,12.6622,12.2332,12.6997,12.205,12.7369C12.177,12.7738,12.1486,12.8105,12.12,12.8469C12.09,12.8827,12.06,12.9179,12.03,12.9527C11.9982,12.9877,11.9667,13.0214,11.935,13.0549C11.9017,13.0882,11.8682,13.1209,11.835,13.1529C11.7679,13.2172,11.6978,13.2782,11.625,13.3359C11.5882,13.3652,11.5517,13.3934,11.515,13.4209C11.4767,13.4484,11.4382,13.4749,11.4,13.5009C11.3617,13.5267,11.3225,13.5517,11.2825,13.5759C11.2425,13.6002,11.2025,13.6234,11.1625,13.6462C11.0813,13.692,10.9978,13.7337,10.9125,13.7712C10.8704,13.7903,10.8279,13.8084,10.785,13.8254C10.7417,13.8427,10.6982,13.8589,10.655,13.8744C10.61,13.8899,10.5657,13.9044,10.5225,13.9179C10.4334,13.9447,10.3433,13.968,10.2525,13.9879C10.2075,13.9974,10.1617,14.0064,10.115,14.0142C10.0239,14.0302,9.93214,14.042,9.83998,14.0497C9.47516,14.0807,9.10773,14.0513,8.75248,13.9627C8.48889,13.8966,8.23446,13.7983,7.99498,13.6699ZM7.36748,10.93366C7.36748,11.00366,7.37073,11.07366,7.37748,11.14316C7.38248,11.21298,7.39167,11.28244,7.40498,11.35116C7.41823,11.41991,7.43498,11.48791,7.45498,11.55516C7.47323,11.62266,7.49573,11.68866,7.52248,11.75391C7.54748,11.81891,7.57573,11.88291,7.60748,11.94541C7.63923,12.0079,7.67323,12.0687,7.70998,12.1279C7.74823,12.1874,7.78823,12.2447,7.82998,12.3004C7.87323,12.3557,7.91923,12.4092,7.96748,12.4604C8.01748,12.5079,8.07073,12.5529,8.12748,12.5954C8.18248,12.6379,8.23923,12.6779,8.29748,12.7152C8.35748,12.7524,8.41823,12.7867,8.47998,12.8182C8.605,12.881,8.73556,12.9321,8.86998,12.9709C9.10771,13.0398,9.35531,13.0684,9.60248,13.0554C9.8603,13.0423,10.114,12.9852,10.3525,12.8864C10.4204,12.8577,10.4871,12.8261,10.5525,12.7919C10.5842,12.7744,10.6157,12.7564,10.6475,12.7374C10.6792,12.7187,10.71,12.6989,10.74,12.6784C10.7717,12.6579,10.8017,12.6369,10.83,12.6149C10.8598,12.5931,10.889,12.5704,10.9175,12.5469C10.9457,12.5237,10.9742,12.4994,11.0025,12.4749C11.0292,12.4499,11.0557,12.4249,11.0825,12.3987C11.1075,12.3727,11.1325,12.3462,11.1575,12.3187C11.2073,12.2645,11.254,12.2075,11.2975,12.1482C11.3192,12.1187,11.3407,12.0884,11.3625,12.0579C11.3825,12.0272,11.4017,11.99616,11.42,11.96466C11.44,11.93291,11.4582,11.90091,11.475,11.86866C11.4917,11.83616,11.5082,11.80316,11.525,11.76991L11.57,11.66916L11.61,11.56616L11.645,11.46116C11.655,11.42616,11.6642,11.39066,11.6725,11.35491C11.6825,11.31916,11.6907,11.28341,11.6975,11.24741L11.7175,11.13841C11.7275,11.06558,11.7341,10.99234,11.7375,10.91891C11.7407,10.88191,11.7425,10.84516,11.7425,10.80841C11.7424,10.66854,11.729,10.52899,11.7025,10.39166C11.6892,10.32309,11.6734,10.25505,11.655,10.18766C11.635,10.12066,11.6125,10.05441,11.5875,9.98941C11.5607,9.92441,11.5325,9.86041,11.5025,9.79816C11.4707,9.73554,11.4357,9.67462,11.3975,9.61566C11.3609,9.5566,11.3217,9.49921,11.28,9.443660000000001C11.2367,9.38814,11.1908,9.33466,11.1425,9.28341C11.0918,9.23519,11.0384,9.18995,10.9825,9.14791C10.9275,9.10541,10.8707,9.06541,10.8125,9.02791C10.7525,8.990639999999999,10.6907,8.95618,10.6275,8.92466C10.5028,8.86083,10.3722,8.80941,10.2375,8.77116C10.0361,8.71236,9.82729,8.6828,9.61749,8.68341C9.39637,8.68358,9.17649,8.716429999999999,8.96498,8.78091C8.89397,8.802800000000001,8.82391,8.82766,8.75498,8.85541C8.72173,8.86941,8.68823,8.884409999999999,8.65498,8.90041C8.62173,8.91591,8.58923,8.93266,8.55748,8.94991C8.49201,8.98404,8.42857,9.02194,8.36749,9.063410000000001C8.33749,9.08391,8.30748,9.10516,8.27748,9.12716C8.21816,9.17051,8.1614,9.21725,8.10748,9.26717C8.07924,9.29191,8.05248,9.31717,8.02748,9.343160000000001C7.92183,9.44613,7.82792,9.56049,7.74748,9.68417C7.7261,9.71434,7.70608,9.74545,7.68748,9.77741C7.66923,9.808910000000001,7.65073,9.84092,7.63248,9.87341L7.58249,9.97192L7.53748,10.07291C7.52414,10.10693,7.51164,10.14128,7.49998,10.17591C7.48673,10.21066,7.47498,10.24541,7.46498,10.28091C7.45323,10.31591,7.44323,10.35141,7.43498,10.38716C7.42498,10.42291,7.41673,10.45866,7.40998,10.49466C7.40323,10.53091,7.39748,10.56716,7.39248,10.60366C7.38584,10.63992,7.38084,10.67646,7.37748,10.71316C7.37084,10.78648,7.36751,10.86005,7.36748,10.93366ZM0.992483,10.80866C0.992588,10.91904,1.0001,11.02929,1.01498,11.13866L1.03498,11.24741C1.04173,11.28366,1.04998,11.31941,1.05998,11.35491C1.06823,11.39091,1.07823,11.42641,1.08998,11.46141C1.09998,11.49666,1.11073,11.53166,1.12248,11.56641L1.16248,11.66941L1.20748,11.77016C1.22423,11.80341,1.24073,11.83641,1.25748,11.86891C1.27573,11.90141,1.29423,11.93316,1.31248,11.96491C1.33073,11.99641,1.35073,12.0274,1.37248,12.0582C1.4328,12.1504,1.50052,12.2376,1.57498,12.3189C1.59998,12.3464,1.62498,12.3729,1.64998,12.3989C1.67673,12.4249,1.70323,12.4504,1.72998,12.4752C1.75823,12.4997,1.78673,12.5239,1.81498,12.5472C1.84323,12.5704,1.87248,12.5932,1.90248,12.6152C1.93073,12.6369,1.96073,12.6582,1.99248,12.6787C2.05347,12.7203,2.11692,12.7582,2.18248,12.7922C2.21423,12.8097,2.24673,12.8262,2.27998,12.8422C2.31323,12.8577,2.34673,12.8727,2.37998,12.8867C2.41498,12.9009,2.44998,12.9142,2.48498,12.9267C2.55362,12.9522,2.62375,12.9736,2.69498,12.9907C2.76661,13.0092,2.83922,13.0236,2.91248,13.0339C2.98452,13.0452,3.05713,13.0526,3.12998,13.0559C3.20411,13.0594,3.27836,13.0594,3.35248,13.0559C3.53654,13.0469,3.71876,13.015,3.89498,12.9612C3.92998,12.9504,3.96498,12.9387,3.99998,12.9264C4.03323,12.9139,4.06748,12.9007,4.10248,12.8867C4.1704,12.8579,4.23712,12.8263,4.30248,12.7922C4.33423,12.7747,4.36573,12.7567,4.39748,12.7377C4.42923,12.7187,4.45998,12.6992,4.48998,12.6787C4.52088,12.6587,4.5509,12.6374,4.57998,12.6149C4.6098,12.5932,4.63898,12.5706,4.66748,12.5472C4.69573,12.5237,4.72423,12.4997,4.75248,12.4749C4.77923,12.4502,4.80573,12.4249,4.83248,12.3989C4.85748,12.3729,4.88248,12.3462,4.90748,12.3189C4.95724,12.2647,5.00398,12.2078,5.04748,12.1484C5.06923,12.1187,5.09073,12.0884,5.11248,12.0582C5.13248,12.0274,5.15173,11.99641,5.16998,11.96491C5.18998,11.93316,5.20823,11.90116,5.22498,11.86866L5.27498,11.77016L5.31998,11.66916L5.35998,11.56616L5.39498,11.46141C5.40498,11.42641,5.41423,11.39091,5.42248,11.35516C5.43244,11.31973,5.44078,11.28385,5.44748,11.24766L5.46748,11.13866C5.47747,11.06575,5.48414,10.99242,5.48748,10.91891C5.49416,10.84556,5.49416,10.77176,5.48748,10.69841C5.48417,10.62489,5.4775,10.55157,5.46748,10.47866L5.44748,10.36991C5.44078,10.33372,5.43244,10.29785,5.42248,10.26241C5.41416,10.2267,5.40499,10.19119,5.39498,10.15591L5.35998,10.05091C5.34678,10.01661,5.33345,9.98236,5.31998,9.94816L5.27498,9.847159999999999C5.25848,9.81424,5.24182,9.781410000000001,5.22498,9.748660000000001C5.2081,9.71585,5.18975,9.68382,5.16998,9.652660000000001C5.15163,9.62108,5.13246,9.58999,5.11248,9.55941C5.09106,9.52915,5.06939,9.49907,5.04748,9.469159999999999C5.00401,9.4097,4.95728,9.352689999999999,4.90748,9.29841C4.88248,9.27116,4.85748,9.24441,4.83248,9.21841C4.80615,9.192730000000001,4.77948,9.1674,4.75248,9.14241C4.72449,9.117930000000001,4.69615,9.09385,4.66748,9.07016C4.63898,9.04673,4.6098,9.02414,4.57998,9.002410000000001C4.55091,8.97988,4.52088,8.95861,4.48998,8.938659999999999C4.45975,8.91807,4.4289,8.89839,4.39748,8.879660000000001C4.36616,8.86091,4.33448,8.84274,4.30248,8.82516C4.23706,8.79109,4.17035,8.75957,4.10248,8.73066C4.06748,8.716660000000001,4.03323,8.70316,3.99998,8.690660000000001C3.96498,8.67841,3.92998,8.66691,3.89498,8.65616C3.85944,8.64531,3.82359,8.63547,3.78748,8.626660000000001C3.75189,8.61755,3.71604,8.60947,3.67998,8.602409999999999C3.53586,8.57404,3.38937,8.55939,3.24248,8.55866C3.16818,8.55892,3.09393,8.56267,3.01998,8.56991C2.91046,8.58135,2.80186,8.6004,2.69498,8.626909999999999C2.62403,8.64497,2.55395,8.666319999999999,2.48498,8.690909999999999C2.44998,8.70341,2.41498,8.716660000000001,2.37998,8.73091C2.34673,8.74491,2.31323,8.75991,2.27998,8.77566C2.24673,8.791409999999999,2.21423,8.80816,2.18248,8.82541C2.11701,8.859539999999999,2.05357,8.89743,1.99248,8.93891C1.96248,8.95941,1.93248,8.98041,1.90248,9.002410000000001C1.84318,9.04578,1.78642,9.09252,1.73248,9.14241C1.70423,9.16741,1.67748,9.192409999999999,1.65248,9.21866C1.54682,9.32152,1.45291,9.43581,1.37248,9.55941C1.35109,9.58958,1.33107,9.62069,1.31248,9.652660000000001C1.29423,9.68416,1.27573,9.71616,1.25748,9.748660000000001C1.24073,9.78116,1.22423,9.81391,1.20748,9.84741C1.19248,9.880659999999999,1.17823,9.914159999999999,1.16498,9.94816C1.14998,9.98216,1.13673,10.01641,1.12498,10.05116C1.11173,10.08591,1.09998,10.12066,1.08998,10.15591C1.07823,10.19091,1.06823,10.22666,1.05998,10.26216L1.03498,10.36991C1.02823,10.40616,1.02248,10.44241,1.01748,10.47866C1.01084,10.51492,1.00583,10.55145,1.00248,10.58816C0.995842,10.66147,0.992506,10.73505,0.992483,10.80866ZM10.3675,5.43366C10.3676,5.54404,10.3751,5.65429,10.39,5.76366L10.41,5.87241C10.4167,5.90841,10.425,5.9444099999999995,10.435,5.97991C10.4432,6.01591,10.4532,6.05116,10.465,6.08641C10.475,6.12166,10.4857,6.15641,10.4975,6.19141L10.5375,6.29416L10.5825,6.39516C10.5992,6.42841,10.6157,6.46141,10.6325,6.49366C10.6507,6.52616,10.6692,6.55816,10.6875,6.58966C10.7057,6.62141,10.7257,6.65241,10.7475,6.68291C10.8281,6.80642,10.922,6.92076,11.0275,7.02391C11.0525,7.04991,11.0792,7.07516,11.1075,7.09991C11.1613,7.14992,11.2181,7.19667,11.2775,7.23991C11.3057,7.26191,11.3357,7.28316,11.3675,7.30366C11.4285,7.34526,11.4919,7.38316,11.5575,7.41716C11.5892,7.43466,11.6217,7.45116,11.655,7.46691C11.6882,7.48266,11.7217,7.49741,11.755,7.51166C11.8231,7.53931,11.8923,7.56416,11.9625,7.58616C11.9992,7.59691,12.035,7.60666,12.07,7.61566C12.1416,7.63418,12.2142,7.64862,12.2875,7.65891C12.3595,7.67023,12.4321,7.67758,12.505,7.68091C12.5791,7.68451,12.6534,7.68451,12.7275,7.68091C12.9115,7.67187,13.0938,7.64005,13.27,7.58616C13.305,7.57566,13.34,7.56391,13.375,7.55166C13.4082,7.53916,13.4425,7.52591,13.4775,7.51166C13.5454,7.48303,13.6122,7.45159,13.6775,7.41741C13.7092,7.39991,13.7407,7.38166,13.7725,7.36291C13.8042,7.34391,13.835,7.32416,13.865,7.30366C13.8967,7.28341,13.9267,7.26216,13.955,7.24016C13.9848,7.21835,14.014,7.19567,14.0425,7.17216C14.0707,7.14891,14.0992,7.12466,14.1275,7.10016C14.1542,7.07516,14.1807,7.05016,14.2075,7.02391C14.2325,6.99791,14.2575,6.97141,14.2825,6.94391C14.3322,6.88969,14.379,6.83277,14.4225,6.77341C14.4442,6.74391,14.4657,6.71366,14.4875,6.68316C14.5075,6.65266,14.5267,6.62141,14.545,6.58991C14.565,6.55841,14.5832,6.52641,14.6,6.49391C14.6167,6.46141,14.6332,6.42841,14.65,6.39516L14.695,6.29441L14.735,6.19141L14.77,6.08641C14.78,6.05141,14.7892,6.01591,14.7975,5.98016C14.8075,5.9444099999999995,14.8157,5.908659999999999,14.8225,5.87266L14.8425,5.76366C14.8525,5.6907499999999995,14.8591,5.61742,14.8625,5.54391C14.8692,5.47048,14.8692,5.39659,14.8625,5.32316C14.8592,5.24973,14.8525,5.17648,14.8425,5.10366L14.8225,4.99491C14.8158,4.95872,14.8074,4.92285,14.7975,4.88741C14.7892,4.8517,14.78,4.816190000000001,14.77,4.78091L14.735,4.67591C14.7218,4.6415299999999995,14.7084,4.60719,14.695,4.57291L14.65,4.472160000000001C14.6335,4.43916,14.6168,4.40624,14.6,4.37341C14.5831,4.3406,14.5648,4.30857,14.545,4.27741C14.5266,4.24583,14.5075,4.21474,14.4875,4.18416C14.4661,4.15398,14.4444,4.1239799999999995,14.4225,4.0941600000000005C14.379,4.0347,14.3323,3.9777,14.2825,3.92341C14.2575,3.8959099999999998,14.2325,3.8694100000000002,14.2075,3.84341C14.1812,3.81764,14.1545,3.79223,14.1275,3.76716C14.0995,3.74277,14.0711,3.71877,14.0425,3.69516C14.014,3.67165,13.9848,3.64898,13.955,3.62716C13.9259,3.60472,13.8959,3.58353,13.865,3.56366C13.8347,3.54299,13.8039,3.52323,13.7725,3.50441C13.7412,3.48573,13.7095,3.46765,13.6775,3.45016C13.6121,3.4161099999999998,13.5453,3.3845799999999997,13.4775,3.3556600000000003C13.4435,3.3418799999999997,13.4093,3.3285400000000003,13.375,3.3156600000000003C13.34,3.30316,13.305,3.2919099999999997,13.27,3.28116C13.2344,3.2703100000000003,13.1986,3.2604699999999998,13.1625,3.25166C13.1269,3.24256,13.091,3.23447,13.055,3.22741C12.9109,3.1989,12.7644,3.18425,12.6175,3.1836599999999997C12.5432,3.18396,12.4689,3.18771,12.395,3.19491C12.2855,3.20633,12.1769,3.22538,12.07,3.25191C11.999,3.27007,11.929,3.2915099999999997,11.86,3.31616C11.825,3.32866,11.79,3.34166,11.755,3.3559099999999997C11.7217,3.36991,11.6882,3.38491,11.655,3.40091C11.6217,3.41641,11.5892,3.4329099999999997,11.5575,3.4504099999999998C11.492,3.48454,11.4286,3.52244,11.3675,3.56391C11.3375,3.58441,11.3075,3.6056600000000003,11.2775,3.62766C11.2182,3.6710000000000003,11.1614,3.71775,11.1075,3.7676600000000002C11.0792,3.7924100000000003,11.0525,3.81766,11.0275,3.84366C10.9219,3.94657,10.828,4.06085,10.7475,4.18441L10.6875,4.27766L10.6325,4.37366C10.6157,4.40616,10.6,4.43916,10.585,4.47241C10.5685,4.5053,10.5535,4.53891,10.54,4.57316C10.525,4.60716,10.5117,4.6414100000000005,10.5,4.676159999999999C10.4867,4.71091,10.475,4.74566,10.465,4.78116C10.4532,4.81616,10.4432,4.85166,10.435,4.88741L10.41,4.99491C10.4032,5.03116,10.3975,5.067410000000001,10.3925,5.10366C10.3858,5.13992,10.3808,5.17645,10.3775,5.21316C10.3708,5.28647,10.3675,5.36005,10.3675,5.43366ZM1.99248,10.80866L1.99248,10.74741L1.99748,10.68616C1.99923,10.66591,2.00173,10.64541,2.00498,10.62516L2.01498,10.56491C2.02482,10.5252,2.03482,10.48554,2.04498,10.44591L2.06498,10.38766C2.07173,10.36816,2.07923,10.34916,2.08748,10.33016C2.09423,10.31141,2.10248,10.29266,2.11248,10.27416C2.12073,10.25566,2.12998,10.23741,2.13998,10.21941C2.14823,10.20141,2.15823,10.18366,2.16998,10.16591C2.17998,10.14841,2.19073,10.13116,2.20248,10.11416C2.21423,10.09716,2.22573,10.08041,2.23748,10.06416C2.24932,10.04749,2.26183,10.03131,2.27498,10.01566L2.31498,9.969159999999999C2.32823,9.95416,2.34248,9.939160000000001,2.35748,9.92466C2.38678,9.8964,2.41679,9.86889,2.44748,9.84216C2.48008,9.81691,2.51343,9.79265,2.54748,9.76941C2.56423,9.757909999999999,2.58173,9.74691,2.59998,9.73641C2.61708,9.725719999999999,2.6346,9.71571,2.65248,9.70641C2.68844,9.68745,2.72513,9.66994,2.76248,9.65391L2.81998,9.63166L2.87748,9.61241C2.93654,9.59515,2.99667,9.58179,3.05748,9.57241C3.13851,9.55993,3.22062,9.55591,3.30248,9.560410000000001C3.34346,9.56259,3.38433,9.566510000000001,3.42498,9.57216C3.50591,9.58417,3.58546,9.604099999999999,3.66248,9.63166C3.68248,9.63866,3.70173,9.64591,3.71998,9.65391C3.77669,9.677859999999999,3.8318,9.70541,3.88498,9.73641C3.90173,9.747160000000001,3.91823,9.757909999999999,3.93498,9.76941C3.95323,9.780660000000001,3.96998,9.79241,3.98498,9.80466L4.03498,9.84216C4.06578,9.868780000000001,4.09579,9.89629,4.12498,9.92466C4.13998,9.939160000000001,4.15423,9.95416,4.16748,9.969159999999999C4.18073,9.98416,4.19423,9.99991,4.20748,10.01566C4.22073,10.03141,4.23323,10.04766,4.24498,10.06416C4.25823,10.08041,4.26998,10.09716,4.27998,10.11416C4.29173,10.13116,4.30248,10.14841,4.31248,10.16591C4.32423,10.18341,4.33498,10.20141,4.34498,10.21941C4.35323,10.23741,4.36248,10.25566,4.37248,10.27441L4.39748,10.33041L4.41748,10.38766C4.42573,10.40691,4.43248,10.42616,4.43748,10.44591C4.45069,10.48461,4.46073,10.52433,4.46748,10.56466L4.47748,10.62516C4.48073,10.64541,4.48323,10.66591,4.48498,10.68616L4.48998,10.74741C4.49332,10.78818,4.49332,10.82915,4.48998,10.86991L4.48498,10.93116C4.48332,10.95159,4.48082,10.97194,4.47748,10.99216L4.46748,11.05241C4.46084,11.09285,4.45081,11.13266,4.43748,11.17141C4.42439,11.21,4.41106,11.2485,4.39748,11.28691L4.37248,11.34316C4.36248,11.36166,4.35323,11.37991,4.34498,11.39791C4.33498,11.41591,4.32423,11.43366,4.31248,11.45116C4.30248,11.46866,4.29173,11.48616,4.27998,11.50316C4.26998,11.52016,4.25823,11.53691,4.24498,11.55316C4.23315,11.56984,4.22064,11.58602,4.20748,11.60166L4.16748,11.64816C4.15423,11.66316,4.13998,11.67816,4.12498,11.69266C4.09568,11.72092,4.06567,11.74843,4.03498,11.77516C4.01852,11.78793,4.00185,11.80043,3.98498,11.81266C3.9691,11.82548,3.95239,11.83726,3.93498,11.84791C3.91823,11.85941,3.90173,11.87041,3.88498,11.88091C3.83153,11.9114,3.77645,11.93894,3.71998,11.96341C3.70173,11.97141,3.68248,11.97867,3.66248,11.98566L3.60498,12.0049C3.54592,12.0221,3.48579,12.0355,3.42498,12.0449C3.28298,12.0665,3.13829,12.063,2.99748,12.0347C2.93725,12.0224,2.87794,12.0059,2.81998,11.98541L2.76248,11.96341C2.70582,11.93929,2.65071,11.91165,2.59748,11.88066C2.54565,11.8479,2.49558,11.81244,2.44748,11.77441C2.41669,11.7478,2.38667,11.72029,2.35748,11.69191C2.34271,11.67775,2.32854,11.66299,2.31498,11.64766C2.30173,11.63266,2.28823,11.61691,2.27498,11.60116C2.26182,11.58552,2.24931,11.56934,2.23748,11.55266C2.22568,11.53609,2.21402,11.51942,2.20248,11.50266C2.19091,11.4858,2.18007,11.46845,2.16998,11.45066C2.15861,11.43364,2.14858,11.41575,2.13998,11.39716C2.13006,11.37922,2.12088,11.36087,2.11248,11.34216C2.10272,11.32417,2.09436,11.30545,2.08748,11.28616C2.0792,11.2674,2.07169,11.2483,2.06498,11.22891C2.05826,11.20952,2.05159,11.1901,2.04498,11.17066C2.03483,11.13103,2.02483,11.09137,2.01498,11.05166L2.00498,10.99116C2.00166,10.97094,1.99916,10.95059,1.99748,10.93016L1.99248,10.86891L1.99248,10.80766L1.99248,10.80866ZM8.19248,10.80741L8.19248,10.74616L8.19748,10.68516C8.19923,10.66491,8.20173,10.64466,8.20498,10.62441L8.21498,10.56391C8.22488,10.5243,8.23488,10.48472,8.24498,10.44516L8.26498,10.38716C8.27169,10.36778,8.2792,10.34868,8.28748,10.32991C8.29423,10.31116,8.30173,10.29241,8.30998,10.27391C8.31998,10.25566,8.32923,10.23741,8.33748,10.21941C8.34748,10.20141,8.35823,10.18366,8.36998,10.16591C8.37998,10.14841,8.39073,10.13116,8.40248,10.11441C8.41288,10.09689,8.42458,10.08018,8.43748,10.06441C8.44923,10.04791,8.46173,10.03191,8.47498,10.01591C8.48824,10.00016,8.50173,9.98466,8.51498,9.969660000000001C8.52824,9.95466,8.54249,9.93966,8.55748,9.92516C8.57073,9.91066,8.58498,9.89666,8.59998,9.882909999999999C8.61673,9.86941,8.63248,9.85591,8.64748,9.84291C8.66248,9.83016,8.67823,9.817409999999999,8.69498,9.80541C8.71173,9.79291,8.72823,9.781410000000001,8.74498,9.77016L8.79748,9.73741L8.84998,9.70716C8.86823,9.69741,8.88673,9.688410000000001,8.90498,9.67966C8.92323,9.67091,8.94248,9.662659999999999,8.96248,9.65466C8.98073,9.64691,8.99923,9.63966,9.01748,9.63266C9.09485,9.60624,9.17429,9.58633,9.25498,9.57316C9.29557,9.566939999999999,9.33646,9.56293,9.37748,9.561160000000001C9.47969,9.55586,9.58216,9.56342,9.68248,9.58366C9.76291,9.59977,9.8416,9.62354,9.91748,9.65466C9.95486,9.670639999999999,9.99155,9.68816,10.0275,9.70716C10.0457,9.716660000000001,10.0632,9.726659999999999,10.08,9.73716C10.0982,9.74766,10.1157,9.758659999999999,10.1325,9.76991C10.1492,9.781410000000001,10.1657,9.79291,10.1825,9.80516C10.1992,9.817409999999999,10.215,9.83016,10.23,9.84266C10.2467,9.85591,10.2625,9.86916,10.2775,9.88266L10.3225,9.92516L10.3625,9.96941C10.3775,9.98441,10.3907,10.00016,10.4025,10.01591C10.4157,10.03166,10.4282,10.04766,10.44,10.06416C10.4532,10.08066,10.4657,10.09716,10.4775,10.11416C10.4875,10.13116,10.4982,10.14841,10.51,10.16591L10.54,10.21916C10.55,10.23716,10.5592,10.25541,10.5675,10.27416L10.5925,10.32991C10.5992,10.34866,10.6067,10.36791,10.615,10.38716C10.6217,10.40616,10.6275,10.42566,10.6325,10.44516C10.6457,10.48387,10.6557,10.52358,10.6625,10.56391C10.6675,10.58391,10.6707,10.60391,10.6725,10.62441C10.6757,10.64441,10.6782,10.66466,10.68,10.68516L10.685,10.74616C10.6883,10.78693,10.6883,10.8279,10.685,10.86866C10.685,10.88891,10.6832,10.90941,10.68,10.92966C10.6783,10.95001,10.6758,10.97028,10.6725,10.99041C10.6707,11.01066,10.6675,11.03091,10.6625,11.05091C10.6558,11.09126,10.6458,11.13098,10.6325,11.16966C10.6275,11.18916,10.6207,11.20841,10.6125,11.22766L10.5925,11.28491L10.5675,11.34091C10.5592,11.35916,10.55,11.37741,10.54,11.39541L10.51,11.44866C10.4982,11.46616,10.4875,11.48366,10.4775,11.50041C10.4657,11.51758,10.4532,11.53426,10.44,11.55041C10.4282,11.56691,10.4157,11.58291,10.4025,11.59891C10.3903,11.61527,10.3769,11.63073,10.3625,11.64516C10.3492,11.66016,10.335,11.67516,10.32,11.68966C10.2924,11.71951,10.2623,11.74694,10.23,11.77166C10.215,11.78466,10.1992,11.79716,10.1825,11.80941C10.166,11.82143,10.1493,11.83319,10.1325,11.84466C10.1154,11.85625,10.0979,11.86718,10.08,11.87741C10.0629,11.8881,10.0454,11.89811,10.0275,11.90741C9.99151,11.92633,9.95482,11.94384,9.91748,11.95991C9.89748,11.96791,9.87823,11.97491,9.85998,11.98191C9.78264,12.0084,9.70319,12.0283,9.62248,12.0414C9.48046,12.0629,9.33577,12.0594,9.19498,12.0309C9.17488,12.0269,9.15488,12.0224,9.13498,12.0174C9.09533,12.0073,9.05612,11.99542,9.01748,11.98191C8.99899,11.97482,8.98065,11.96732,8.96248,11.95941C8.94302,11.95185,8.92385,11.9436,8.90498,11.93466C8.88647,11.92587,8.86813,11.9167,8.84998,11.90716C8.8325,11.89712,8.815,11.88712,8.79748,11.87716C8.78003,11.86608,8.76253,11.85508,8.74498,11.84416C8.72812,11.83269,8.71145,11.82094,8.69498,11.80891C8.67927,11.79626,8.66344,11.78376,8.64748,11.77141C8.6323,11.75829,8.6173,11.74495,8.60248,11.73141C8.58653,11.71829,8.5715,11.70409,8.55748,11.68891C8.54271,11.67467,8.52853,11.65983,8.51498,11.64441C8.50173,11.62941,8.48823,11.61391,8.47498,11.59816C8.46181,11.58261,8.4493,11.56651,8.43748,11.54991C8.42568,11.53334,8.41401,11.51667,8.40248,11.49991C8.39093,11.48304,8.38009,11.46569,8.36998,11.44791C8.35862,11.43096,8.34859,11.41316,8.33998,11.39466C8.33005,11.37681,8.32088,11.35854,8.31248,11.33991C8.30269,11.32193,8.29433,11.3032,8.28748,11.28391C8.27921,11.26523,8.2717,11.24621,8.26498,11.22691C8.25826,11.20751,8.25159,11.1881,8.24498,11.16866C8.23479,11.12913,8.22479,11.08954,8.21498,11.04991L8.20498,10.98941C8.20165,10.96927,8.19915,10.949,8.19748,10.92866L8.19248,10.86766L8.19248,10.80641L8.19248,10.80741ZM11.4075,5.46891C11.4075,5.44847,11.4083,5.42803,11.41,5.40766L11.415,5.3464100000000006C11.4167,5.32591,11.4192,5.30566,11.4225,5.285410000000001L11.4325,5.2249099999999995C11.4392,5.18457,11.4492,5.14485,11.4625,5.10616C11.4756,5.0675799999999995,11.4889,5.02908,11.5025,4.99066L11.5275,4.93441C11.5375,4.91591,11.5467,4.89766,11.555,4.879659999999999C11.565,4.8616600000000005,11.5757,4.84391,11.5875,4.82616C11.5975,4.80866,11.6082,4.79141,11.62,4.77441C11.63,4.75741,11.6417,4.74066,11.655,4.724410000000001C11.6667,4.70791,11.6792,4.69191,11.6925,4.67591L11.7325,4.62941C11.7457,4.6144099999999995,11.76,4.599410000000001,11.775,4.58491C11.8043,4.556649999999999,11.8343,4.52914,11.865,4.502409999999999C11.8817,4.489660000000001,11.8982,4.47716,11.915,4.46491C11.93,4.45266,11.9467,4.440910000000001,11.965,4.42966C11.9817,4.41816,11.9982,4.40716,12.015,4.39666C12.0684,4.36617,12.1235,4.338620000000001,12.18,4.31416C12.1982,4.30616,12.2175,4.298909999999999,12.2375,4.29191L12.295,4.27266C12.354,4.2552900000000005,12.4142,4.24193,12.475,4.23266C12.6374,4.20808,12.8032,4.21615,12.9625,4.25641C12.9825,4.26141,13.0025,4.26691,13.0225,4.27266L13.08,4.29191L13.1375,4.31416C13.1749,4.3301099999999995,13.2116,4.34762,13.2475,4.3666599999999995C13.2657,4.3761600000000005,13.2832,4.38616,13.3,4.39666C13.3182,4.40716,13.3357,4.41816,13.3525,4.42966C13.3866,4.45288,13.42,4.47722,13.4525,4.5026600000000006C13.4833,4.529310000000001,13.5133,4.55682,13.5425,4.58516C13.5575,4.599410000000001,13.5717,4.6144099999999995,13.585,4.62941C13.5982,4.644410000000001,13.6117,4.660159999999999,13.625,4.67591C13.6382,4.691660000000001,13.6507,4.70791,13.6625,4.724410000000001C13.6742,4.74066,13.6857,4.75741,13.6975,4.77441C13.7092,4.79141,13.72,4.80866,13.73,4.82616C13.7417,4.84366,13.7517,4.8616600000000005,13.76,4.879659999999999C13.77,4.89766,13.7792,4.91591,13.7875,4.93466C13.7975,4.95291,13.8057,4.97166,13.8125,4.99066C13.8207,5.00941,13.8282,5.02866,13.835,5.04791L13.855,5.10616L13.87,5.16516L13.885,5.22516L13.895,5.285410000000001C13.8982,5.30566,13.9007,5.32591,13.9025,5.3464100000000006L13.9075,5.40766L13.9075,5.53016L13.9025,5.59141C13.9008,5.61184,13.8983,5.63219,13.895,5.65241L13.885,5.71266L13.87,5.77266L13.855,5.831659999999999L13.835,5.88991C13.8283,5.9093800000000005,13.8208,5.92856,13.8125,5.94741C13.8057,5.96616,13.7975,5.98491,13.7875,6.00341C13.7792,6.02191,13.77,6.04016,13.76,6.05816C13.7514,6.07665,13.7413,6.09446,13.73,6.11141C13.72,6.12891,13.7092,6.14641,13.6975,6.16341C13.6857,6.18041,13.6742,6.19716,13.6625,6.21341C13.6507,6.22991,13.6382,6.24591,13.625,6.26191L13.585,6.30841C13.5717,6.32341,13.5575,6.33841,13.5425,6.35266C13.5132,6.38092,13.4832,6.40842,13.4525,6.43516C13.4199,6.46045,13.3865,6.48479,13.3525,6.50816C13.3357,6.51966,13.3182,6.53066,13.3,6.54116C13.2829,6.55185,13.2654,6.56185,13.2475,6.57116C13.2115,6.59012,13.1748,6.60763,13.1375,6.62366L13.08,6.64591L13.0225,6.66516C12.9634,6.68244,12.9033,6.6958,12.8425,6.70516C12.7615,6.71765,12.6793,6.72167,12.5975,6.71716C12.5157,6.71325,12.4344,6.70119,12.355,6.68116C12.335,6.67616,12.315,6.67091,12.295,6.66491C12.2756,6.65919,12.2564,6.65277,12.2375,6.64566C12.2181,6.63894,12.1989,6.63152,12.18,6.62341C12.1615,6.61547,12.1431,6.60714,12.125,6.59841C12.0876,6.58044,12.0509,6.56109,12.015,6.54041C11.9981,6.52988,11.9815,6.51905,11.965,6.50791C11.9476,6.49716,11.9309,6.4853,11.915,6.47241C11.8981,6.46007,11.8815,6.44749,11.865,6.43466C11.8498,6.42154,11.8348,6.4082,11.82,6.39466C11.804,6.38153,11.789,6.36733,11.775,6.35216C11.7602,6.33792,11.746,6.32308,11.7325,6.30766C11.7192,6.29266,11.7057,6.27691,11.6925,6.26116C11.6793,6.24552,11.6668,6.22934,11.655,6.21266C11.6421,6.19689,11.6304,6.18018,11.62,6.16266C11.6084,6.14579,11.5976,6.12844,11.5875,6.11066C11.5759,6.09327,11.5651,6.07542,11.555,6.05716C11.5464,6.03863,11.5372,6.02037,11.5275,6.00241C11.5192,5.98399,11.5117,5.96522,11.505,5.94616C11.4967,5.92739,11.4892,5.90829,11.4825,5.88891C11.4758,5.86951,11.4691,5.850099999999999,11.4625,5.83066C11.4559,5.81123,11.45,5.79155,11.445,5.77166C11.4417,5.75166,11.4375,5.73166,11.4325,5.71166L11.4225,5.65116C11.4191,5.63094,11.4166,5.61059,11.415,5.59016L11.41,5.52891L11.41,5.46766L11.4075,5.46891Z" fill="url(#master_svg1_514_011260)" fill-opacity="1" style="mix-blend-mode:passthrough"/></g></g></svg>