<svg xmlns="http://www.w3.org/2000/svg" xmlns:xlink="http://www.w3.org/1999/xlink" fill="none" version="1.1" width="16" height="13.33116340637207" viewBox="0 0 16 13.33116340637207"><defs><clipPath id="master_svg0_514_022176"><rect x="0" y="0" width="16" height="13.33116340637207" rx="0"/></clipPath><linearGradient x1="0.07121647149324417" y1="0.27951109409332275" x2="1.052180095843923" y2="0.6533922004102171" id="master_svg1_514_007966"><stop offset="0%" stop-color="#6CC6E4" stop-opacity="1"/><stop offset="100%" stop-color="#0B85C7" stop-opacity="1"/></linearGradient></defs><g clip-path="url(#master_svg0_514_022176)"><g><path d="M14.6169,8.1774196875C14.9768,8.8438496875,15.33,9.5189396875,15.6832,10.1827296875C15.7699,10.3419296875,15.8498,10.4899296875,15.9298,10.6492296875C16.1051,10.9087296875,15.9469,11.2621296875,15.6366,11.3043296875C14.6636,11.5122296875,13.6906,11.7334296875,12.7176,11.9434296875C12.3509,12.0400296875,11.9794,12.1176296875,11.6047,12.1759296875C11.3437,12.1898296875,11.1397,11.9537296875,11.1915,11.6975296875L11.6913,9.1650596875C11.7247,9.0057896875,11.7446,8.8571796875,11.7713,8.6985696875C11.7975,8.5075596875,11.947,8.3569796875,12.1378,8.3293696875C12.671,8.2207396875,13.2041,8.1101096875,13.7506,7.9961496875C13.9186,7.9825096875,14.0856,7.9580196875,14.2504,7.9228496875C14.413,7.9252896875,14.5579,8.0259396875,14.6169,8.1774196875ZM2.62795,5.1431896875C2.84787,5.3431096875,3.03447,5.5263796875,3.23439,5.7096496875C3.92081,6.3494196875,4.71386,6.9418696875,5.40028,7.5942996875C5.9934,8.1480996875,6.63983,8.6319196875,7.23295,9.1977196875C7.28191,9.2467896875,7.35585,9.2610496875,7.41955,9.2337096875C8.05931,9.0337796875,8.1926,9.0404396875,8.83903,8.8545096875C9.10593,8.7077596875,9.43707,8.8740196875,9.4788,9.1757296875C9.81201,10.0720296875,10.1452,10.9591296875,10.4784,11.8574296875C10.6266,12.1208296875,10.4588,12.4502296875,10.1586,12.4852296875C9.01897,12.7177296875,7.89271,12.9517296875,6.75312,13.1869296875C6.52654,13.2356296875,6.31328,13.2862296875,6.09336,13.3202296875C5.97491,13.3395296875,5.85469,13.2979296875,5.77347,13.2096296875L3.60093,11.2516296875C2.68126,10.4159296875,1.76826,9.5789096875,0.841925,8.7538796875C0.615341,8.5572796875,0.402085,8.3600196875,0.1755,8.1540996875C0.000231452,8.0273396875,-0.0514695,7.7889396875,0.0555432,7.6009596875C0.402085,6.7266096875,0.741962,5.8529296875,1.07517,4.9919096875C1.12977,4.8359296875,1.25241,4.7132896875,1.40839,4.6586896875C1.88155,4.5127496875,2.35471,4.3514696875,2.82787,4.2035296875C2.99425,4.1258596875,3.19213,4.1714896875,3.3077,4.3141496875C3.49692,4.5421696875,3.39628,4.8891696875,3.11444,4.9805796875C3.01474,5.0293596875,2.9124,5.0725196875,2.80788,5.1098596875C2.74591,5.1067096875,2.68412,5.1188396875,2.62795,5.1451796875L2.62795,5.1431896875ZM7.06634,0.1683186875C7.3729,0.4029006875,10.4918,2.9246596875,12.2245,4.3148196875C12.2913,4.3750596875,12.3476,4.4460096875,12.3911,4.5247396875C12.7576,5.3104596875,13.1375,6.1001696875,13.4907,6.8985496875C13.5679,7.0209896875,13.5729,7.1755896875,13.5038,7.3027696875C13.4347,7.4299496875,13.3022,7.5098496875,13.1575,7.5116596875C12.651,7.6096296875,12.1245,7.7222496875,11.618,7.8195496875C10.9783,7.9435096875,10.3385,8.0654596875,9.70539,8.2000796875C9.53212,8.2360696875,9.36551,8.2620596875,9.18558,8.3107096875C9.05483,8.3501796875,8.913,8.3125296875,8.81904,8.2134096875L7.06634,6.7619296875C5.83345,5.7416396875,4.61389,4.7200096875,3.38101,3.6997096875C3.19222,3.5833696875,3.1302,3.3379696875,3.24106,3.1459096875C3.53429,2.4095096875,3.82751,1.6571096875,4.11408,0.9200466875C4.17515,0.7091466875,4.35097,0.5514206875,4.56725,0.5135276875C5.06706,0.4042336875,6.01339,0.1569896875,6.51321,0.0470291875C6.61928,0.0063945475,6.73398,-0.0064520025,6.84642,0.0097093375C6.92562,0.0541534875,6.99941,0.1075996875,7.06634,0.1689846875L7.06634,0.1683186875ZM5.42693,1.1679596875C5.45535,1.1880596875,5.48013,1.2128496875,5.50024,1.2412596875L9.83867,4.8212996875C9.89029,4.8594896875,9.95606,4.8731296875,10.0186,4.8586196875C10.3518,4.7719896875,10.6784,4.6726896875,11.0116,4.5753896875C11.0657,4.5546396875,11.1214,4.5383696875,11.1782,4.5267396875C10.825,4.2435096875,10.4918,3.9849396875,10.1586,3.7143696875C9.0123,2.7920396875,7.85939,1.8823696875,6.71314,0.9580326875C6.67402,0.9274726875,6.62843,0.9062716875,6.57985,0.8960556875C6.19999,0.9686956875,5.83345,1.0659896875,5.42693,1.1659596875L5.42693,1.1679596875Z" fill="url(#master_svg1_514_007966)" fill-opacity="1" style="mix-blend-mode:passthrough"/></g></g></svg>