<svg xmlns="http://www.w3.org/2000/svg" xmlns:xlink="http://www.w3.org/1999/xlink" fill="none" version="1.1" width="32" height="32" viewBox="0 0 32 32"><defs><clipPath id="master_svg0_210_43360"><rect x="0" y="0" width="32" height="32" rx="0"/></clipPath></defs><g clip-path="url(#master_svg0_210_43360)"><g><path d="M25.25006103515625,7.75L25.25006103515625,24.25L7.25006103515625,24.25L7.25006103515625,7.75L25.25006103515625,7.75ZM21.33456103515625,16.3375L16.26256103515625,20.558500000000002L12.96806103515625,17.9595L8.75006103515625,21.3705L8.75006103515625,22.75L23.75006103515625,22.75L23.75006103515625,18.341L21.33456103515625,16.3375ZM23.75006103515625,9.25L8.75006103515625,9.25L8.75006103515625,19.441499999999998L12.95656103515625,16.04L16.237061035156252,18.628L21.33356103515625,14.388L23.75006103515625,16.392L23.75006103515625,9.25ZM13.50006103515625,10.25C14.74270103515625,10.25,15.75006103515625,11.25736,15.75006103515625,12.5C15.75006103515625,13.74264,14.74270103515625,14.75,13.50006103515625,14.75C12.25742103515625,14.75,11.25006103515625,13.74264,11.25006103515625,12.5C11.25006103515625,11.25736,12.25742103515625,10.25,13.50006103515625,10.25ZM13.50006103515625,11.75C13.08585103515625,11.75,12.75006103515625,12.08579,12.75006103515625,12.5C12.75006103515625,12.91421,13.08585103515625,13.25,13.50006103515625,13.25C13.91427103515625,13.25,14.25006103515625,12.91421,14.25006103515625,12.5C14.25006103515625,12.08579,13.91427103515625,11.75,13.50006103515625,11.75Z" fill="#FFFFFF" fill-opacity="1" style="mix-blend-mode:passthrough"/></g></g></svg>