<svg xmlns="http://www.w3.org/2000/svg" xmlns:xlink="http://www.w3.org/1999/xlink" fill="none" version="1.1" width="24" height="24" viewBox="0 0 24 24"><defs><clipPath id="master_svg0_140_030822"><rect x="0" y="0" width="24" height="24" rx="0"/></clipPath></defs><g clip-path="url(#master_svg0_140_030822)"><g><path d="M10.380802656250001,5.89545965625Q9.29101265625,6.18347765625,8.37436265625,6.82569265625Q7.48960265625,7.44417265625,6.8579926562499995,8.32845265625Q6.22742265625,9.21016265625,5.92582665625,10.255712656250001Q5.62423005625,11.30127265625,5.68999635625,12.37766265625Q5.70652745625,12.65405265625,5.91424965625,12.837822656250001Q6.12178365625,13.02141265625,6.39857265625,13.00489265625Q6.67534665625,12.98836265625,6.85926265625,12.78081265625Q7.04301265625,12.57345265625,7.02647265625,12.29688265625Q6.91904265625,10.530732656249999,7.96406265625,9.08665265625Q9.00916265625,7.64247265625,10.72345265625,7.18830265625Q12.03280265625,6.84178265625,13.33370265625,7.20277265625Q14.55063265625,7.54046265625,15.45264265625,8.41069265625L14.55248265625,8.894602656250001L17.573622656250002,10.76022265625L17.681722656250003,7.21347265625L16.67862265625,7.75288265625Q15.59772265625,6.56265465625,14.06425265625,6.03003165625Q12.245912656249999,5.40177065625,10.380802656250001,5.89545965625ZM5.80748565625,12.37049265625C5.82566165625,12.67439265625,6.08740065625,12.90565265625,6.39155165625,12.88748265625C6.08740265625,12.90561265625,5.82566365625,12.67436265625,5.80748565625,12.37049265625ZM10.69328265625,7.07462265625C12.446362656249999,6.61066965625,14.28860265625,7.11045265625,15.56126265625,8.35230265625C15.59053265625,8.38086265625,15.61949265625,8.40981265625,15.64815265625,8.43915265625C14.37338265625,7.13391265625,12.48668265625,6.59996765625,10.69328265625,7.07462265625ZM6.31737465625,16.78632265625L6.49690665625,16.69002265625L7.32046265625,16.24822265625Q8.40211265625,17.439422656250002,9.93497265625,17.970022656250002Q11.75322265625,18.59822265625,13.61831265625,18.104522656249998Q14.33384265625,17.91512265625,14.97647265625,17.57282265625Q15.30436265625,17.39902265625,15.62465265625,17.17562265625Q16.50782265625,16.558222656250003,17.13982265625,15.67528265625Q17.77052265625,14.79431265625,18.07282265625,13.74983265625Q18.37512265625,12.705002656249999,18.31032265625,11.62970265625Q18.29382265625,11.35320265625,18.08602265625,11.16944265625Q17.87852265625,10.98584265625,17.60172265625,11.00237265625Q17.32502265625,11.018902656249999,17.14102265625,11.22645265625Q16.95732265625,11.43381265625,16.97382265625,11.710382656250001Q17.078622656249998,13.47271265625,16.033022656249997,14.91508265625Q14.98730265625,16.357522656249998,13.27561265625,16.811722656249998Q11.966292656250001,17.15822265625,10.66540265625,16.79722265625Q9.44848265625,16.45952265625,8.54646265625,15.58930265625L9.44662265625,15.10539265625L6.42551365625,13.23977265625L6.31737465625,16.78632265625Z" fill-rule="evenodd" fill="#FFFFFF" fill-opacity="1"/></g></g></svg>