<svg xmlns="http://www.w3.org/2000/svg" xmlns:xlink="http://www.w3.org/1999/xlink" fill="none" version="1.1" width="16" height="16" viewBox="0 0 16 16"><defs><clipPath id="master_svg0_721_84877"><rect x="0" y="0" width="16" height="16" rx="0"/></clipPath></defs><g clip-path="url(#master_svg0_721_84877)"><g><path d="M3.242480516433716,13.311918309402467L3.242480516433716,2.700898309402466Q3.242480516433716,2.1458603094024657,3.596913516433716,1.7630043094024659Q3.945726516433716,1.3862183094024658,4.428600516433716,1.3862183094024658Q4.745090516433716,1.3862183094024658,5.028180516433716,1.5691043094024657L9.103000516433717,4.221128309402466L13.205360516433716,6.890558309402466Q13.810280516433716,7.284668309402466,13.810280516433716,8.005688309402466Q13.810280516433716,8.726718309402465,13.205280516433715,9.120888309402467L9.103030516433716,11.790218309402466L5.0277505164337155,14.443018309402467Q4.749940516433716,14.626618309402465,4.428600516433716,14.626618309402465Q3.945727516433716,14.626618309402465,3.596913516433716,14.249818309402466Q3.242480516433716,13.867018309402466,3.242480516433716,13.311918309402467ZM8.345820516433715,10.627368309402465L4.782490516433716,12.946418309402466L4.632490516433716,13.044018309402466L4.632490516433716,2.970278309402466L4.782490516433716,3.067938309402466L8.344400516433716,5.386928309402466L12.232570516433716,7.916968309402466L12.370050516433716,8.006438309402466L12.232600516433715,8.095958309402466L8.345820516433715,10.627368309402465Z" fill-rule="evenodd" fill="#FFFFFF" fill-opacity="1"/></g></g></svg>
