<svg xmlns="http://www.w3.org/2000/svg" xmlns:xlink="http://www.w3.org/1999/xlink" fill="none" version="1.1" width="16" height="16" viewBox="0 0 16 16"><defs><clipPath id="master_svg0_721_84790"><rect x="0" y="0" width="16" height="16" rx="0"/></clipPath><linearGradient x1="0.11309814453125" y1="0.02159287966787815" x2="1.0784460672285752" y2="1.0626265319862807" id="master_svg1_721_92162"><stop offset="0%" stop-color="#487FFF" stop-opacity="1"/><stop offset="100%" stop-color="#1C55E2" stop-opacity="1"/></linearGradient></defs><g clip-path="url(#master_svg0_721_84790)"><g><path d="M1.4140625,14.640014922332764L3.9561825,14.640014922332764L3.9561825,11.761614922332763L6.1806025,11.761614922332763L6.1806025,14.640014922332764L8.7227225,14.640014922332764L8.7227225,14.638514922332764L14.5872625,14.638514922332764L14.5872625,9.384714922332764L8.7227225,5.881914922332764L8.7227225,2.4678149223327637C8.7227225,1.9155299223327638,8.275012499999999,1.4678149223327637,7.7227225,1.4678149223327637L2.4140625,1.4678149223327637C1.8617775,1.4678149223327637,1.4140625,1.9155299223327638,1.4140625,2.4678149223327637L1.4140625,14.640014922332764Z" fill-rule="evenodd" fill="url(#master_svg1_721_92162)" fill-opacity="1" style="mix-blend-mode:passthrough"/></g><g><path d="M7.08963,8.46479C7.19201,8.36241,7.19201,8.194320000000001,7.08963,8.0927L6.96051,7.96358C6.85813,7.8612,6.81992,7.68929,6.87646,7.58233C6.93224,7.474600000000001,7.14693,7.1667000000000005,7.29133,7.1667000000000005L7.47317,7.1667000000000005C7.61758,7.1667000000000005,7.73676,7.0482700000000005,7.73676,6.9038699999999995L7.73676,6.55241C7.73676,6.40801,7.61834,6.288819999999999,7.47317,6.288819999999999L7.29133,6.288819999999999C7.14693,6.288819999999999,6.99718,6.192550000000001,6.95974,6.0756499999999996C6.9223,5.95876,6.85813,5.5935500000000005,6.96051,5.49117L7.08963,5.36205C7.19201,5.25967,7.19201,5.092343,7.08963,4.989962L6.84208,4.741651C6.7397,4.639271,6.57238,4.639271,6.47,4.741651L6.34087,4.870773C6.2384900000000005,4.973153,6.06659,5.011355,5.95886,4.954817C5.8511299999999995,4.899042,5.54322,4.684349,5.54322,4.539182L5.54322,4.357342C5.54322,4.212939,5.424799999999999,4.09375,5.27963,4.09375L4.92817,4.09375C4.7837700000000005,4.09375,4.66458,4.212175,4.66458,4.357342L4.66458,4.539182C4.66458,4.684348,4.56832,4.833335,4.45142,4.870773C4.3345199999999995,4.90821,3.96931,4.972389,3.86693,4.870009L3.73705,4.740887C3.63467,4.638506,3.467342,4.638506,3.364961,4.740887L3.117414,4.989198C3.015034,5.091579,3.015034,5.25967,3.117414,5.36128L3.246536,5.4904C3.348917,5.59279,3.387118,5.76469,3.33058,5.87242C3.274041,5.98015,3.060112,6.28806,2.914945,6.28806L2.732342,6.28806C2.587939,6.28806,2.46875,6.40648,2.46875,6.55165L2.46875,6.9031C2.46875,7.04751,2.5871750000000002,7.1659299999999995,2.732342,7.1659299999999995L2.914946,7.1659299999999995C3.059348,7.1659299999999995,3.209099,7.26144,3.246537,7.3791C3.2839739999999997,7.49599,3.348153,7.8612,3.245773,7.96358L3.116651,8.0927C3.01427,8.19509,3.01427,8.36317,3.116651,8.46479L3.3649620000000002,8.7131C3.467343,8.81548,3.63467,8.81548,3.73705,8.7131L3.8661700000000003,8.58398C3.96855,8.4816,4.14046,8.4434,4.24819,8.499939999999999C4.35591,8.555710000000001,4.663819999999999,8.7704,4.663819999999999,8.9148L4.663819999999999,9.09665C4.663819999999999,9.241050000000001,4.7822499999999994,9.35947,4.92741,9.35947L5.2788699999999995,9.35947C5.4232700000000005,9.35947,5.54246,9.241050000000001,5.54246,9.09665L5.54246,8.9148C5.54246,8.769639999999999,5.63873,8.620650000000001,5.75562,8.583210000000001C5.87252,8.54578,6.23773,8.4816,6.34011,8.58398L6.46923,8.7131C6.57161,8.81548,6.73894,8.81548,6.84132,8.7131L7.08963,8.46479ZM5.10314,7.86808C4.47281,7.86808,3.96167,7.35694,3.96167,6.72661C3.96167,6.09628,4.47281,5.58591,5.10314,5.58591C5.7334700000000005,5.58591,6.24461,6.097049999999999,6.24461,6.72661C6.24461,7.35694,5.7334700000000005,7.86808,5.10314,7.86808ZM9.18461,9.930209999999999L9.09445,9.930209999999999C9.02187,9.930209999999999,8.947,9.882069999999999,8.92866,9.824010000000001C8.909559999999999,9.765170000000001,8.877469999999999,9.58257,8.92866,9.53138L8.992840000000001,9.4672C9.04403,9.41601,9.04403,9.33197,8.992840000000001,9.28078L8.869060000000001,9.157C8.81787,9.10581,8.733830000000001,9.10581,8.68264,9.157L8.618459999999999,9.22118C8.56727,9.272369999999999,8.4817,9.29147,8.42745,9.263200000000001C8.37397,9.23494,8.21963,9.127970000000001,8.21963,9.05539L8.21963,8.96447C8.21963,8.89188,8.1608,8.83305,8.08822,8.83305L7.91249,8.83305C7.83991,8.83305,7.78108,8.89265,7.78108,8.96447L7.78108,9.056149999999999C7.78108,9.12874,7.73294,9.20285,7.67488,9.22195C7.61605,9.241050000000001,7.43344,9.272369999999999,7.38225,9.22195L7.31807,9.157C7.26688,9.10581,7.18284,9.10581,7.13165,9.157L7.00788,9.28154C6.95669,9.33273,6.95669,9.41678,7.00788,9.467970000000001L7.07205,9.53215C7.12324,9.58334,7.14235,9.66967,7.11408,9.72315C7.08581,9.77664,6.97884,9.93097,6.90626,9.93097L6.81534,9.93097C6.74276,9.93097,6.68393,9.99057,6.68393,10.062380000000001L6.68393,10.238109999999999C6.68393,10.3107,6.74276,10.369530000000001,6.81534,10.369530000000001L6.90626,10.369530000000001C6.97884,10.369530000000001,7.05295,10.41766,7.07205,10.47573C7.09116,10.53379,7.12324,10.7164,7.07205,10.76759L7.00711,10.83253C6.95592,10.88372,6.95592,10.96777,7.00711,11.01819L7.13165,11.14273C7.18284,11.19392,7.26688,11.19392,7.31807,11.14273L7.38225,11.07779C7.43344,11.0266,7.51901,11.0075,7.57326,11.03576C7.62674,11.064029999999999,7.78108,11.171,7.78108,11.24358L7.78108,11.3345C7.78108,11.40709,7.83991,11.46592,7.91249,11.46592L8.08898,11.46592C8.161570000000001,11.46592,8.2204,11.406320000000001,8.2204,11.3345L8.2204,11.24358C8.2204,11.171,8.26853,11.096119999999999,8.3266,11.07779C8.38543,11.05869,8.56727,11.02736,8.618459999999999,11.07855L8.683399999999999,11.14349C8.73459,11.19468,8.81864,11.19468,8.86983,11.14349L8.9936,11.01972C9.044789999999999,10.968530000000001,9.044789999999999,10.88449,8.9936,10.833300000000001L8.92942,10.769120000000001C8.87823,10.717929999999999,8.85913,10.63159,8.8874,10.578109999999999C8.91567,10.524619999999999,9.02187,10.37029,9.09445,10.37029L9.185369999999999,10.37029C9.25796,10.37029,9.316790000000001,10.31146,9.316790000000001,10.23888L9.316790000000001,10.06315C9.31602,9.989799999999999,9.25719,9.930209999999999,9.18461,9.930209999999999ZM8.00036,10.588799999999999C7.75739,10.588799999999999,7.56104,10.39245,7.56104,10.15025C7.56104,9.90729,7.75739,9.710930000000001,8.00036,9.710930000000001C8.242560000000001,9.710930000000001,8.43891,9.90729,8.43891,10.15025C8.43891,10.391680000000001,8.242560000000001,10.588799999999999,8.00036,10.588799999999999Z" fill="#FFFFFF" fill-opacity="1" style="mix-blend-mode:passthrough"/></g></g></svg>
