<svg xmlns="http://www.w3.org/2000/svg" xmlns:xlink="http://www.w3.org/1999/xlink" fill="none" version="1.1" width="24" height="24" viewBox="0 0 24 24"><defs><clipPath id="master_svg0_140_030991"><rect x="0" y="0" width="24" height="24" rx="4"/></clipPath></defs><g clip-path="url(#master_svg0_140_030991)"><g><path d="M12.1125,11.096589999999999C12.05536,11.0267,11.94464,11.0267,11.8875,11.096589999999999L9.8875,13.51193C9.81429,13.600570000000001,9.88036,13.731819999999999,10,13.731819999999999L11.31964,13.731819999999999L11.31964,17.863599999999998C11.31964,17.9386,11.38393,18,11.4625,18L12.53393,18C12.6125,18,12.67679,17.9386,12.67679,17.863599999999998L12.67679,13.73352L14,13.73352C14.1196,13.73352,14.1857,13.60227,14.1125,13.513639999999999L12.1125,11.096589999999999ZM17.3464,9.523299999999999C16.5286,7.4642,14.4446,6,12.00357,6C9.5625,6,7.4785699999999995,7.4625,6.66071,9.52159C5.13036,9.90511,4,11.236360000000001,4,12.81818C4,14.7017,5.59821,16.2273,7.56964,16.2273L8.28571,16.2273C8.36429,16.2273,8.42857,16.1659,8.42857,16.090899999999998L8.42857,15.06818C8.42857,14.99318,8.36429,14.93182,8.28571,14.93182L7.56964,14.93182C6.96786,14.93182,6.40179,14.70341,5.98036,14.2892C5.56071,13.8767,5.3375,13.32102,5.35714,12.74489C5.37321,12.294889999999999,5.53393,11.872160000000001,5.825,11.51591C6.12321,11.152840000000001,6.5410699999999995,10.888639999999999,7.00536,10.77102L7.68214,10.60227L7.93036,9.97841C8.083929999999999,9.58977,8.298210000000001,9.226700000000001,8.56786,8.89773C8.833929999999999,8.570450000000001,9.15,8.2858,9.50357,8.04716C10.2375,7.55455,11.101790000000001,7.29375,12.00357,7.29375C12.90536,7.29375,13.76964,7.55455,14.5036,8.04716C14.8589,8.2858,15.1732,8.57216,15.4393,8.89773C15.7089,9.226700000000001,15.9232,9.59148,16.0768,9.97841L16.3232,10.600570000000001L16.9982,10.77102C17.9661,11.01989,18.642899999999997,11.86023,18.642899999999997,12.81818C18.642899999999997,13.382390000000001,18.4125,13.914200000000001,17.9946,14.31307C17.5768,14.71193,17.0214,14.93182,16.4304,14.93182L15.7143,14.93182C15.6357,14.93182,15.5714,14.99318,15.5714,15.06818L15.5714,16.090899999999998C15.5714,16.1659,15.6357,16.2273,15.7143,16.2273L16.4304,16.2273C18.4018,16.2273,20,14.7017,20,12.81818C20,11.23807,18.8732,9.90852,17.3464,9.523299999999999Z" fill="#FFFFFF" fill-opacity="1" style="mix-blend-mode:passthrough"/></g></g></svg>
