<svg xmlns="http://www.w3.org/2000/svg" xmlns:xlink="http://www.w3.org/1999/xlink" fill="none" version="1.1" width="24" height="24" viewBox="0 0 24 24"><defs><clipPath id="master_svg0_122_8154"><rect x="0" y="0" width="24" height="24" rx="0"/></clipPath></defs><g clip-path="url(#master_svg0_122_8154)"><g><path d="M11.99998828125,0.00048828125C5.37281828125,0.00048828125,0.00048828125,5.37281828125,0.00048828125,11.99998828125C0.00048828125,18.62718828125,5.37281828125,23.99948828125,11.99998828125,23.99948828125C18.62698828125,23.99948828125,23.99948828125,18.62718828125,23.99948828125,11.99998828125C23.99948828125,5.37281828125,18.62698828125,0.00048828125,11.99998828125,0.00048828125ZM15.24688828125,18.73458828125C14.54118828125,18.97848828125,13.98668828125,19.16648828125,13.56458828125,19.29988828125C13.14828828125,19.43308828125,12.65968828125,19.49968828125,12.10508828125,19.49968828125C11.25478828125,19.49968828125,10.59108828125,19.31078828125,10.12098828125,18.94468828125C9.64446828125,18.56758828125,9.40928828125,18.10198828125,9.40928828125,17.52498828125C9.40928828125,17.30308828125,9.42726828125,17.08118828125,9.46312828125,16.84838828125C9.49986828125,16.61558828125,9.55973828125,16.34898828125,9.63247828125,16.06038828125L10.51248828125,13.27578828125C10.59108828125,13.00998828125,10.54658828125,12.76608828125,10.60128828125,12.52158828125C10.65558828125,12.28888828125,10.67938828125,12.06698828125,10.67938828125,11.87878828125C10.67938828125,11.51198828125,10.71298828125,11.26808828125,10.54978828125,11.13478828125C10.38058828125,10.99058828125,10.07378828125,11.03198828125,9.60906828125,11.03198828125C9.37927828125,11.03198828125,9.14423828125,11.06498828125,8.90934828125,11.12048828125C8.66815828125,11.18728828125,8.46326828125,11.13478828125,8.29406828125,11.20148828125L8.52984828125,10.33608828125C9.10236828125,10.12518828125,9.65688828125,9.94788828125,10.18218828125,9.80357828125C10.70698828125,9.64847828125,11.20688828125,9.58189828125,11.67158828125,9.58189828125C12.52178828125,9.58189828125,13.17378828125,9.75963828125,13.63178828125,10.12578828125C14.08998828125,10.49188828125,14.59668828125,10.96858828125,14.59668828125,11.54558828125C14.59668828125,11.66788828125,14.57788828125,11.87878828125,14.54788828125,12.18928828125C14.51798828125,12.48858828125,14.45748828125,12.76608828125,14.37288828125,13.02098828125L13.21508828125,15.79408828125C13.14828828125,16.01588828125,13.08248828125,16.27138828125,13.02788828125,16.55998828125C12.96728828125,16.83738828125,12.93738828125,17.05928828125,12.93738828125,17.20338828125C12.93738828125,17.56958828125,13.03388828125,17.82438828125,13.21508828125,17.95778828125C13.40208828125,18.09038828125,13.72178828125,18.15688828125,14.17368828125,18.15688828125C14.38488828125,18.15688828125,14.62648828125,18.12388828125,14.89738828125,18.05788828125C15.16838828125,17.99128828125,15.36148828125,17.93568828125,15.48208828125,17.87998828125L15.24688828125,18.73458828125ZM15.09048828125,7.48487828125C14.68638828125,7.82896828125,14.19238828125,7.99515828125,13.61928828125,7.99515828125C13.04658828125,7.99515828125,12.55198828125,7.82896828125,12.13558828125,7.48487828125C11.72548828125,7.15174828125,11.52058828125,6.74166828125,11.52058828125,6.25328828125C11.52058828125,5.77586828125,11.72548828125,5.36516828125,12.13558828125,5.02169828125C12.55198828125,4.67820828125,13.04668828125,4.50031828125,13.61928828125,4.50031828125C14.19168828125,4.50031828125,14.68638828125,4.67745828125,15.09048828125,5.02169828125C15.50048828125,5.36579828125,15.70588828125,5.77660828125,15.70588828125,6.25328828125C15.70588828125,6.74164828125,15.50048828125,7.15174828125,15.09048828125,7.48487828125Z" fill="#FF923B" fill-opacity="1" style="mix-blend-mode:passthrough"/></g></g></svg>