<svg xmlns="http://www.w3.org/2000/svg" xmlns:xlink="http://www.w3.org/1999/xlink" fill="none" version="1.1" width="18" height="18" viewBox="0 0 18 18"><defs><clipPath id="master_svg0_280_29827/385_77512"><rect x="0" y="0" width="18" height="18" rx="0"/></clipPath></defs><g clip-path="url(#master_svg0_280_29827/385_77512)"><g><path d="M8.99999875,0.8555145263671875C13.49806875,0.8555145263671875,17.14456875,4.502024526367188,17.14456875,9.000044526367187C17.14456875,13.498114526367187,13.49806875,17.14461452636719,8.99999875,17.14461452636719C4.50197875,17.14461452636719,0.85546875,13.498114526367187,0.85546875,9.000044526367187C0.85546875,4.502024526367188,4.50197875,0.8555145263671875,8.99999875,0.8555145263671875ZM11.84736875,5.110424526367187L7.70501875,6.601684526367188C7.19113875,6.786734526367187,6.78658875,7.191354526367188,6.60163875,7.705264526367188L5.11037875,11.847414526367187C5.00341875,12.144214526367188,5.07757875,12.476214526367187,5.30071875,12.699314526367187C5.52384875,12.922514526367188,5.85578875,12.996614526367187,6.15266875,12.889714526367188L10.29497875,11.398414526367187C10.80885875,11.213314526367187,11.21336875,10.808734526367187,11.39836875,10.294824526367188L12.88966875,6.152714526367188C12.99656875,5.855834526367188,12.92246875,5.5238945263671875,12.69926875,5.300754526367188C12.47616875,5.077624526367187,12.14416875,5.003464526367187,11.84736875,5.110424526367187ZM8.99999875,10.018114526367187C9.56225875,10.018114526367187,10.01806875,9.562304526367187,10.01806875,9.000044526367187C10.01806875,8.437784526367189,9.56225875,7.981984526367188,8.99999875,7.981974526367187C8.437738750000001,7.981984526367188,7.98193875,8.437784526367189,7.98193875,9.000044526367187C7.98193875,9.562304526367187,8.437738750000001,10.018114526367187,8.99999875,10.018114526367187Z" fill="#FFFFFF" fill-opacity="1" style="mix-blend-mode:passthrough"/></g></g></svg>