<svg xmlns="http://www.w3.org/2000/svg" xmlns:xlink="http://www.w3.org/1999/xlink" fill="none" version="1.1" width="16" height="16" viewBox="0 0 16 16"><defs><clipPath id="master_svg0_323_67481"><rect x="16" y="0" width="16" height="16" rx="0"/></clipPath></defs><g transform="matrix(0,1,-1,0,16,-16)" clip-path="url(#master_svg0_323_67481)"><g><path d="M27.381964853515626,2.34765625C27.413194853515627,2.34765625,27.443344853515626,2.35734724,27.468104853515626,2.37511415L29.891374853515625,4.10603625C29.974274853515624,4.16507625,29.974274853515624,4.28820625,29.891374853515625,4.34723625L27.468644853515627,6.07815625C27.423484853515625,6.11077625,27.363854853515626,6.11527625,27.314304853515623,6.08982625C27.264764853515626,6.06436625,27.233694853515622,6.01326625,27.233904853515625,5.95756625L27.233364853515624,4.77041625L24.230224853515626,4.77041625C24.144084853515626,4.77041625,24.050404853515623,4.864626250000001,24.031024853515625,5.00891625L24.027254853515625,5.06544625L24.027254853515625,10.93605625C24.027254853515625,11.09218625,24.110704853515625,11.20417625,24.197384853515626,11.22678625L24.229694853515625,11.23109625L27.233904853515625,11.23109625L27.233904853515625,10.04932625C27.233834853515624,9.99381625,27.264824853515627,9.94292625,27.314184853515627,9.91751625C27.363534853515624,9.892106250000001,27.422954853515627,9.896426250000001,27.468104853515626,9.92872625L29.891374853515625,11.65964625C29.974274853515624,11.71868625,29.974274853515624,11.84181625,29.891374853515625,11.90084625L27.468644853515627,13.63175625C27.423484853515625,13.66435625,27.363854853515626,13.66885625,27.314304853515623,13.64345625C27.264764853515626,13.61795625,27.233694853515622,13.56685625,27.233904853515625,13.51115625L27.233364853515624,12.30787625L24.230224853515626,12.30787625C23.537324853515624,12.30787625,22.995164853515625,11.72964625,22.953164853515624,11.02434625L22.950474853515626,10.93605625L22.949934853515625,8.53914625L21.219554853515625,8.53914625C20.857634853515624,9.56319625,19.608614853515625,9.94561625,18.735391853515626,9.29974625C17.862168853515627,8.65387625,17.862168853515627,7.34762625,18.735391853515626,6.70175625C19.608614853515625,6.05588625,20.857634853515624,6.43830625,21.219554853515625,7.46236625L22.949934853515625,7.46236625L22.949934853515625,5.06544625C22.949934853515625,4.35100625,23.464634853515626,3.74423625,24.144624853515623,3.6968662500000002L24.229694853515625,3.69363625L27.232834853515627,3.69363625L27.233904853515625,2.49571325C27.233904853515625,2.41387815,27.300124853515626,2.3476562018642,27.381964853515626,2.34765625Z" fill="#FFFFFF" fill-opacity="1" style="mix-blend-mode:passthrough"/></g></g></svg>