<svg xmlns="http://www.w3.org/2000/svg" xmlns:xlink="http://www.w3.org/1999/xlink" fill="none" version="1.1" width="16" height="16" viewBox="0 0 16 16"><defs><clipPath id="master_svg0_323_27122"><rect x="0" y="0" width="16" height="16" rx="0"/></clipPath></defs><g clip-path="url(#master_svg0_323_27122)"><g><path d="M8,2.860986C8.69417,2.860986,9.36708,2.996726,10.00004,3.26444C10.61188,3.52327,11.16157,3.8939,11.63377,4.366099999999999C12.106,4.8383,12.4767,5.387980000000001,12.7354,5.99982C13.0033,6.63291,13.139,7.30583,13.139,8C13.139,8.69417,13.0033,9.36708,12.7356,10.00004C12.4767,10.61188,12.1061,11.16157,11.6339,11.63377C11.1617,12.106,10.61202,12.4767,10.00018,12.7354C9.36708,13.0033,8.69417,13.139,8,13.139C7.30583,13.139,6.63291,13.0033,5.99996,12.7356C5.38812,12.4767,4.83843,12.1061,4.36623,11.6339C3.89404,11.1617,3.52327,10.61202,3.26457,10.00018C2.996726,9.36708,2.8609869999999997,8.69417,2.8609869999999997,8C2.8609869999999997,7.30583,2.996726,6.63291,3.26444,5.99996C3.52327,5.38812,3.8939,4.83843,4.366099999999999,4.36623C4.8383,3.89404,5.387980000000001,3.52327,5.99982,3.26457C6.63291,2.996726,7.30583,2.8609869999999997,8,2.860986ZM8,2C4.68628,1.999999794725,2,4.68628,2,8C2,11.31372,4.68628,14,8,14C11.31372,14,14,11.31372,14,8C14,4.68628,11.31372,1.999999794725,8,2Z" fill="#FFFFFF" fill-opacity="1" style="mix-blend-mode:passthrough"/></g><g><path d="M11.349940625,8.000170624999999Q11.349940625,8.164730625,11.333810625,8.328500625Q11.317680625000001,8.492270625,11.285570625,8.653670625Q11.253470625,8.815080625,11.205700625,8.972550625Q11.157930624999999,9.130030625,11.094950625,9.282070625Q11.031980625,9.434110624999999,10.954400625,9.579240625Q10.876830625,9.724370624999999,10.785400625000001,9.861200625Q10.693970625,9.998030625,10.589580625,10.125240625Q10.485180625,10.252450625,10.368810625,10.368810625Q10.252450625,10.485180625,10.125240625,10.589580625Q9.998030625,10.693970625,9.861200625,10.785400625000001Q9.724370624999999,10.876830625,9.579240625,10.954400625Q9.434110624999999,11.031980625,9.282070625,11.094950625Q9.130030625,11.157930624999999,8.972550625,11.205700625Q8.815080625,11.253470625,8.653670625,11.285580625Q8.492270625,11.317680625000001,8.328500625,11.333810625Q8.164730625,11.349940625,8.000170624999999,11.349940625Q7.835600625,11.349940625,7.671830625,11.333810625Q7.508060625000001,11.317680625000001,7.346660625,11.285580625Q7.185250625,11.253470625,7.027780625,11.205700625Q6.8703006250000005,11.157930624999999,6.718260625,11.094950625Q6.566220625,11.031980625,6.421090625,10.954400625Q6.275960625,10.876830625,6.139130625,10.785400625000001Q6.002300625,10.693970625,5.875090625,10.589580625Q5.7478806250000005,10.485180625,5.631516625,10.368810625Q5.515152625,10.252450625,5.410754625,10.125240625Q5.306356625,9.998030625,5.214929625,9.861200625Q5.123502625,9.724370624999999,5.045927625,9.579240625Q4.968352625,9.434110624999999,4.905376625,9.282070625Q4.842401625,9.130030625,4.794630625,8.972550625Q4.746860425,8.815080625,4.7147556250000004,8.653670625Q4.682650825,8.492270625,4.666520725,8.328500625Q4.650390625,8.164730625,4.650390625,8.000170624999999Q4.650390625,7.835600625,4.666520725,7.671830625Q4.682650825,7.508060625000001,4.7147556250000004,7.346660625Q4.746860425,7.185250625,4.794630625,7.027780625Q4.842401625,6.8703006250000005,4.905376625,6.718260625Q4.968352625,6.566220625,5.045927625,6.421090625Q5.123502625,6.275960625,5.214929625,6.139130625Q5.306356625,6.002300625,5.410754625,5.875090625Q5.515152625,5.7478806250000005,5.631516625,5.631516625Q5.7478806250000005,5.515152625,5.875090625,5.410754625Q6.002300625,5.306356625,6.139130625,5.214929625Q6.275960625,5.123502625,6.421090625,5.045927625Q6.566220625,4.968352625,6.718260625,4.905376625Q6.8703006250000005,4.842401625,7.027780625,4.794630625Q7.185250625,4.746860425,7.346660625,4.7147556250000004Q7.508060625000001,4.682650825,7.671830625,4.666520725Q7.835600625,4.650390625,8.000170624999999,4.650390625Q8.164730625,4.650390625,8.328500625,4.666520725Q8.492270625,4.682650825,8.653670625,4.7147556250000004Q8.815080625,4.746860425,8.972550625,4.794630625Q9.130030625,4.842401625,9.282070625,4.905376625Q9.434110624999999,4.968352625,9.579240625,5.045927625Q9.724370624999999,5.123502625,9.861200625,5.214929625Q9.998030625,5.306356625,10.125240625,5.410754625Q10.252450625,5.515152625,10.368810625,5.631516625Q10.485180625,5.7478806250000005,10.589580625,5.875090625Q10.693970625,6.002300625,10.785400625000001,6.139130625Q10.876830625,6.275960625,10.954400625,6.421090625Q11.031980625,6.566220625,11.094950625,6.718260625Q11.157930624999999,6.8703006250000005,11.205700625,7.027780625Q11.253470625,7.185260625,11.285570625,7.346660625Q11.317680625000001,7.508060625000001,11.333810625,7.671830625Q11.349940625,7.835600625,11.349940625,8.000170624999999Z" fill="#FFFFFF" fill-opacity="1"/></g></g></svg>