<svg xmlns="http://www.w3.org/2000/svg" xmlns:xlink="http://www.w3.org/1999/xlink" fill="none" version="1.1" width="15.99915885925293" height="15.99915885925293" viewBox="0 0 15.99915885925293 15.99915885925293"><defs><clipPath id="master_svg0_323_67471"><rect x="0" y="15.99915885925293" width="16" height="16" rx="0"/></clipPath></defs><g transform="matrix(0,-0.9999474287033081,0.9999474287033081,0,-15.99831776272572,15.99915885925293)" clip-path="url(#master_svg0_323_67471)"><g><path d="M8.310444443359376,20.69912635925293L11.284824443359375,20.69912635925293L11.284824443359375,21.95978635925293C11.464674443359375,22.13734635925293,11.704654443359376,22.13734635925293,11.885054443359374,21.95978635925293L14.165254443359375,20.479186359252928C14.345654443359376,20.36062635925293,14.345654443359376,20.12406635925293,14.165254443359375,19.94650635925293L11.885054443359374,18.40576535925293C11.704654443359376,18.22820695925293,11.464674443359375,18.22820695925293,11.284824443359375,18.40576535925293L11.284824443359375,19.51406635925293L7.710184443359375,19.51406635925293L5.3097144433593755,23.66091635925293L2.909244443359375,23.66091635925293L2.909244443359375,23.66434635925293L2.299815443359375,23.66434635925293C1.999684443359375,23.66434635925293,1.699554443359375,23.96046635925293,1.699554443359375,24.25658635925293C1.699554443359375,24.55270635925293,1.999685443359375,24.848836359252928,2.299815443359375,24.848836359252928L5.900804443359375,24.848836359252928L5.898514443359375,24.84482635925293L5.909974443359375,24.84482635925293L8.309874443359375,20.69912635925293L8.310444443359376,20.69912635925293ZM11.884554443359375,26.04133635925293C11.704654443359376,25.86377635925293,11.464674443359375,25.86377635925293,11.284824443359375,26.04133635925293L11.284824443359375,27.214366359252928L9.510394443359374,27.214366359252928L7.710184443359375,24.25315635925293L7.109924443359375,25.43706635925293Q8.790424443359374,28.22071635925293,8.910134443359375,28.39829635925293L11.284824443359375,28.39829635925293L11.284824443359375,29.59539635925293C11.464674443359375,29.77289635925293,11.704654443359376,29.77289635925293,11.884554443359375,29.59539635925293L14.165254443359375,28.11418635925293C14.345154443359375,27.995616359252928,14.345154443359375,27.75906635925293,14.165254443359375,27.581506359252927L11.885054443359374,26.040766359252927L11.884554443359375,26.04133635925293Z" fill="#FFFFFF" fill-opacity="1" style="mix-blend-mode:passthrough"/></g></g></svg>