<svg xmlns="http://www.w3.org/2000/svg" xmlns:xlink="http://www.w3.org/1999/xlink" fill="none" version="1.1" width="16" height="16" viewBox="0 0 16 16"><defs><clipPath id="master_svg0_323_27118"><rect x="0" y="0" width="16" height="16" rx="0"/></clipPath></defs><g clip-path="url(#master_svg0_323_27118)"><g><path d="M8,2.860986C8.69417,2.860986,9.36708,2.996726,10.00004,3.26444C10.61188,3.52327,11.16157,3.8939,11.63377,4.366099999999999C12.106,4.8383,12.4767,5.387980000000001,12.7354,5.99982C13.0033,6.63291,13.139,7.30583,13.139,8C13.139,8.69417,13.0033,9.36708,12.7356,10.00004C12.4767,10.61188,12.1061,11.16157,11.6339,11.63377C11.1617,12.106,10.61202,12.4767,10.00018,12.7354C9.36708,13.0033,8.69417,13.139,8,13.139C7.30583,13.139,6.63291,13.0033,5.99996,12.7356C5.38812,12.4767,4.83843,12.1061,4.36623,11.6339C3.89404,11.1617,3.52327,10.61202,3.26457,10.00018C2.996726,9.36708,2.8609869999999997,8.69417,2.8609869999999997,8C2.8609869999999997,7.30583,2.996726,6.63291,3.26444,5.99996C3.52327,5.38812,3.8939,4.83843,4.366099999999999,4.36623C4.8383,3.89404,5.387980000000001,3.52327,5.99982,3.26457C6.63291,2.996726,7.30583,2.8609869999999997,8,2.860986ZM8,2C4.68628,1.999999794725,2,4.68628,2,8C2,11.31372,4.68628,14,8,14C11.31372,14,14,11.31372,14,8C14,4.68628,11.31372,1.999999794725,8,2Z" fill="#FFFFFF" fill-opacity="1" style="mix-blend-mode:passthrough"/></g><g><path d="M5.277797208831787,5.277797208831787Q4.150224208831787,6.4053742088317875,4.150224208831787,8.000004208831786Q4.150224208831787,9.594634208831788,5.277797208831787,10.722204208831787Q6.4053742088317875,11.849774208831787,8.000004208831786,11.849774208831787Q9.594634208831788,11.849774208831787,10.722204208831787,10.722204208831787Q11.849774208831787,9.594634208831788,11.849774208831787,8.000004208831786Q11.849774208831787,6.4053742088317875,10.722204208831787,5.277797208831787Q9.594634208831788,4.150224208831787,8.000004208831786,4.150224208831787Q6.4053742088317875,4.150224208831787,5.277797208831787,5.277797208831787ZM5.984904208831788,10.015094208831787Q5.150224208831787,9.180414208831788,5.150224208831787,8.000004208831786Q5.150224208831787,6.819584208831787,5.984904208831788,5.984904208831788Q6.819584208831787,5.150224208831787,8.000004208831786,5.150224208831787Q9.180414208831788,5.150224208831787,10.015094208831787,5.984904208831788Q10.849774208831787,6.819584208831787,10.849774208831787,8.000004208831786Q10.849774208831787,9.180414208831788,10.015094208831787,10.015094208831787Q9.180414208831788,10.849774208831787,8.000004208831786,10.849774208831787Q6.819584208831787,10.849774208831787,5.984904208831788,10.015094208831787Z" fill-rule="evenodd" fill="#FFFFFF" fill-opacity="1"/></g></g></svg>