<svg xmlns="http://www.w3.org/2000/svg" xmlns:xlink="http://www.w3.org/1999/xlink" fill="none" version="1.1" width="16" height="15.984390258789062" viewBox="0 0 16 15.984390258789062"><defs><clipPath id="master_svg0_944_051770"><rect x="0" y="0" width="16" height="15.984390258789062" rx="0"/></clipPath></defs><g clip-path="url(#master_svg0_944_051770)"><g><path d="M13.11150390625,6.0781775C13.11150390625,3.2697075,10.816213906249999,0.9921875,7.98277390625,0.9921875C5.15021390625,0.9921875,2.85400390625,3.2697075,2.85400390625,6.0781775C2.85400390625,7.0061175,3.10855490625,7.8725975,3.54564390625,8.6216175L3.5401649062500002,8.6216175L7.98230390625,14.9797875L12.42625390625,8.6216175L12.42032390625,8.6216175C12.85880390625,7.8725975,13.11150390625,7.0061175,13.11150390625,6.0781775ZM7.98321390625,8.6206775C6.567153906250001,8.6206775,5.41884390625,7.4823775,5.41884390625,6.0777275C5.41884390625,4.6739774999999995,6.567153906250001,3.5347775,7.98321390625,3.5347775C9.40062390625,3.5347775,10.54759390625,4.6739774999999995,10.54759390625,6.0777275C10.54759390625,7.4823775,9.40062390625,8.6206775,7.98321390625,8.6206775Z" fill="#98A2B3" fill-opacity="1"/></g></g></svg>