<svg xmlns="http://www.w3.org/2000/svg" xmlns:xlink="http://www.w3.org/1999/xlink" fill="none" version="1.1" width="32" height="32" viewBox="0 0 32 32"><defs><clipPath id="master_svg0_944_002252"><rect x="0" y="0" width="32" height="32" rx="0"/></clipPath></defs><g clip-path="url(#master_svg0_944_002252)"><g><path d="M12.7371221875,15.469921875L6.3718221875,15.469921875C5.3741731875,15.469921875,4.5732421875,14.669021875,4.5732421875,13.671321875L4.5732421875,7.306021875C4.5732421875,6.322421875,5.3882251875,5.507443875,6.3718221875,5.507443875L12.7371221875,5.507443875C13.7347721875,5.507443875,14.5357021875,6.308371875,14.5357021875,7.306021875L14.5357021875,13.671321875C14.5357021875,14.669021875,13.7347721875,15.469921875,12.7371221875,15.469921875ZM12.7371221875,27.427621875L6.3718221875,27.427621875C5.3741731875,27.427621875,4.5732421875,26.626721875,4.5732421875,25.629121875L4.5732421875,19.263821874999998C4.5732421875,18.266121875,5.3741731875,17.465221874999997,6.3718221875,17.465221874999997L12.7371221875,17.465221874999997C13.7347721875,17.465221874999997,14.5357021875,18.266121875,14.5357021875,19.263821874999998L14.5357021875,25.629121875C14.5357021875,26.612721875,13.7347721875,27.427621875,12.7371221875,27.427621875ZM24.6948421875,27.427621875L18.3295421875,27.427621875C17.331942187499997,27.427621875,16.5310421875,26.626721875,16.5310421875,25.629121875L16.5310421875,19.263821874999998C16.5310421875,18.266121875,17.331942187499997,17.465221874999997,18.3295421875,17.465221874999997L24.6948421875,17.465221874999997C25.6925421875,17.465221874999997,26.4934421875,18.266121875,26.4934421875,19.263821874999998L26.4934421875,25.629121875C26.4934421875,26.612721875,25.6784421875,27.427621875,24.6948421875,27.427621875ZM26.9290421875,9.231071875L22.7698421875,5.071850875C22.0672421875,4.369278875,20.9291421875,4.369278875,20.2265421875,5.071850875L16.0673421875,9.231071875C15.3647421875,9.933641875,15.3647421875,11.071811875,16.0673421875,11.774381875L20.2265421875,15.933621875C20.9291421875,16.636121875,22.0672421875,16.636121875,22.7698421875,15.933621875L26.9290421875,11.774381875C27.6316421875,11.057751875000001,27.6316421875,9.919591875,26.9290421875,9.231071875ZM21.8705421875,14.008551875C21.6738421875,14.205271875,21.3366421875,14.205271875,21.1398421875,14.008551875L17.9923421875,10.861031875C17.7956421875,10.664321874999999,17.7956421875,10.327081875000001,17.9923421875,10.130361875L21.1398421875,6.982841875C21.3365421875,6.786121875,21.6738421875,6.786121875,21.8705421875,6.982841875L25.0180421875,10.130361875C25.2147421875,10.327081875000001,25.2147421875,10.664321874999999,25.0180421875,10.861031875L21.8705421875,14.008551875Z" fill="#1F2037" fill-opacity="1"/></g></g></svg>