<svg xmlns="http://www.w3.org/2000/svg" xmlns:xlink="http://www.w3.org/1999/xlink" fill="none" version="1.1" width="19.200000762939453" height="19.200000762939453" viewBox="0 0 19.200000762939453 19.200000762939453"><defs><clipPath id="master_svg0_944_013488"><rect x="0" y="0" width="19.200000762939453" height="19.200000762939453" rx="0"/></clipPath></defs><g clip-path="url(#master_svg0_944_013488)"><g><path d="M17.576509375,7.94813C16.001509374999998,7.94813,14.469609375,7.43625,13.209609375,6.48937L13.209609375,13.095C13.209609375,16.4681,10.610859375,19.2,7.404609375,19.2C4.198359375,19.2,1.599609375,16.4681,1.599609375,13.095C1.599609375,9.72188,4.198359375,6.99,7.404609375,6.99C7.725239375,6.99,8.036489375,7.01813,8.340239375,7.07063L8.340239375,10.5694C8.049609375,10.455,7.740239375,10.3969,7.428989375,10.3969C5.998359375,10.3969,4.837739375,11.6156,4.837739375,13.1213C4.837739375,14.625,5.998359375,15.8456,7.428989375,15.8456C8.857739375000001,15.8456,10.018359375,14.625,10.018359375,13.1213L10.018359375,0L13.256509375,0C13.256509375,2.52188,15.200909375,4.56563,17.599009375,4.56563L17.599009375,7.94625L17.576509375,7.94813Z" fill="#FFFFFF" fill-opacity="1"/></g></g></svg>