<svg xmlns="http://www.w3.org/2000/svg" xmlns:xlink="http://www.w3.org/1999/xlink" fill="none" version="1.1" width="32" height="32" viewBox="0 0 32 32"><defs><clipPath id="master_svg0_944_019249"><rect x="0" y="0" width="32" height="32" rx="0"/></clipPath></defs><g clip-path="url(#master_svg0_944_019249)"><g><path d="M28.6168,10.70231C28.4025,10.291360000000001,27.9015,9.34001,27.4529,8.623380000000001C27.1115,8.08689,26.6585,7.25251,26.5912,7.0973299999999995C26.4161,6.67858,25.884,6.28401,25.145,5.77714C25.0297,5.69761,24.9144,5.6180699999999995,24.7999,5.53385C24.4259,5.25312,24.0091,4.934969,23.4926,5.00983C22.6146,5.14863,21.7966,5.97443,21.8601,7.10591C21.8882,7.58392,22.138,8.04478,22.5792,8.396460000000001C23.0795,8.803519999999999,23.7268,9.0125,24.2715,8.90333L24.7718,8.472100000000001C24.9905,8.854199999999999,25.7606,10.115120000000001,25.7687,10.718679999999999C25.785,11.60297,26.0746,13.47213,26.1145,13.91661C25.745,13.81602,24.8989,13.78248,24.4658,13.94624C24.1599,14.0468,23.2783,14.4952,23.044,14.7299L22.6671,14.4656C22.1262,14.0889,21.5978,13.48538,21.0857,13.51034C20.629,13.53139,19.1753,13.35906,18.9366,13.4347C18.6307,13.17035,17.8961,12.1691,17.65,11.84236C17.657400000000003,11.83379,17.6619,11.82131,17.6693,11.81273C18.3292,10.83175,19.2226,8.90801,19.2226,8.16175C19.2226,7.1854499999999994,18.9802,4,15.8343,4C12.6884,4,12.446,7.18155,12.446,8.16175C12.446,8.90801,13.4991,10.76937,14.1583,11.754249999999999L14.1782,11.783100000000001C13.9321,12.10593,13.0062,13.32163,12.7002,13.58598C12.4623,13.51034,11.4491,13.48461,10.9924,13.46433C10.4677,13.4347,9.86468,13.8667,9.32447,14.2441L8.57734,14.7214C8.56995,14.726,8.56183,14.726,8.55739,14.7214C8.32682,14.4952,7.63586,13.90023,7.30996,13.8207C6.37291,13.58598,6.03888,13.67799,5.71741,13.90023C5.661989999999999,13.94156,5.83639,11.10078,5.852650000000001,10.207139999999999C5.86004,9.64959,6.42464,9.19341,6.65816,8.76999C6.72245,8.75283,7.36169,8.87448,7.60039,8.92516C8.104379999999999,9.02966,8.70889,8.727879999999999,9.10203,8.40504C9.60603,7.99019,9.90385,7.47475,9.931930000000001,6.95073C9.99549,5.84811,9.149329999999999,5.16111,8.244060000000001,5.01451C7.73932,4.934971,7.19468,5.31161,6.82148,5.59701C6.71063,5.68045,6.59535,5.76077,6.48006,5.83563C5.74106,6.34249,5.20529,6.7323900000000005,5.03458,7.15582C4.97103,7.311780000000001,4.56162,7.86855,4.2239,8.40504C3.77532,9.12245,3.3104899999999997,9.86325,3.09175,10.278880000000001C2.790237,10.86997,1.685432,15.8575,2.0867091,16.515700000000002C2.249289,16.7753,2.7665889999999997,16.930500000000002,4.95477,18.1922L5.3080099999999995,18.3973C5.812749999999999,18.6905,7.15107,19.0515,8.01275,19.005499999999998C8.17237,19.156,8.97049,20.2789,9.82478,21.7379L10.08343,22.1613C10.23788,22.4,10.30143,22.5045,10.30513,22.676C10.32138,22.9411,10.34947,25.7741,10.37681,26.9352C10.39092,27.5383,10.86581,28.0149,11.43727,27.9996L20.3031,27.9575C20.8753,27.9711,21.3498,27.493,21.3635,26.8892C21.3916,25.7273,21.3753,23.1626,21.3953,22.899C21.4071,22.7275,21.467,22.6222,21.6222,22.3875L22.6982,20.7952C23.5524,19.3323,24.188,19.11,24.3461,18.9587C25.2048,19.005499999999998,25.8995,18.8839,26.4079,18.5899L26.7538,18.3887C28.9464,17.1231,29.9596,16.8213,29.9832,16.5071C30.1576,14.2854,28.9227,11.29261,28.6161,10.70231L28.6168,10.70231Z" fill="#1F2037" fill-opacity="1"/></g></g></svg>