<svg xmlns="http://www.w3.org/2000/svg" xmlns:xlink="http://www.w3.org/1999/xlink" fill="none" version="1.1" width="28" height="28" viewBox="0 0 28 28"><defs><clipPath id="master_svg0_944_002799"><rect x="0" y="0" width="28" height="28" rx="0"/></clipPath></defs><g clip-path="url(#master_svg0_944_002799)"><g><path d="M14,0C6.27991,0,0,6.27991,0,14C0,16.7769,0.814435,19.4637,2.35443,21.7682C2.63443,22.187,3.20174,22.2977,3.62113,22.0196C4.04052,21.7396,4.15252,21.1723,3.87252,20.7529C2.534,18.7496,1.82609,16.4147,1.82609,14C1.82609,7.2873,7.2873,1.82609,14,1.82609C20.7127,1.82609,26.1739,7.2873,26.1739,14C26.1739,20.7127,20.7127,26.1739,14,26.1739C11.578,26.1739,9.23696,25.4623,7.22948,24.1165C6.81252,23.8365,6.24461,23.9479,5.96278,24.3667C5.68217,24.7855,5.79417,25.3522,6.21296,25.6334C8.52174,27.1813,11.2146,28,14,28C21.7201,28,28,21.7201,28,14C28,6.27991,21.7201,0,14,0ZM8.83978,14.6313C8.45204,14.6313,8.25726,14.4621,8.25726,14.1236L8.25726,12.7419C8.25726,12.3645,8.45204,12.1764,8.83978,12.1764L12.6344,12.1764C12.5407,13.0529,12.31,13.871,11.9441,14.6313L8.83978,14.6313ZM14.3406,12.1764L19.1505,12.1764C19.3623,12.1764,19.5254,12.2178,19.6417,12.3012C19.7415,12.373,19.7914,12.5203,19.7914,12.7419L19.7914,14.2235C19.7914,14.4949,19.579,14.6313,19.1505,14.6313L13.7915,14.6313C14.0362,13.8655,14.2194,13.0468,14.3406,12.1764ZM9.14778,17.9852C8.47152,18.4508,7.49152,18.8757,6.21022,19.2586L6.21022,20.6981C6.73796,20.6428,7.15856,20.5788,7.47509,20.5064C8.463,20.2623,9.41378,19.8107,10.3293,19.1502C11.3068,18.4344,12.2053,17.441,13.0258,16.1707L14.2742,16.1707L14.2742,19.0005C14.2742,19.5775,14.4465,20.0018,14.7898,20.2739C15.1014,20.5235,15.4977,20.6482,15.9798,20.6482L21.5974,20.6482L21.5974,19.0668L16.5124,19.0668C16.2914,19.0668,16.1301,19.0254,16.0303,18.9421C15.936,18.8641,15.8921,18.6955,15.897,18.4344L15.9049,16.1707L19.7001,16.1707C20.1993,16.1707,20.6107,16.0179,20.9315,15.7129C21.2036,15.4524,21.3393,15.0555,21.3393,14.5229L21.3393,12.2848C21.3393,11.7406,21.1896,11.3303,20.8901,11.0528C20.7069,10.8811,20.4214,10.7502,20.0331,10.662L20.4738,9.64667C20.6022,9.35206,20.6655,9.10554,20.6655,8.90589C20.6655,8.50597,20.5048,8.1511,20.1828,7.84067C19.856,7.51319,19.4061,7.34945,18.8346,7.34945L9.83013,7.34945L10.0712,6.52589L8.50683,6.52589C8.22378,7.31354,7.93283,7.89058,7.63335,8.25641C7.273,8.70623,6.85056,8.97771,6.36787,9.07206L6.36787,10.662C7.00639,10.4842,7.53657,10.2487,7.95778,9.95406C8.3297,9.69354,8.6937,9.33867,9.04796,8.88884L18.1936,8.88884C18.5217,8.88884,18.7262,8.91137,18.8096,8.9558C18.938,9.02215,19.0007,9.1165,19.0007,9.23884C19.0007,9.36058,18.9466,9.54624,18.8346,9.79641L18.4681,10.6035L8.91465,10.6035C8.0777,10.6035,7.5037,10.7478,7.19204,11.0363C6.86517,11.3468,6.70083,11.7905,6.70083,12.3675L6.70083,14.4401C6.70083,15.3002,7.0563,15.8493,7.76604,16.0879C7.93283,16.1427,8.26943,16.1707,8.77343,16.1707L11.0287,16.1707C10.3792,16.9754,9.75282,17.5804,9.14778,17.9852Z" fill="#FFFFFF" fill-opacity="1"/></g></g></svg>