<svg xmlns="http://www.w3.org/2000/svg" xmlns:xlink="http://www.w3.org/1999/xlink" fill="none" version="1.1" width="28" height="28" viewBox="0 0 28 28"><defs><clipPath id="master_svg0_944_002812"><rect x="0" y="0" width="28" height="28" rx="0"/></clipPath></defs><g clip-path="url(#master_svg0_944_002812)"><g><path d="M27.9737,6.37022C27.8951,4.997987,26.7944,6.57813,26.3424,6.7860499999999995C25.6152,7.1395,24.9273,6.95238,24.2,7.18108C23.748,7.32662,23.4138,7.72166,23.0011,7.92957C22.7652,7.680070000000001,22.7456,7.30583,22.5687,6.9939599999999995C22.0773,6.18309,21.0553,6.12072,20.5443,5.4554C20.1708,4.977195,20.2495,4.374245,19.8367,4L19.7188,4C19.0309,4.166331,18.8343,5.26827,18.7557,5.95439C18.5592,7.90878,19.4633,9.67604,20.9177,10.79878C20.9177,12.04626,20.4067,12.1918,19.424,11.173020000000001C17.9892,9.71763,16.573999999999998,8.28302,15.0213,7.014749999999999C14.6872,6.6197099999999995,14.5693,6.22468,14.8837,5.74648C16.5347,4.353453,14.5889,4.0831658,13.4096,4.45741C11.6997,5.26827,10.24525,5.43461,8.39771,5.12273C4.66333,5.12273,1.282738,8.428560000000001,1.0665378,12.35813C0.9879194,13.23137,0.9682647,14.1046,1.0665378,14.9778L1.0665378,15.1442C1.361357,19.9262,5.31194,24.3963,9.81285,24.8953L10.55972,24.9577C12.2304,25.1032,13.9207,24.8745,15.493,24.2508L15.5323,24.2508C15.7879,24.1468,16.023699999999998,24.0429,16.2596,23.9181C16.5544,23.7518,17.714,22.7954,17.8123,22.7746C17.8909,22.7746,18.5395,23.0449,18.7754,23.1073C19.4829,23.232,22.5097,23.5439,22.3918,22.3172C22.3328,21.6935,20.505,21.2776,20.0136,21.0073C19.935,20.9658,19.7777,21.0073,19.8564,20.7994C20.0136,20.4252,21.0553,19.364800000000002,21.3894,18.8658C22.8439,16.7451,23.5514,14.2501,23.5907,11.67202C23.5907,11.02748,24.4162,11.15223,24.9273,10.944320000000001C26.6372,10.2582,28.1113,8.386980000000001,27.9934,6.34943L27.9737,6.37022ZM17.262,22.6291C14.5693,22.9825,13.6652,21.3192,11.68,20.0509C11.0511,19.655900000000003,9.45906,18.554000000000002,9.85216,20.2173C9.98974,20.8202,10.81523,21.5063,9.97008,21.9014C9.06597,22.338,7.59187,21.4232,6.86465,20.8618C4.918839999999999,19.3232,3.40544,16.6204,2.99269,14.0838C2.9140699999999997,13.56403,2.5799399999999997,11.85914,3.16958,11.67202C5.19401,11.04828,8.43702,12.54525,10.06836,13.81353C12.7414,15.8927,13.9207,19.364800000000002,16.377499999999998,21.7143C16.5544,21.8806,17.2816,22.3588,17.3406,22.4212C17.3406,22.4212,17.3799,22.6914,17.2816,22.6707L17.262,22.6291ZM15.7289,13.93828C16.1809,14.4165,15.2965,14.8531,15.1589,14.3541C15.0803,14.0422,15.4537,13.6472,15.7289,13.93828ZM18.8343,16.017400000000002C18.2643,16.6619,16.6723,16.142200000000003,16.4954,15.3313C16.357799999999997,14.7076,16.731299999999997,13.89669,16.082700000000003,13.50166C15.7289,13.29374,14.5496,13.27295,15.0999,12.64921C15.8468,11.79677,17.2423,12.94029,17.7926,13.60561C18.1268,14.0006,19.2274,15.6016,18.8343,16.0382L18.8343,16.017400000000002Z" fill="#FFFFFF" fill-opacity="1" style="mix-blend-mode:passthrough"/></g></g></svg>