<svg xmlns="http://www.w3.org/2000/svg" xmlns:xlink="http://www.w3.org/1999/xlink" fill="none" version="1.1" width="24" height="24" viewBox="0 0 24 24"><defs><clipPath id="master_svg0_944_002803"><rect x="0" y="0" width="24" height="24" rx="0"/></clipPath></defs><g clip-path="url(#master_svg0_944_002803)"><g><g><path d="M9.6958,4.96967C7.92036,3.3819600000000003,5.19884,3.49294,3.5595,5.2199C1.92016,6.94685,1.95991,9.66096,3.64913,11.3395L12.0001,19.6605L20.3511,11.33951C22.0455,9.66177,22.0877,6.94339,20.4461,5.2142599999999995C18.8045,3.48513,16.0786,3.3765799999999997,14.3038,4.96967L12.7867,6.3222C12.3386,6.72199,11.6605,6.72199,11.2123,6.3222L9.6958,4.96967ZM1.80037,3.66006C4.30708,0.962641,8.52093,0.765642,11.2696,3.21725L12.0001,3.86765L12.7306,3.2166699999999997C15.4805,0.765053,19.6937,0.962641,22.1999,3.66006C24.6682,6.3169,24.5885,10.44213,22.0199,13.0025L12.8339,22.1556C12.373,22.6148,11.626,22.6148,11.1651,22.1556L1.98034,13.0025C-0.588917,10.44213,-0.667989,6.31632,1.80037,3.66006Z" fill="#FFFFFF" fill-opacity="1"/></g><g><path d="M13.825669999999999,5.1427499999999995L10.492090000000001,8.59323C10.1634,8.933489999999999,10.1634,9.48504,10.492090000000001,9.8253L10.520150000000001,9.85434C10.849,10.194880000000001,11.382390000000001,10.194880000000001,11.71124,9.85434L13.12853,8.387599999999999C13.56691,7.93406,14.277519999999999,7.93406,14.715900000000001,8.387599999999999L20,13.8561L18.412599999999998,15.5L13.92221,10.85289L13.29916,11.497679999999999C12.09343,12.74606,10.13796,12.74606,8.932226,11.497679999999999L8.904161,11.468630000000001C7.698613,10.22096,7.698613,8.19815,8.904161,6.950480000000001L12.238299999999999,3.5L13.825669999999999,5.14391L13.825669999999999,5.1427499999999995Z" fill="#FFFFFF" fill-opacity="1"/></g></g></g></svg>