<svg xmlns="http://www.w3.org/2000/svg" xmlns:xlink="http://www.w3.org/1999/xlink" fill="none" version="1.1" width="28" height="28" viewBox="0 0 28 28"><defs><clipPath id="master_svg0_944_002808"><rect x="0" y="0" width="28" height="28" rx="0"/></clipPath></defs><g clip-path="url(#master_svg0_944_002808)"><g><path d="M27,13.9999C26.9999,6.83169,21.1681,1,14,1C6.8318,1,1,6.8318,1,14C1,21.1682,6.8318,27,14,27C21.1682,27,27,21.1682,27,13.9999ZM20.0735,12.5661L18.4507,12.6487C18.4806,13.2386,18.4958,13.6933,18.4958,14C18.4958,15.4734,18.3812,16.8485,18.1802,18.0975C16.9092,18.3035,15.5061,18.4215,14,18.4215C12.4944,18.4215,11.0916,18.3037,9.82083,18.0977C9.61348,16.8062,9.50417,15.4242,9.50417,14C9.50417,12.5275,9.61857,11.1532,9.81953,9.90479C11.1505,9.68812,12.5539,9.57838,14,9.57838C20.7033,9.57838,25.3749,11.9085,25.375,13.9998C25.375,15.4017,23.2754,16.911,19.8719,17.7538C20.0354,16.552,20.1208,15.2901,20.1208,13.9999C20.1208,13.666,20.105,13.1835,20.0735,12.5661ZM14,25.375C12.9409,25.375,11.8444,24.2518,10.99137,22.2935C10.66279,21.5391,10.38622,20.6961,10.16273,19.7891C11.3895,19.9579,12.6796,20.0466,14,20.0466C15.3204,20.0466,16.6107,19.9579,17.8375,19.7891C16.9848,23.2413,15.437,25.375,14,25.375ZM14,2.625C15.4993,2.625,17.0099,4.87021,17.8353,8.210560000000001C16.6092,8.04199,15.3195,7.95338,14,7.95338C12.6831,7.95338,11.3974,8.03961,10.16273,8.21012C11.0155,4.75841,12.5631,2.625,14,2.625ZM24.8549,10.59725C24.312,10.21765,23.6714,9.86719,22.9385,9.55237C21.9372,9.12229,20.8,8.77422,19.5719,8.512920000000001C19.1002,6.27648,18.3676,4.4526900000000005,17.4576,3.16288C20.9718,4.28662,23.7485,7.07533,24.8549,10.59725ZM10.54688,3.16147C10.1676,3.69988,9.81693,4.33353,9.50157,5.05773C8.45528,7.4597,7.87917,10.63549,7.87917,14C7.87917,15.2903,7.96464,16.5522,8.12812,17.7539C4.72461,16.9112,2.625,15.4019,2.625,14C2.625,12.8355,4.0413499999999996,11.6261,6.41374,10.76484L5.85918,9.23734C4.7859300000000005,9.62702,3.87798,10.08169,3.14782,10.5888C4.2565,7.06938,7.0333,4.28348,10.54688,3.16147ZM3.145,17.4026C3.68786,17.7824,4.32854,18.1327,5.06153,18.4476C6.06274,18.8776,7.19981,19.2258,8.42755,19.487C8.69459,20.7492,9.0548,21.9168,9.50146,22.9424C9.81693,23.6666,10.16749,24.3002,10.54677,24.8388C7.03059,23.7158,4.25195,20.9262,3.145,17.4026ZM17.4531,24.8386C17.8324,24.3001,18.1831,23.6665,18.4984,22.9423C18.9451,21.9167,19.3053,20.7492,19.5723,19.4869C20.8002,19.2256,21.9373,18.8775,22.9384,18.4474C23.6715,18.1326,24.3121,17.7821,24.8549,17.4024C23.7482,20.9261,20.9695,23.7158,17.4531,24.8386Z" fill="#FFFFFF" fill-opacity="1"/></g></g></svg>