<svg xmlns="http://www.w3.org/2000/svg" xmlns:xlink="http://www.w3.org/1999/xlink" fill="none" version="1.1" width="16" height="16" viewBox="0 0 16 16"><defs><clipPath id="master_svg0_944_051764"><rect x="0" y="0" width="16" height="16" rx="0"/></clipPath></defs><g clip-path="url(#master_svg0_944_051764)"><g><path d="M4.4125,7.1875C5.375,9.075,6.925,10.625,8.8125,11.5875L10.275,10.125C10.45,9.95,10.725,9.8875,10.95,9.9625C11.7,10.2125,12.5125,10.3375,13.3375,10.3375C13.7,10.3375,14,10.6375,14,11L14,13.325C14,13.6875,13.7,13.9875,13.3375,13.9875C7.075,14,2,8.925,2,2.6625C2,2.3,2.3,2,2.6625,2L5,2C5.3625,2,5.6625,2.2875,5.6625,2.65C5.6625,3.4875,5.8,4.2875,6.0375,5.0375C6.1125,5.275,6.0625,5.525,5.875,5.7125L4.4125,7.1875Z" fill="#98A2B3" fill-opacity="1"/></g></g></svg>