<svg xmlns="http://www.w3.org/2000/svg" xmlns:xlink="http://www.w3.org/1999/xlink" fill="none" version="1.1" width="24" height="24" viewBox="0 0 24 24"><defs><clipPath id="master_svg0_944_008185"><rect x="0" y="24" width="24" height="24" rx="0"/></clipPath></defs><g transform="matrix(0,-1,1,0,-24,24)" clip-path="url(#master_svg0_944_008185)"><g><path d="M6.5295074374999995,32.47031228125L11.9990234375,37.93982828125L17.4682234375,32.47062028125L17.4687234375,32.47015828125Q17.574223437500002,32.36466928125,17.7120234375,32.30757828125Q17.8498234375,32.25048828125,17.9990234375,32.25048828125Q18.072923437500002,32.25048828125,18.1453234375,32.26489928125Q18.2178234375,32.27931028125,18.2860234375,32.30757828125Q18.3543234375,32.33584728125,18.4157234375,32.37688628125Q18.477123437499998,32.41792528125,18.5293234375,32.47015828125Q18.5816234375,32.52239128125,18.6226234375,32.58381028125Q18.6636234375,32.64523028125,18.6919234375,32.71347528125Q18.7202234375,32.78172128125,18.734623437499998,32.85417028125Q18.7490234375,32.92661978125,18.7490234375,33.00048828125Q18.7490234375,33.14967228125,18.6919234375,33.28750128125Q18.6348234375,33.42532928125,18.5293234375,33.53081828125L12.5293534375,39.53081828125Q12.4238634375,39.63630828125,12.2860334375,39.69339828125Q12.148203437500001,39.75048828125,11.9990234375,39.75048828125Q11.849843437499999,39.75048828125,11.7120134375,39.69339828125Q11.5741834375,39.63630828125,11.4686934375,39.53081828125L5.4688474375,33.53097228125L5.4686934375,33.53081828125Q5.3632044375,33.42532928125,5.3061134375,33.28750128125Q5.2490234375,33.14967228125,5.2490234375,33.00048828125Q5.2490234375,32.92661978125,5.2634344375,32.85417028125Q5.2778454375,32.78172128125,5.3061134375,32.71347528125Q5.3343824375,32.64523028125,5.3754214375,32.58381028125Q5.4164604375,32.52239128125,5.4686934375,32.47015828125Q5.5209264375,32.41792528125,5.5823454375,32.37688628125Q5.6437654375,32.33584728125,5.7120104375,32.30757828125Q5.7802564375,32.27931028125,5.8527054375,32.26489928125Q5.9251549375,32.25048828125,5.9990234375,32.25048828125Q6.1482074375,32.25048828125,6.2860364375,32.30757828125Q6.4238644375,32.36466928125,6.5293534375,32.47015828125L6.5295074374999995,32.47031228125Z" fill-rule="evenodd" fill="#1F2037" fill-opacity="1"/></g></g></svg>