<svg xmlns="http://www.w3.org/2000/svg" xmlns:xlink="http://www.w3.org/1999/xlink" fill="none" version="1.1" width="32" height="32" viewBox="0 0 32 32"><defs><clipPath id="master_svg0_944_019214"><rect x="0" y="0" width="32" height="32" rx="0"/></clipPath></defs><g clip-path="url(#master_svg0_944_019214)"><g><path d="M16,4C22.6273,4,28,9.3727,28,16C28,22.6273,22.6273,28,16,28C9.3727,28,4,22.6273,4,16C4,9.3727,9.3727,4,16,4ZM20.1952,10.2691L14.092,12.4663C13.33486,12.73895,12.73881,13.33511,12.4663,14.0923L10.2691,20.1952C10.111509999999999,20.6326,10.220780000000001,21.1217,10.54954,21.4505C10.8783,21.7792,11.36738,21.8885,11.8048,21.7309L17.908,19.5337C18.665100000000002,19.2611,19.261200000000002,18.6649,19.5337,17.9077L21.7309,11.8048C21.8885,11.36738,21.7792,10.8783,21.4505,10.54954C21.1217,10.220780000000001,20.6326,10.111509999999999,20.1952,10.2691ZM16,17.5C16.828400000000002,17.5,17.5,16.828400000000002,17.5,16C17.5,15.1716,16.828400000000002,14.5,16,14.5C15.1716,14.5,14.5,15.1716,14.5,16C14.5,16.828400000000002,15.1716,17.5,16,17.5Z" fill="#1F2037" fill-opacity="1"/></g></g></svg>