<svg xmlns="http://www.w3.org/2000/svg" xmlns:xlink="http://www.w3.org/1999/xlink" fill="none" version="1.1" width="25" height="24" viewBox="0 0 25 24"><defs><clipPath id="master_svg0_944_013483"><rect x="0" y="0" width="25" height="24" rx="0"/></clipPath></defs><g clip-path="url(#master_svg0_944_013483)"><g><path d="M15.2084,17.6861C13.0666,18.3956,10.75074,18.4636,8.56776,17.8811L6.66151,18.793100000000003L6.02557,19.1171L5.95526,19.1831C5.88495,19.2476,5.7427600000000005,19.2476,5.60213,19.2476C5.10682,19.3136,4.68338,18.9881,4.68338,18.5321L4.68338,18.2726L4.966200000000001,16.3211C4.33026,15.8006,3.76463,15.1496,3.27088,14.4986C1.776635,12.49362,1.585089,9.85195,2.7755710000000002,7.66758C3.1287000000000003,6.9520800000000005,3.6943200000000003,6.30258,4.25995,5.71608C5.81307,4.21908,8.003689999999999,3.308582,10.40526,3.0490826C11.22781,2.9836391,12.0546,2.9836391,12.8771,3.0490826C15.2084,3.244083,17.3271,4.21908,18.9521,5.71608C19.5881,6.30108,20.0818,6.9520800000000005,20.4365,7.66758C21.0006,8.77308,21.2834,9.94458,21.1428,11.18058L21.1428,11.50608L20.8599,11.18058C20.4677,10.8479,19.897,10.79524,19.4459,11.05008L19.2349,11.18058L19.2349,10.72608C19.2349,9.94608,19.0224,9.16458,18.6693,8.44908C18.3881,7.92708,17.9631,7.40808,17.5396,6.9520800000000005C16.3381,5.7820800000000006,14.5724,5.000579999999999,12.6646,4.80558C12.0075,4.74055,11.34518,4.74055,10.68807,4.80558C8.78182,5.000579999999999,7.01463,5.7805800000000005,5.81307,6.95058C5.33826,7.37453,4.95449,7.8836,4.68338,8.44908C3.76463,10.07508,3.97713,12.09108,5.10682,13.5881C5.53182,14.1731,6.09588,14.7581,6.73182,15.1481C7.01463,15.3431,7.15526,15.6701,7.01463,15.9956L6.87401,16.4501L6.5912,16.8401L6.51932,17.101100000000002L6.44901,17.2316L8.14588,16.3196L8.2162,16.3196C8.481770000000001,16.2012,8.78267,16.177799999999998,9.064630000000001,16.2536C9.48807,16.3841,9.91151,16.4486,10.40682,16.5146L10.61776,16.5146C11.82088,16.6436,13.0912,16.5146,14.2912,16.1891L14.5037,16.1231L14.5037,16.3181C14.4334,16.8386,14.7849,17.293100000000003,15.2803,17.4251L15.7053,17.5541L15.2099,17.6846L15.2084,17.6861Z" fill="#FFFFFF" fill-opacity="1"/></g><g><path d="M14.92699845,16.255891875C15.13697975,16.915941875,15.85947575,17.292451875,16.55043375,17.101891875C17.05112375,16.970161875,17.41606375,16.556661875,17.46918375,16.060891875C17.68012375,15.280891875,18.10356375,14.500891875,18.74106375,13.978891875C18.88168375,13.914391875,18.88168375,13.719391875,18.74106375,13.588891875C18.60043375,13.524391875,18.45825375,13.458391875,18.31606375,13.588891875C17.68012375,14.239891875,16.76293375,14.629891875,15.84418775,14.758891875C15.13793775,14.953891875,14.71450075,15.604891875,14.92543675,16.255891875L14.92699845,16.255891875ZM23.96762375,17.101891875C23.05204375,17.219111875,22.20517375,17.631681874999998,21.566063749999998,18.271891875C21.566063749999998,18.271891875,21.566063749999998,18.337891875,21.49418375,18.337891875C21.35356375,18.468391875000002,21.14262375,18.468391875000002,21.07231375,18.337891875C21.00043375,18.207391875,20.93012375,18.012391875,21.07231375,17.947891875C21.70668375,17.427391874999998,22.13012375,16.645891875,22.34262375,15.865891874999999C22.34262375,15.604891875,22.48325375,15.345391875,22.69574375,15.150391875C23.08937375,14.782011875,23.676043749999998,14.678851875,24.18012375,14.889391875C24.53244375,15.025311875,24.795223749999998,15.315531875,24.88639375,15.669391874999999C25.026993750000003,16.255891875,24.67387375,16.971391875000002,23.96762375,17.101891875ZM20.22387375,20.550391875000003C19.53242375,20.741901875,18.80885375,20.365201875,18.59887375,19.704391875C18.46251375,18.845151875,18.01156375,18.060701875,17.32699375,17.491891875L17.25668375,17.491891875C17.11606375,17.362891875,17.11606375,17.166391875000002,17.25668375,17.101891875C17.39731375,16.971391875000002,17.60981375,16.971391875000002,17.68012375,17.101891875C18.24574375,17.686891875,19.09418375,18.076891875,19.941063749999998,18.271891875C20.50668375,18.337891875,20.93012375,18.663391875000002,21.07075375,19.183891875C21.35356375,19.704391875,20.93012375,20.353891875000002,20.22387375,20.548891875000002L20.22387375,20.550391875000003ZM22.48481375,14.889391875C22.55512375,14.760391875,22.62543375,14.629891875,22.41293375,14.434891875C21.72331375,13.879201875,21.29169375,13.083421874999999,21.21293375,12.222389875C21.00366375,11.561028875,20.27949375,11.184010875,19.58793375,11.376389975C19.37777375,11.444792875,19.18539375,11.555804875,19.02387375,11.701889874999999C18.52959375,12.166086875,18.52959375,12.929691875,19.02387375,13.393891875C19.23050375,13.592821875,19.50800375,13.709141875,19.80043375,13.719391875C20.647313750000002,13.914391875,21.49575375,14.304391875,22.05981375,14.889391875C22.13012375,15.019891874999999,22.34262375,15.019891874999999,22.48481375,14.889391875Z" fill="#FFFFFF" fill-opacity="1"/></g></g></svg>