<svg xmlns="http://www.w3.org/2000/svg" xmlns:xlink="http://www.w3.org/1999/xlink" fill="none" version="1.1" width="24" height="24" viewBox="0 0 24 24"><defs><clipPath id="master_svg0_944_013479"><rect x="0" y="0" width="24" height="24" rx="0"/></clipPath></defs><g clip-path="url(#master_svg0_944_013479)"><g><path d="M15.5681125,8.637459374999999C15.8028125,8.637459374999999,16.0343125,8.654639375,16.2636125,8.679559375C15.6390125,5.8011993749999995,12.5286125,3.662109375,8.9785725,3.662109375C5.0093625,3.662109375,1.7578125,6.3394393749999995,1.7578125,9.738849375000001C1.7578125,11.700759375,2.8398125,13.312139375,4.647232499999999,14.561909375L3.9251525,16.711809375L6.4491025,15.459009375C7.3528125,15.635609375,8.0770725,15.817809375,8.9785725,15.817809375C9.2050525,15.817809375,9.4293025,15.806709375,9.6524725,15.789009375C9.511252500000001,15.311709375,9.4293025,14.811209375,9.4293025,14.292309375C9.4293225,11.170839375,12.1382125,8.637459374999999,15.5681125,8.637459374999999ZM11.6863625,6.699939375C12.2301125,6.699939375,12.5900125,7.054319375,12.5900125,7.592009375C12.5900125,8.127479375,12.2301125,8.486299375,11.6863625,8.486299375C11.1447825,8.486299375,10.6021325,8.127469375,10.6021325,7.592009375C10.6021325,7.054319375,11.1448125,6.699939375,11.6863625,6.699939375ZM6.6329425,8.486269375C6.0913625,8.486269375,5.5453725,8.127449375000001,5.5453725,7.591989375C5.5453725,7.054299374999999,6.0913625,6.699909375,6.6329425,6.699909375C7.1739125,6.699909375,7.5344125,7.054299374999999,7.5344125,7.591989375C7.5344125,8.127469375,7.1739125,8.486269375,6.6329425,8.486269375ZM22.1587125,14.206409375C22.1587125,11.349689375,19.2698125,9.021199375,16.025512499999998,9.021199375C12.5900125,9.021199375,9.8844925,11.349689375,9.8844925,14.206409375C9.8844925,17.067309375,12.5900125,19.390809375,16.025512499999998,19.390809375C16.7442125,19.390809375,17.4696125,19.212509375,18.1917125,19.033109375000002L20.1724125,20.106209375L19.6292125,18.321009375C21.0789125,17.244509375,22.1587125,15.817809375,22.1587125,14.206409375ZM14.0342125,13.312129375C13.6748125,13.312129375,13.3121125,12.958299375,13.3121125,12.597249375C13.3121125,12.241209375,13.6748125,11.882939375,14.0342125,11.882939375C14.5802125,11.882939375,14.9379125,12.241209375,14.9379125,12.597249375C14.9379125,12.958299375,14.5802125,13.312129375,14.0342125,13.312129375ZM18.0056125,13.312129375C17.649012499999998,13.312129375,17.2885125,12.958299375,17.2885125,12.597249375C17.2885125,12.241209375,17.649012499999998,11.882939375,18.0056125,11.882939375C18.5472125,11.882939375,18.9093125,12.241209375,18.9093125,12.597249375C18.9093125,12.958299375,18.5472125,13.312129375,18.0056125,13.312129375Z" fill="#FFFFFF" fill-opacity="1"/></g></g></svg>